<svg width="573" height="777" viewBox="0 0 573 777" fill="none" xmlns="http://www.w3.org/2000/svg">
<mask id="path-1-inside-1_28_387" fill="white">
<path d="M291.078 122.557C293.603 141.754 254.989 181.255 252.111 186.239H253.083C251.985 186.955 251.724 186.91 252.111 186.239H201.57L291.078 122.557Z"/>
</mask>
<path d="M291.078 122.557L368.9 112.321L351.885 -17.0338L245.576 58.6006L291.078 122.557ZM253.083 186.239L295.96 251.985L517.128 107.747H253.083V186.239ZM201.57 186.239L156.067 122.282L-44.1528 264.73H201.57V186.239ZM291.078 122.557L213.257 132.794C211.731 121.195 213.756 112.674 214.664 109.431C215.207 107.491 215.733 106.113 216.039 105.367C216.352 104.602 216.557 104.205 216.557 104.203C216.564 104.191 216.447 104.419 216.164 104.897C215.885 105.37 215.496 105.999 214.979 106.787C213.924 108.395 212.561 110.328 210.884 112.558C207.464 117.106 203.66 121.687 199.881 126.147C198.299 128.014 195.996 130.711 194.371 132.665C193.506 133.704 192.28 135.193 191.024 136.813C190.384 137.639 189.491 138.813 188.5 140.207C187.642 141.415 185.958 143.837 184.138 146.989L252.111 186.239L320.085 225.489C316.343 231.969 312.15 236.552 315.06 233.053C316.088 231.818 317.254 230.461 319.657 227.624C323.849 222.676 330.08 215.248 336.358 206.899C342.359 198.917 350.082 187.903 356.362 175.608C360.969 166.588 372.824 142.157 368.9 112.321L291.078 122.557ZM252.111 186.239L184.138 146.989C183.836 147.512 176.679 158.976 174.292 175.182C173.098 183.284 170.826 207.24 187.262 231.166C206.18 258.707 234.301 264.659 249.195 265.199C262.781 265.692 273.095 262.491 276.843 261.25C281.651 259.66 285.342 257.923 287.387 256.905C291.487 254.865 294.598 252.873 295.96 251.985L253.083 186.239L210.206 120.493C211.019 119.963 213.686 118.234 217.44 116.366C219.312 115.434 222.855 113.76 227.538 112.211C231.163 111.012 241.376 107.829 254.885 108.319C269.703 108.857 297.769 114.785 316.656 142.279C333.061 166.16 330.78 190.049 329.599 198.064C327.237 214.094 320.193 225.301 320.085 225.489L252.111 186.239ZM253.083 186.239V107.747H252.111V186.239V264.73H253.083V186.239ZM252.111 186.239V107.747H201.57V186.239V264.73H252.111V186.239ZM201.57 186.239L247.073 250.196L336.581 186.514L291.078 122.557L245.576 58.6006L156.067 122.282L201.57 186.239Z" fill="#6A38F3" mask="url(#path-1-inside-1_28_387)"/>
<mask id="path-3-inside-2_28_387" fill="white">
<path d="M280.185 176.455C270.006 166.956 280.739 145.789 287.379 136.393L270.148 160.409C265.007 171.327 274.697 175.655 280.185 176.455Z"/>
</mask>
<path d="M287.379 136.393L336.3 170.96L238.708 101.473L287.379 136.393ZM280.185 176.455L271.548 235.73L461.09 263.347L321.054 132.661L280.185 176.455ZM270.148 160.409L221.477 125.489L218.286 129.937L215.954 134.89L270.148 160.409ZM287.379 136.393L238.457 101.826C232.635 110.065 224.631 123.69 219.987 139.553C216.632 151.011 207.428 190.49 239.315 220.248L280.185 176.455L321.054 132.661C331.555 142.461 335.015 154.302 335.727 161.98C336.348 168.677 335.065 172.869 334.963 173.217C334.74 173.979 334.73 173.766 335.264 172.731C335.483 172.307 335.719 171.888 335.943 171.519C336.173 171.142 336.31 170.945 336.3 170.96L287.379 136.393ZM280.185 176.455L288.821 117.179C293.08 117.8 303.954 119.96 314.216 130.559C320.447 136.994 326.377 146.706 328.108 159.172C329.788 171.271 326.789 180.731 324.342 185.928L270.148 160.409L215.954 134.89C210.936 145.545 207.221 159.641 209.443 175.647C211.716 192.02 219.448 204.911 228.145 213.893C243.338 229.585 261.801 234.31 271.548 235.73L280.185 176.455ZM270.148 160.409L318.818 195.329L336.049 171.313L287.379 136.393L238.708 101.473L221.477 125.489L270.148 160.409Z" fill="#6A38F3" mask="url(#path-3-inside-2_28_387)"/>
<mask id="path-5-inside-3_28_387" fill="white">
<path d="M270.223 200.001C253.776 188.598 266.576 168.059 275.032 159.215L253.032 181.782C247.014 192.434 261.986 198.366 270.223 200.001Z"/>
</mask>
<path d="M275.032 159.215L318.328 200.611L232.14 117.4L275.032 159.215ZM270.223 200.001L258.565 258.757L304.352 150.772L270.223 200.001ZM253.032 181.782L210.14 139.967L204.706 145.541L200.877 152.319L253.032 181.782ZM275.032 159.215L231.736 117.818C223.655 126.271 211.536 141.841 205.714 162.116C202.613 172.916 200.383 188.354 204.979 205.538C209.908 223.966 221.251 238.939 236.095 249.23L270.223 200.001L304.352 150.772C310.972 155.362 317.747 163.491 320.714 174.584C323.349 184.434 321.764 192.047 320.864 195.181C320.366 196.914 319.848 198.108 319.545 198.745C319.233 199.4 319.002 199.773 318.923 199.897C318.853 200.007 318.786 200.132 318.328 200.611L275.032 159.215ZM270.223 200.001L281.882 141.245C281.958 141.26 286.084 141.742 292.25 146.372C295.664 148.935 304.347 156.305 308.906 170.125C314.262 186.359 310.718 201.453 305.186 211.246L253.032 181.782L200.877 152.319C192.336 167.438 188.407 187.267 195.135 207.66C201.067 225.64 212.88 236.592 220.314 242.174C234.52 252.841 250.251 257.107 258.565 258.757L270.223 200.001ZM253.032 181.782L295.924 223.597L317.924 201.03L275.032 159.215L232.14 117.4L210.14 139.967L253.032 181.782Z" fill="#6A38F3" mask="url(#path-5-inside-3_28_387)"/>
<mask id="path-7-inside-4_28_387" fill="white">
<path d="M253.867 185.217C253.88 185.212 253.891 185.212 253.898 185.216L253.867 185.217C253.264 185.432 246.726 194.572 253.898 203.118C246.873 199.011 221.528 194.821 213.964 186.246L253.867 185.217Z"/>
</mask>
<path d="M253.898 185.216L255.442 245.098L463.939 239.721L284.365 133.641L253.898 185.216ZM253.898 203.118L223.664 254.829L299.783 164.611L253.898 203.118ZM213.964 186.246L212.42 126.364L84.1717 129.671L169.044 225.875L213.964 186.246ZM253.898 185.216L284.365 133.641C261.005 119.842 239.062 126.902 233.766 128.789L253.867 185.217L273.967 241.645C270.096 243.024 263.66 244.876 255.478 245.094C246.964 245.32 235.235 243.764 223.431 236.791L253.898 185.216ZM253.867 185.217L233.768 128.788C224.143 132.216 217.827 137.325 216.382 138.481C213.858 140.499 211.989 142.329 210.914 143.425C208.699 145.684 207.053 147.713 206.044 149.016C203.899 151.785 202.114 154.543 200.652 157.092C197.723 162.196 194.679 168.918 192.727 177.031C188.473 194.714 189.694 219.795 208.013 241.625L253.898 203.118L299.783 164.611C310.93 177.894 311.835 194.132 309.206 205.056C308.068 209.788 306.323 213.65 304.566 216.713C303.689 218.242 302.458 220.183 300.758 222.378C299.971 223.394 298.52 225.196 296.464 227.294C295.468 228.309 293.669 230.075 291.205 232.045C289.819 233.154 283.552 238.232 273.965 241.646L253.867 185.217ZM253.898 203.118L284.132 151.406C279.037 148.427 274.3 146.538 271.752 145.57C268.835 144.461 266.016 143.537 263.867 142.856C261.702 142.169 259.379 141.467 257.61 140.929C255.67 140.338 254.05 139.841 252.527 139.349C251.015 138.862 249.86 138.463 248.972 138.132C248.059 137.793 247.727 137.635 247.818 137.677C247.847 137.691 248.9 138.176 250.534 139.253C252.055 140.256 255.321 142.58 258.883 146.617L213.964 186.246L169.044 225.875C179.141 237.32 191.092 243.401 196.996 246.167C203.978 249.437 210.899 251.803 215.74 253.365C218.297 254.19 220.749 254.939 222.731 255.542C224.883 256.197 226.333 256.636 227.65 257.053C228.983 257.476 229.355 257.62 229.199 257.561C229.081 257.516 228.559 257.316 227.763 256.958C227.02 256.623 225.543 255.928 223.664 254.829L253.898 203.118ZM213.964 186.246L215.508 246.128L255.411 245.099L253.867 185.217L252.322 125.335L212.42 126.364L213.964 186.246ZM253.867 185.217L255.411 245.099L255.442 245.098L253.898 185.216L252.354 125.334L252.322 125.335L253.867 185.217Z" fill="#6A38F3" mask="url(#path-7-inside-4_28_387)"/>
<mask id="path-9-inside-5_28_387" fill="white">
<path d="M95.6994 122.557C93.1743 141.754 131.788 181.255 134.666 186.239H133.694C134.793 186.955 135.054 186.91 134.666 186.239H185.208L95.6994 122.557Z"/>
</mask>
<path d="M95.6994 122.557L17.878 112.321L34.893 -17.0338L141.202 58.6006L95.6994 122.557ZM133.694 186.239L90.8173 251.985L-130.35 107.747H133.694V186.239ZM185.208 186.239L230.71 122.282L430.93 264.73H185.208V186.239ZM95.6994 122.557L173.521 132.794C175.046 121.195 173.022 112.674 172.114 109.431C171.57 107.491 171.044 106.113 170.739 105.367C170.425 104.602 170.221 104.205 170.22 104.203C170.214 104.191 170.331 104.419 170.613 104.897C170.892 105.37 171.282 105.999 171.798 106.787C172.853 108.395 174.217 110.328 175.893 112.558C179.314 117.106 183.118 121.687 186.897 126.147C188.478 128.014 190.782 130.711 192.407 132.665C193.271 133.704 194.497 135.193 195.753 136.813C196.394 137.639 197.287 138.813 198.277 140.207C199.136 141.415 200.819 143.837 202.64 146.989L134.666 186.239L66.6926 225.489C70.4345 231.969 74.6278 236.552 71.7173 233.053C70.6896 231.818 69.524 230.461 67.1204 227.624C62.9284 222.676 56.6974 215.248 50.42 206.899C44.4186 198.917 36.6954 187.903 30.4158 175.608C25.8091 166.588 13.9534 142.157 17.878 112.321L95.6994 122.557ZM134.666 186.239L202.64 146.989C202.942 147.512 210.098 158.976 212.486 175.182C213.679 183.284 215.952 207.24 199.516 231.166C180.597 258.707 152.477 264.659 137.583 265.199C123.996 265.692 113.683 262.491 109.934 261.25C105.126 259.66 101.436 257.923 99.391 256.905C95.2909 254.865 92.1793 252.873 90.8173 251.985L133.694 186.239L176.571 120.493C175.759 119.963 173.092 118.234 169.337 116.366C167.465 115.434 163.923 113.76 159.239 112.211C155.615 111.012 145.402 107.829 131.892 108.319C117.075 108.857 89.0087 114.785 70.1213 142.279C53.7166 166.16 55.998 190.049 57.1789 198.064C59.5407 214.094 66.5841 225.301 66.6926 225.489L134.666 186.239ZM133.694 186.239V107.747H134.666V186.239V264.73H133.694V186.239ZM134.666 186.239V107.747H185.208V186.239V264.73H134.666V186.239ZM185.208 186.239L139.705 250.196L50.1968 186.514L95.6994 122.557L141.202 58.6006L230.71 122.282L185.208 186.239Z" fill="#6A38F3" mask="url(#path-9-inside-5_28_387)"/>
<mask id="path-11-inside-6_28_387" fill="white">
<path d="M106.593 176.455C116.772 166.956 106.038 145.789 99.3991 136.393L116.63 160.409C121.771 171.327 112.081 175.655 106.593 176.455Z"/>
</mask>
<path d="M99.3991 136.393L50.4778 170.96L148.069 101.473L99.3991 136.393ZM106.593 176.455L115.23 235.73L-74.3126 263.347L65.7233 132.661L106.593 176.455ZM116.63 160.409L165.3 125.489L168.492 129.937L170.824 134.89L116.63 160.409ZM99.3991 136.393L148.32 101.826C154.143 110.065 162.146 123.69 166.791 139.553C170.146 151.011 179.35 190.49 147.463 220.248L106.593 176.455L65.7233 132.661C55.2224 142.461 51.7625 154.302 51.0508 161.98C50.43 168.677 51.7127 172.869 51.8146 173.217C52.0378 173.979 52.0472 173.766 51.5136 172.731C51.295 172.307 51.0582 171.888 50.8344 171.519C50.605 171.142 50.4671 170.945 50.4778 170.96L99.3991 136.393ZM106.593 176.455L97.9562 117.179C93.6973 117.8 82.8234 119.96 72.5618 130.559C66.3307 136.994 60.4004 146.706 58.6697 159.172C56.9898 171.271 59.9888 180.731 62.4358 185.928L116.63 160.409L170.824 134.89C175.841 145.545 179.557 159.641 177.335 175.647C175.061 192.02 167.329 204.911 158.632 213.893C143.439 229.585 124.976 234.31 115.23 235.73L106.593 176.455ZM116.63 160.409L67.9595 195.329L50.7287 171.313L99.3991 136.393L148.069 101.473L165.3 125.489L116.63 160.409Z" fill="#6A38F3" mask="url(#path-11-inside-6_28_387)"/>
<mask id="path-13-inside-7_28_387" fill="white">
<path d="M116.554 200.001C133.002 188.598 120.202 168.059 111.745 159.215L133.746 181.782C139.763 192.434 124.792 198.366 116.554 200.001Z"/>
</mask>
<path d="M111.745 159.215L68.4494 200.611L154.637 117.4L111.745 159.215ZM116.554 200.001L128.213 258.757L82.426 150.772L116.554 200.001ZM133.746 181.782L176.638 139.967L182.072 145.541L185.901 152.319L133.746 181.782ZM111.745 159.215L155.041 117.818C163.123 126.271 175.242 141.841 181.064 162.116C184.165 172.916 186.395 188.354 181.799 205.538C176.87 223.966 165.527 238.939 150.682 249.23L116.554 200.001L82.426 150.772C75.8056 155.362 69.0301 163.491 66.0632 174.584C63.4288 184.434 65.0138 192.047 65.9138 195.181C66.4115 196.914 66.9296 198.108 67.2329 198.745C67.5447 199.4 67.7756 199.773 67.8543 199.897C67.9246 200.007 67.9914 200.132 68.4494 200.611L111.745 159.215ZM116.554 200.001L104.896 141.245C104.82 141.26 100.693 141.742 94.5281 146.372C91.114 148.935 82.4307 156.305 77.8711 170.125C72.5154 186.359 76.0592 201.453 81.5913 211.246L133.746 181.782L185.901 152.319C194.442 167.438 198.37 187.267 191.643 207.66C185.711 225.64 173.898 236.592 166.464 242.174C152.257 252.841 136.526 257.107 128.213 258.757L116.554 200.001ZM133.746 181.782L90.854 223.597L68.8533 201.03L111.745 159.215L154.637 117.4L176.638 139.967L133.746 181.782Z" fill="#6A38F3" mask="url(#path-13-inside-7_28_387)"/>
<mask id="path-15-inside-8_28_387" fill="white">
<path d="M132.911 185.217C132.897 185.212 132.887 185.212 132.88 185.216L132.911 185.217C133.514 185.432 140.051 194.572 132.88 203.118C139.904 199.011 165.249 194.821 172.814 186.246L132.911 185.217Z"/>
</mask>
<path d="M132.88 185.216L131.335 245.098L-77.1614 239.721L102.413 133.641L132.88 185.216ZM132.88 203.118L163.114 254.829L86.9948 164.611L132.88 203.118ZM172.814 186.246L174.358 126.364L302.606 129.671L217.733 225.875L172.814 186.246ZM132.88 185.216L102.413 133.641C125.772 119.842 147.716 126.902 153.012 128.789L132.911 185.217L112.81 241.645C116.681 243.024 123.117 244.876 131.3 245.094C139.813 245.32 151.543 243.764 163.346 236.791L132.88 185.216ZM132.911 185.217L153.009 128.788C162.634 132.216 168.95 137.325 170.396 138.481C172.92 140.499 174.789 142.329 175.864 143.425C178.079 145.684 179.725 147.713 180.734 149.016C182.879 151.785 184.663 154.543 186.126 157.092C189.054 162.196 192.098 168.918 194.05 177.031C198.305 194.714 197.084 219.795 178.764 241.625L132.88 203.118L86.9948 164.611C75.8471 177.894 74.9429 194.132 77.5711 205.056C78.7098 209.788 80.4545 213.65 82.2119 216.713C83.089 218.242 84.3196 220.183 86.0198 222.378C86.8063 223.394 88.2575 225.196 90.3138 227.294C91.3092 228.309 93.1086 230.075 95.573 232.045C96.9588 233.154 103.226 238.232 112.813 241.646L132.911 185.217ZM132.88 203.118L102.645 151.406C107.741 148.427 112.477 146.538 115.026 145.57C117.942 144.461 120.761 143.537 122.91 142.856C125.075 142.169 127.398 141.467 129.168 140.929C131.108 140.338 132.727 139.841 134.251 139.349C135.762 138.862 136.917 138.463 137.806 138.132C138.718 137.793 139.051 137.635 138.96 137.677C138.931 137.691 137.877 138.176 136.244 139.253C134.722 140.256 131.456 142.58 127.894 146.617L172.814 186.246L217.733 225.875C207.636 237.32 195.685 243.401 189.781 246.167C182.799 249.437 175.879 251.803 171.037 253.365C168.481 254.19 166.029 254.939 164.047 255.542C161.895 256.197 160.445 256.636 159.128 257.053C157.795 257.476 157.422 257.62 157.578 257.561C157.696 257.516 158.219 257.316 159.014 256.958C159.758 256.623 161.235 255.928 163.114 254.829L132.88 203.118ZM172.814 186.246L171.27 246.128L131.367 245.099L132.911 185.217L134.455 125.335L174.358 126.364L172.814 186.246ZM132.911 185.217L131.367 245.099L131.335 245.098L132.88 185.216L134.424 125.334L134.455 125.335L132.911 185.217Z" fill="#6A38F3" mask="url(#path-15-inside-8_28_387)"/>
<ellipse cx="192.978" cy="103.699" rx="100.996" ry="83.5826" fill="#C6E700"/>
<path d="M183.941 115.672C183.002 129.26 203.768 128.912 201.543 115.672" stroke="black" stroke-width="2.32174" stroke-linecap="round"/>
<mask id="path-19-inside-9_28_387" fill="white">
<path d="M77.1443 94.5001C82.9303 81.9554 96.5585 86.7708 101.841 93.2454L96.6819 113.768C88.2977 110.906 71.3584 107.045 77.1443 94.5001Z"/>
</mask>
<path d="M101.841 93.2454L167.034 40.0585L193.738 72.7898L183.439 113.757L101.841 93.2454ZM77.1443 94.5001L153.547 129.739L77.1443 94.5001ZM96.6819 113.768L178.28 134.28L156 222.914L69.5062 193.395L96.6819 113.768ZM101.841 93.2454L36.647 146.432C47.087 159.229 62.4307 168.708 81.8977 170.517C93.3161 171.578 108.492 170.049 123.66 161.596C139.223 152.922 148.64 140.376 153.547 129.739L77.1443 94.5001L0.742104 59.2614C8.54119 42.3519 21.8315 25.7032 41.7424 14.6068C61.2578 3.73077 81.2562 1.45816 97.4651 2.96414C126.513 5.66302 151.312 20.7872 167.034 40.0585L101.841 93.2454ZM77.1443 94.5001L153.547 129.739C159.926 115.908 164.1 93.6748 154.231 70.0126C145.79 49.775 131.612 39.8515 126.655 36.7082C123.604 34.7738 121.162 33.6015 119.885 33.0257C118.562 32.4287 117.723 32.1309 117.693 32.1203C117.678 32.1147 117.928 32.2044 118.989 32.5461C119.545 32.725 121.897 33.4709 123.857 34.1401L96.6819 113.768L69.5062 193.395C73.9628 194.916 62.3313 191.035 60.8633 190.508C56.1186 188.805 46.5989 185.198 36.544 178.822C27.027 172.788 9.17507 159.368 -1.07653 134.789C-12.7565 106.785 -8.53008 79.3647 0.742104 59.2614L77.1443 94.5001ZM96.6819 113.768L15.0833 93.2556L20.2422 72.7334L101.841 93.2454L183.439 113.757L178.28 134.28L96.6819 113.768Z" fill="#C6E700" mask="url(#path-19-inside-9_28_387)"/>
<path d="M85.6977 96.2544L95.6631 103.785L88.539 105.539" stroke="black" stroke-width="0.807557" stroke-linecap="round"/>
<mask id="path-22-inside-10_28_387" fill="white">
<path d="M304.928 95.8772C299.142 83.3324 285.514 88.1479 280.232 94.6225L285.391 115.145C293.775 112.283 310.714 108.422 304.928 95.8772Z"/>
</mask>
<path d="M280.232 94.6225L215.038 41.4355L188.335 74.1669L198.634 115.134L280.232 94.6225ZM304.928 95.8772L228.526 131.116L304.928 95.8772ZM285.391 115.145L203.792 135.657L226.073 224.291L312.567 194.772L285.391 115.145ZM280.232 94.6225L345.426 147.809C334.986 160.606 319.642 170.085 300.175 171.894C288.757 172.955 273.58 171.426 258.413 162.973C242.849 154.299 233.432 141.753 228.526 131.116L304.928 95.8772L381.331 60.6384C373.532 43.729 360.241 27.0803 340.33 15.9838C320.815 5.10783 300.817 2.83522 284.608 4.3412C255.559 7.04008 230.76 22.1642 215.038 41.4355L280.232 94.6225ZM304.928 95.8772L228.526 131.116C222.147 117.285 217.973 95.0519 227.842 71.3896C236.283 51.152 250.461 41.2286 255.418 38.0853C258.469 36.1508 260.911 34.9786 262.188 34.4028C263.511 33.8058 264.35 33.5079 264.379 33.4974C264.395 33.4918 264.145 33.5814 263.083 33.9232C262.528 34.1021 260.176 34.848 258.215 35.5172L285.391 115.145L312.567 194.772C308.11 196.293 319.741 192.412 321.209 191.885C325.954 190.182 335.474 186.575 345.529 180.199C355.046 174.165 372.898 160.745 383.149 136.166C394.829 108.162 390.603 80.7417 381.331 60.6384L304.928 95.8772ZM285.391 115.145L366.989 94.6327L361.831 74.1104L280.232 94.6225L198.634 115.134L203.792 135.657L285.391 115.145Z" fill="#C6E700" mask="url(#path-22-inside-10_28_387)"/>
<path d="M296.375 97.6314L286.41 105.162L293.534 106.916" stroke="black" stroke-width="0.807557" stroke-linecap="round"/>
<path d="M224.321 82.8962C227.05 82.5092 232.881 83.1283 234.374 88.7005" stroke="black" stroke-width="1.54783" stroke-linecap="round"/>
<path d="M164.722 83.6701C161.993 83.2831 156.162 83.9023 154.669 89.4744" stroke="black" stroke-width="1.54783" stroke-linecap="round"/>
<path d="M221.225 112.986V95.9599" stroke="black" stroke-width="6.96521" stroke-linecap="round"/>
<path d="M220.504 93.2951L220.848 88.1312M222.569 93.2951L223.947 88.1312M223.947 94.6722L226.701 89.8525" stroke="black" stroke-width="2.06557" stroke-linecap="round"/>
<path d="M167.353 112.986V95.96" stroke="black" stroke-width="6.96521" stroke-linecap="round"/>
<path d="M168.074 93.2952L167.729 88.1313M166.008 93.2952L164.631 88.1313M164.631 94.6723L161.877 89.8526" stroke="black" stroke-width="2.06557" stroke-linecap="round"/>
<path d="M195.701 274.003C195.862 274.633 196.025 275.274 196.185 275.927C200.004 291.47 202.495 308.636 204.287 326.236H185.108C186.976 312.248 189.568 297.626 193.037 283.814C193.91 280.338 194.801 277.068 195.701 274.003Z" stroke="#6A38F3" stroke-width="128.47" stroke-linecap="round"/>
<path d="M229.225 239.608C228.112 239.643 227.251 240.572 227.286 241.674C227.297 241.949 227.354 242.213 227.469 242.477L227.802 243.212C227.848 243.361 227.768 243.521 227.607 243.567C227.504 243.625 227.389 243.567 227.309 243.475L226.827 242.844C226.448 242.362 225.874 242.064 225.266 242.052C224.153 242.03 223.235 242.913 223.212 244.015C223.2 244.497 223.361 244.956 223.659 245.346L224.141 245.92H224.153C224.245 246.069 224.21 246.252 224.084 246.344C223.981 246.425 223.843 246.425 223.751 246.344L223.143 245.862C222.753 245.564 222.282 245.403 221.812 245.415C220.71 245.438 219.827 246.356 219.85 247.469C219.861 248.077 220.159 248.651 220.641 249.03L221.295 249.534C221.422 249.649 221.422 249.833 221.284 249.936C221.246 249.975 221.197 250.002 221.144 250.012C221.09 250.022 221.035 250.016 220.986 249.993H220.974L220.274 249.672C220.01 249.569 219.746 249.5 219.471 249.489C218.369 249.454 217.44 250.326 217.405 251.439C217.405 252.266 217.864 253.023 218.622 253.344L231.692 259.162L236.959 253.895L231.141 240.825C230.82 240.056 230.028 239.574 229.225 239.608ZM230.177 244.313C230.659 244.302 231.095 244.577 231.279 245.013L234.779 252.862L230.246 248.341L229.179 245.92C228.835 245.197 229.363 244.336 230.177 244.313ZM226.413 247.469C226.723 247.469 227.01 247.584 227.228 247.813L232.748 253.333C233.207 253.769 233.218 254.492 232.782 254.951C232.323 255.41 231.612 255.421 231.13 254.951L225.61 249.431C225.501 249.327 225.414 249.203 225.353 249.065C225.293 248.926 225.261 248.778 225.259 248.627C225.257 248.476 225.285 248.327 225.341 248.187C225.397 248.047 225.481 247.92 225.587 247.813C225.805 247.584 226.104 247.469 226.413 247.469ZM223.292 251.279C223.441 251.279 223.602 251.325 223.717 251.382L226.161 252.461L230.682 256.982L222.81 253.482C221.64 252.977 222.03 251.244 223.292 251.279ZM238.382 255.72L233.517 260.585L234.492 261.561C235.364 262.421 236.627 262.754 237.809 262.444C238.391 262.286 238.921 261.978 239.348 261.551C239.775 261.124 240.083 260.594 240.241 260.011C240.551 258.83 240.218 257.567 239.358 256.695L238.382 255.72Z" fill="white"/>
<path d="M141.807 395.901H183.232C189.463 495.384 182.965 577.51 178.328 733.278H148.377C143.525 601.524 134.171 527.655 141.807 395.901Z" fill="#C6E700"/>
<path d="M207.384 395.901H248.809C255.041 495.384 248.543 577.51 243.905 733.278H213.954C209.102 601.524 199.748 527.655 207.384 395.901Z" fill="#C6E700"/>
<mask id="path-35-inside-11_28_387" fill="white">
<path d="M176.439 183.836C182.406 199.557 198.471 221.567 214.996 183.836H176.439Z"/>
</mask>
<path d="M176.439 183.836V-189.344H-364.364L-172.455 316.263L176.439 183.836ZM214.996 183.836L556.83 333.545L785.833 -189.344H214.996V183.836ZM176.439 183.836L-172.455 316.263C-162.636 342.13 -146.948 375.983 -122.12 411.121C-102.221 439.285 -47.9568 509.626 52.2856 550.018C184.929 603.465 326.92 576.784 429.376 498.519C507.298 438.995 542.88 365.399 556.83 333.545L214.996 183.836L-126.838 34.1276C-121.15 21.1387 -93.7728 -41.0595 -23.697 -94.59C15.81 -124.769 71.5976 -154.027 142.065 -164.536C213.402 -175.175 278.699 -163.424 331.231 -142.256C424.646 -104.616 472.742 -40.3664 487.434 -19.572C507.055 8.19658 518.497 33.4025 525.332 51.4094L176.439 183.836ZM214.996 183.836V-189.344H176.439V183.836V557.016H214.996V183.836Z" fill="#C6E700" mask="url(#path-35-inside-11_28_387)"/>
<mask id="path-37-inside-12_28_387" fill="white">
<path d="M222.643 353.901V351.147C222.036 351.262 220.704 351.695 220.234 352.51C219.763 353.325 221.644 353.777 222.643 353.901Z"/>
</mask>
<path d="M222.643 351.147H268.775V295.483L214.078 305.819L222.643 351.147ZM222.643 353.901L216.951 399.68L268.775 406.125V353.901H222.643ZM220.234 352.51L260.184 375.576L260.184 375.576L220.234 352.51ZM222.643 351.147H176.512V353.901H222.643H268.775V351.147H222.643ZM222.643 353.901L228.336 308.123C229.774 308.302 233.919 308.855 239.098 311.08C240.862 311.838 249.307 315.408 256.441 324.422C260.596 329.67 265.106 337.822 266.097 348.558C267.109 359.525 264.051 368.878 260.184 375.576L220.234 352.51L180.283 329.445C176.298 336.346 173.196 345.891 174.225 357.039C175.233 367.957 179.82 376.278 184.101 381.686C191.487 391.017 200.377 394.861 202.677 395.849C208.928 398.535 214.513 399.377 216.951 399.68L222.643 353.901ZM220.234 352.51L260.184 375.576C256.551 381.869 252.165 385.941 249.16 388.294C246.082 390.703 243.27 392.233 241.348 393.155C237.758 394.878 234.342 395.884 231.209 396.476L222.643 351.147L214.078 305.819C210.338 306.525 205.952 307.805 201.426 309.977C198.05 311.598 187.477 316.984 180.283 329.445L220.234 352.51Z" fill="#6A38F3" mask="url(#path-37-inside-12_28_387)"/>
<mask id="path-39-inside-13_28_387" fill="white">
<path d="M219.889 363.54V360.786C219.282 360.901 217.95 361.334 217.479 362.149C217.009 362.964 218.89 363.416 219.889 363.54Z"/>
</mask>
<path d="M219.889 360.786H266.02V305.121L211.324 315.457L219.889 360.786ZM219.889 363.54L214.197 409.319L266.02 415.763V363.54H219.889ZM217.479 362.149L257.43 385.215L257.43 385.215L217.479 362.149ZM219.889 360.786H173.758V363.54H219.889H266.02V360.786H219.889ZM219.889 363.54L225.582 317.762C227.02 317.941 231.165 318.494 236.344 320.719C238.108 321.477 246.552 325.047 253.687 334.061C257.842 339.309 262.352 347.461 263.343 358.197C264.355 369.164 261.297 378.517 257.43 385.215L217.479 362.149L177.529 339.083C173.544 345.985 170.442 355.53 171.471 366.678C172.479 377.595 177.066 385.917 181.347 391.325C188.733 400.656 197.623 404.5 199.923 405.488C206.174 408.174 211.759 409.016 214.197 409.319L219.889 363.54ZM217.479 362.149L257.43 385.215C253.797 391.507 249.411 395.58 246.406 397.932C243.328 400.342 240.515 401.872 238.594 402.794C235.004 404.517 231.588 405.523 228.455 406.115L219.889 360.786L211.324 315.457C207.584 316.164 203.198 317.444 198.672 319.616C195.296 321.237 184.723 326.622 177.529 339.083L217.479 362.149Z" fill="#6A38F3" mask="url(#path-39-inside-13_28_387)"/>
<mask id="path-41-inside-14_28_387" fill="white">
<path d="M221.955 371.803V369.049C221.348 369.163 220.016 369.596 219.545 370.411C219.075 371.226 220.956 371.678 221.955 371.803Z"/>
</mask>
<path d="M221.955 369.049H268.086V313.384L213.389 323.72L221.955 369.049ZM221.955 371.803L216.262 417.581L268.086 424.026V371.803H221.955ZM219.545 370.411L259.496 393.477L259.496 393.477L219.545 370.411ZM221.955 369.049H175.824V371.803H221.955H268.086V369.049H221.955ZM221.955 371.803L227.648 326.024C229.086 326.203 233.231 326.756 238.41 328.981C240.173 329.739 248.618 333.31 255.753 342.323C259.908 347.572 264.417 355.723 265.408 366.459C266.421 377.426 263.363 386.779 259.496 393.477L219.545 370.411L179.594 347.346C175.61 354.247 172.508 363.793 173.537 374.941C174.545 385.858 179.132 394.179 183.412 399.587C190.799 408.918 199.688 412.762 201.988 413.75C208.24 416.437 213.825 417.278 216.262 417.581L221.955 371.803ZM219.545 370.411L259.496 393.477C255.863 399.77 251.476 403.842 248.472 406.195C245.393 408.605 242.581 410.134 240.66 411.056C237.069 412.78 233.653 413.785 230.521 414.377L221.955 369.049L213.389 323.72C209.649 324.426 205.264 325.706 200.738 327.878C197.361 329.499 186.789 334.885 179.594 347.346L219.545 370.411Z" fill="#6A38F3" mask="url(#path-41-inside-14_28_387)"/>
<mask id="path-43-inside-15_28_387" fill="white">
<path d="M226.086 380.753V377.999C225.479 378.114 224.147 378.547 223.676 379.362C223.206 380.177 225.087 380.629 226.086 380.753Z"/>
</mask>
<path d="M226.086 377.999H272.217V322.334L217.52 332.67L226.086 377.999ZM226.086 380.753L220.393 426.532L272.217 432.977V380.753H226.086ZM223.676 379.362L263.627 402.428L263.627 402.428L223.676 379.362ZM226.086 377.999H179.955V380.753H226.086H272.217V377.999H226.086ZM226.086 380.753L231.779 334.975C233.217 335.154 237.362 335.707 242.541 337.932C244.304 338.69 252.749 342.26 259.884 351.274C264.039 356.522 268.548 364.674 269.54 375.41C270.552 386.377 267.494 395.73 263.627 402.428L223.676 379.362L183.726 356.297C179.741 363.198 176.639 372.743 177.668 383.891C178.676 394.809 183.263 403.13 187.544 408.538C194.93 417.869 203.819 421.713 206.119 422.701C212.371 425.387 217.956 426.229 220.393 426.532L226.086 380.753ZM223.676 379.362L263.627 402.428C259.994 408.721 255.607 412.793 252.603 415.145C249.524 417.555 246.712 419.085 244.791 420.007C241.2 421.73 237.785 422.736 234.652 423.328L226.086 377.999L217.52 332.67C213.78 333.377 209.395 334.657 204.869 336.829C201.493 338.45 190.92 343.835 183.726 356.297L223.676 379.362Z" fill="#6A38F3" mask="url(#path-43-inside-15_28_387)"/>
<path d="M244.867 420.688L249.935 476.114H140.811L145.88 420.688H244.867Z" stroke="black" stroke-width="61.2786" stroke-linecap="round"/>
<mask id="path-46-inside-16_28_387" fill="white">
<path d="M183.668 15.1477C135.471 18.9344 98.5198 32.4388 90.373 91.5739C142.019 81.3935 231.865 11.361 183.668 15.1477Z"/>
</mask>
<path d="M183.668 15.1477L187.066 58.3915L183.668 15.1477ZM90.373 91.5739L47.4019 85.654L39.1032 145.892L98.762 134.132L90.373 91.5739ZM183.668 15.1477L180.271 -28.096C154.386 -26.0623 123.44 -21.0998 97.3557 -3.08987C68.8838 16.5689 52.7372 46.926 47.4019 85.654L90.373 91.5739L133.344 97.4938C136.156 77.0867 142.558 71.124 146.648 68.3002C153.126 63.8275 164.754 60.1445 187.066 58.3915L183.668 15.1477ZM90.373 91.5739L98.762 134.132C134.231 127.14 176.002 102.433 201.553 81.9998C208.378 76.5418 215.01 70.638 220.679 64.5554C225.644 59.2281 232.775 50.7403 237.016 40.0323C239.222 34.4621 241.887 25.2155 240.358 14.0413C238.624 1.37229 231.992 -9.85723 221.975 -17.5221C213.149 -24.2753 203.878 -26.6459 197.795 -27.5917C191.419 -28.5833 185.352 -28.4953 180.271 -28.096L183.668 15.1477L187.066 58.3915C188.008 58.3174 186.888 58.5088 184.465 58.132C182.337 57.801 176.026 56.5567 169.256 51.3759C161.294 45.2835 155.81 36.0726 154.405 25.8031C153.204 17.0284 155.377 10.5622 156.357 8.08802C158.146 3.57216 159.887 2.53901 157.215 5.4068C155.246 7.51924 151.991 10.5509 147.37 14.2465C127.136 30.4277 98.1606 45.8271 81.9841 49.0158L90.373 91.5739Z" fill="#6A38F3" mask="url(#path-46-inside-16_28_387)"/>
<mask id="path-48-inside-17_28_387" fill="white">
<path d="M200.873 15.2955C252.102 21.5191 280.138 25.6291 294.168 91.7217C236.836 72.6287 149.643 9.07195 200.873 15.2955Z"/>
</mask>
<path d="M200.873 15.2955L195.642 58.356L200.873 15.2955ZM294.168 91.7217L336.6 82.7146L352.328 156.809L280.462 132.877L294.168 91.7217ZM200.873 15.2955L206.104 -27.7649C228.752 -25.0135 260.028 -21.9627 285.459 -5.08235C314.34 14.0881 328.556 44.8219 336.6 82.7146L294.168 91.7217L251.736 100.729C245.75 72.5288 238.933 68.1614 237.482 67.1978C232.58 63.9441 224.224 61.8282 195.642 58.356L200.873 15.2955ZM294.168 91.7217L280.462 132.877C246.344 121.514 205.931 98.2274 180.226 78.2911C173.594 73.1478 167.064 67.5583 161.511 61.7901C157.036 57.1416 148.962 48.1643 144.792 36.1367C142.51 29.5561 140.007 18.0278 144.34 4.85142C149.071 -9.5351 159.42 -18.3769 168.732 -22.9408C183.456 -30.1574 199.008 -28.6269 206.104 -27.7649L200.873 15.2955L195.642 58.356C189.93 57.6621 197.001 59.8173 206.912 54.9599C213.817 51.5755 222.677 44.3468 226.753 31.9513C230.431 20.7658 228.108 11.6063 226.759 7.71651C224.455 1.07049 221.257 -1.23715 224.013 1.62585C225.691 3.36916 228.745 6.13309 233.394 9.73872C252.811 24.7981 284.66 42.836 307.873 50.5668L294.168 91.7217Z" fill="#6A38F3" mask="url(#path-48-inside-17_28_387)"/>
<mask id="path-50-inside-18_28_387" fill="white">
<path d="M193.758 28.797C180.085 53.1776 145.579 97.8298 114.816 84.7938C129.81 80.8326 166.59 64.0875 193.758 28.797Z"/>
</mask>
<path d="M212.96 38.8948C218.781 28.4263 215.014 15.2208 204.545 9.3994C194.077 3.57804 180.871 7.34531 175.05 17.8138L194.005 28.3543L212.96 38.8948ZM174.841 18.1883C168.982 28.6358 172.701 41.8548 183.149 47.7138C193.596 53.5728 206.815 49.8532 212.674 39.4057L193.758 28.797L174.841 18.1883ZM194.005 28.3543L175.05 17.8138C174.981 17.9377 174.911 18.0625 174.841 18.1883L193.758 28.797L212.674 39.4057C212.77 39.2348 212.865 39.0645 212.96 38.8948L194.005 28.3543ZM193.758 28.797L231.591 50.0146L159.386 2.33678L193.758 28.797ZM114.816 84.7938L103.736 42.8556L-18.8826 75.2496L97.8915 124.733L114.816 84.7938ZM193.758 28.797L155.924 7.57936C150.594 17.0825 141.352 30.0005 131.908 38.3789C127.225 42.5342 124.414 43.8417 123.816 44.0517C123.72 44.0856 124.595 43.7629 126.247 43.7541C128.027 43.7445 129.979 44.1085 131.74 44.8547L114.816 84.7938L97.8915 124.733C138.153 141.794 172.977 117.919 189.483 103.274C208.401 86.4905 223.248 64.892 231.591 50.0146L193.758 28.797ZM114.816 84.7938L125.895 126.732C148.598 120.734 194.211 99.3175 228.129 55.2572L193.758 28.797L159.386 2.33678C138.969 28.8575 111.022 40.9308 103.736 42.8556L114.816 84.7938Z" fill="#6A38F3" mask="url(#path-50-inside-18_28_387)"/>
<mask id="path-52-inside-19_28_387" fill="white">
<path d="M190.126 26.7895C202.486 48.9391 234.358 89.1222 264.914 75.7377C250.648 74.7419 215.435 60.728 190.126 26.7895Z"/>
</mask>
<path d="M170.922 36.8798C165.127 26.3966 168.927 13.2007 179.411 7.4058C189.894 1.61094 203.09 5.41159 208.885 15.8948L189.903 26.3873L170.922 36.8798ZM209.066 16.2213C214.903 26.6812 211.155 39.8923 200.695 45.729C190.235 51.5657 177.024 47.8177 171.187 37.3578L190.126 26.7895L209.066 16.2213ZM189.903 26.3873L208.885 15.8948C208.944 16.0029 209.005 16.1117 209.066 16.2213L190.126 26.7895L171.187 37.3578C171.098 37.1978 171.009 37.0385 170.922 36.8798L189.903 26.3873ZM190.126 26.7895L152.247 47.9254L224.899 0.858527L190.126 26.7895ZM264.914 75.7377L267.934 32.466L282.318 115.47L264.914 75.7377ZM190.126 26.7895L228.006 5.65365C232.515 13.7343 240.474 24.5872 248.511 31.3039C252.421 34.5711 254.497 35.2906 254.477 35.2844C253.648 35.0373 250.643 34.6325 247.509 36.0054L264.914 75.7377L282.318 115.47C243.861 132.316 210.204 112.35 192.881 97.8739C174.254 82.3078 160.097 61.9943 152.247 47.9254L190.126 26.7895ZM264.914 75.7377L261.893 119.009C246.077 117.905 227.294 111.098 210.113 101.263C191.931 90.856 172.038 75.0939 155.354 52.7205L190.126 26.7895L224.899 0.858527C233.524 12.4235 243.892 20.6377 253.209 25.9708C263.528 31.8771 269.485 32.5742 267.934 32.466L264.914 75.7377Z" fill="#6A38F3" mask="url(#path-52-inside-19_28_387)"/>
<mask id="path-54-inside-20_28_387" fill="white">
<path d="M189.243 19.2461C191.348 35.9106 200.857 68.5032 222.481 67.93C214.131 63.7566 196.305 46.3714 189.243 19.2461Z"/>
</mask>
<path d="M167.678 21.5772C166.223 9.68761 174.683 -1.12987 186.572 -2.58429C198.462 -4.03872 209.279 4.42066 210.734 16.3103L189.206 18.9437L167.678 21.5772ZM210.761 16.5284C212.262 28.4122 203.845 39.2627 191.961 40.7636C180.077 42.2646 169.227 33.8476 167.726 21.9637L189.243 19.2461L210.761 16.5284ZM189.206 18.9437L210.734 16.3103C210.742 16.382 210.752 16.4547 210.761 16.5284L189.243 19.2461L167.726 21.9637C167.709 21.8347 167.693 21.7058 167.678 21.5772L189.206 18.9437ZM189.243 19.2461L146.208 24.681L231.221 8.31802L189.243 19.2461ZM222.481 67.93L241.874 29.1292L223.631 111.292L222.481 67.93ZM189.243 19.2461L232.278 13.8112C232.538 15.8641 233.099 18.8927 234.022 22.1526C234.961 25.4728 236.018 28.1201 236.933 29.8605C237.972 31.8356 237.949 30.9843 235.883 29.299C234.701 28.3342 232.771 27.0426 230.066 26.0354C227.275 24.9962 224.265 24.4904 221.332 24.5682L222.481 67.93L223.631 111.292C187.136 112.259 167.707 84.6096 160.151 70.2438C151.655 54.0899 147.68 36.3356 146.208 24.681L189.243 19.2461ZM222.481 67.93L203.089 106.731C191.099 100.738 179.811 90.0462 171.058 78.7215C161.585 66.4643 152.459 50.1236 147.265 30.1741L189.243 19.2461L231.221 8.31802C233.089 15.4939 236.407 21.4085 239.7 25.6686C241.335 27.7848 242.766 29.2322 243.657 30.0283C244.851 31.0952 244.341 30.3624 241.874 29.1292L222.481 67.93Z" fill="#6A38F3" mask="url(#path-54-inside-20_28_387)"/>
<mask id="path-56-inside-21_28_387" fill="white">
<path d="M178.16 776.656V732.934H147.865L90.3735 746.016C68.538 759.148 71.1422 769.933 77.2913 776.656H178.16Z"/>
</mask>
<path d="M178.16 732.934H296.586V614.508H178.16V732.934ZM178.16 776.656V895.082H296.586V776.656H178.16ZM77.2913 776.656L-10.095 856.583L25.1177 895.082H77.2913V776.656ZM90.3735 746.016L64.0978 630.542L45.5993 634.751L29.3413 644.528L90.3735 746.016ZM147.865 732.934V614.508H134.561L121.589 617.46L147.865 732.934ZM178.16 732.934H59.734V776.656H178.16H296.586V732.934H178.16ZM178.16 776.656V658.23H77.2913V776.656V895.082H178.16V776.656ZM77.2913 776.656L164.678 696.728C176.04 709.151 200.401 744.339 188.149 792.779C182.89 813.569 172.63 827.741 165.338 835.654C158.289 843.302 152.439 846.883 151.406 847.504L90.3735 746.016L29.3413 644.528C9.1276 656.684 -28.6366 683.954 -41.4722 734.699C-56.3442 793.496 -27.606 837.438 -10.095 856.583L77.2913 776.656ZM90.3735 746.016L116.649 861.491L174.141 848.409L147.865 732.934L121.589 617.46L64.0978 630.542L90.3735 746.016ZM147.865 732.934V851.361H178.16V732.934V614.508H147.865V732.934Z" fill="black" mask="url(#path-56-inside-21_28_387)"/>
<mask id="path-58-inside-22_28_387" fill="white">
<path d="M213.275 777V733.279H243.57L301.062 746.361C322.897 759.492 320.293 770.277 314.144 777H213.275Z"/>
</mask>
<path d="M213.275 733.279H94.8488V614.853H213.275V733.279ZM213.275 777V895.426H94.8488V777H213.275ZM314.144 777L401.53 856.927L366.317 895.426H314.144V777ZM301.062 746.361L327.337 630.886L345.836 635.096L362.094 644.873L301.062 746.361ZM243.57 733.279V614.853H256.874L269.846 617.804L243.57 733.279ZM213.275 733.279H331.701V777H213.275H94.8488V733.279H213.275ZM213.275 777V658.574H314.144V777V895.426H213.275V777ZM314.144 777L226.757 697.073C215.395 709.495 191.034 744.683 203.287 793.124C208.545 813.914 218.805 828.085 226.097 835.998C233.146 843.646 238.996 847.227 240.029 847.849L301.062 746.361L362.094 644.873C382.307 657.029 420.072 684.298 432.907 735.043C447.779 793.84 419.041 837.782 401.53 856.927L314.144 777ZM301.062 746.361L274.786 861.835L217.294 848.753L243.57 733.279L269.846 617.804L327.337 630.886L301.062 746.361ZM243.57 733.279V851.705H213.275V733.279V614.853H243.57V733.279Z" fill="black" mask="url(#path-58-inside-22_28_387)"/>
<mask id="path-60-inside-23_28_387" fill="white">
<path d="M210.865 10.7617C200.958 8.39259 193.707 16.2685 192.619 17.3027C193.078 15.4666 196.114 10.9212 200.882 8.69615C206.046 6.28636 208.455 8.12236 210.865 10.7617Z"/>
</mask>
<path d="M192.619 17.3027L172.58 12.2929L155.343 81.2413L206.851 32.2729L192.619 17.3027ZM210.865 10.7617L206.061 30.8511L271.455 46.4882L226.119 -3.16582L210.865 10.7617ZM200.882 8.69615L209.617 27.4141L209.617 27.4141L200.882 8.69615ZM192.619 17.3027L206.851 32.2729C207.015 32.1178 207.154 31.981 207.222 31.9141C207.292 31.8453 207.377 31.761 207.413 31.7252C207.511 31.6286 207.573 31.5679 207.635 31.5085C207.751 31.3969 207.862 31.2938 207.982 31.1915C208.247 30.9636 208.468 30.812 208.602 30.7363C208.737 30.66 208.557 30.7889 208.07 30.8871C207.813 30.939 207.487 30.9782 207.113 30.9752C206.733 30.9721 206.374 30.9258 206.061 30.8511L210.865 10.7617L215.669 -9.32765C193.133 -14.7165 177.563 3.11653 178.387 2.33248L192.619 17.3027ZM192.619 17.3027L212.658 22.3124C212.339 23.591 211.96 24.4986 211.764 24.9361C211.541 25.4336 211.348 25.7812 211.231 25.9802C211.002 26.3688 210.851 26.5494 210.803 26.6046C210.781 26.631 210.482 27.01 209.617 27.4141L200.882 8.69615L192.147 -10.0218C186.513 -7.39265 182.313 -3.62844 179.466 -0.314021C177.091 2.45047 173.923 6.9226 172.58 12.2929L192.619 17.3027ZM200.882 8.69615L209.617 27.4141C209.257 27.5818 205.649 29.0948 200.704 27.538C196.627 26.2546 194.674 23.6628 195.611 24.6892L210.865 10.7617L226.119 -3.16582C224.647 -4.77876 220.284 -9.60821 213.109 -11.867C205.065 -14.3992 197.67 -12.5993 192.147 -10.0218L200.882 8.69615Z" fill="#6A38F3" mask="url(#path-60-inside-23_28_387)"/>
<mask id="path-62-inside-24_28_387" fill="white">
<path d="M184.522 2.40397C193.549 7.1247 193.844 17.8258 193.985 19.3201C194.844 17.6341 195.541 12.213 193.407 7.40355C191.096 2.19476 188.073 1.99648 184.522 2.40397Z"/>
</mask>
<path d="M193.985 19.3201L212.386 28.7038L180.099 92.0171L173.42 21.2612L193.985 19.3201ZM184.522 2.40397L174.95 20.7079L115.368 -10.4509L182.167 -18.1171L184.522 2.40397ZM193.407 7.40355L174.526 15.7812L174.526 15.7812L193.407 7.40355ZM193.985 19.3201L173.42 21.2612C173.399 21.0371 173.384 20.8423 173.377 20.7472C173.369 20.6495 173.36 20.5299 173.356 20.4791C173.346 20.342 173.339 20.2556 173.332 20.1703C173.318 20.0101 173.301 19.859 173.278 19.7035C173.228 19.357 173.161 19.0979 173.11 18.9528C173.058 18.8068 173.109 19.0218 173.412 19.416C173.572 19.6239 173.791 19.8674 174.075 20.1108C174.364 20.3579 174.665 20.559 174.95 20.7079L184.522 2.40397L194.094 -15.8999C214.627 -5.16213 214.656 18.5119 214.549 17.379L193.985 19.3201ZM193.985 19.3201L175.583 9.93635C174.985 11.1105 174.675 12.0438 174.535 12.5024C174.376 13.0238 174.293 13.4126 174.251 13.6397C174.168 14.0831 174.164 14.3186 174.163 14.3914C174.163 14.4262 174.139 14.9078 174.526 15.7812L193.407 7.40355L212.287 -0.974108C214.809 4.70875 215.504 10.3056 215.474 14.6749C215.449 18.3192 214.901 23.7724 212.386 28.7038L193.985 19.3201ZM193.407 7.40355L174.526 15.7812C174.687 16.1437 176.414 19.6545 181.166 21.7285C185.083 23.4383 188.258 22.7665 186.877 22.925L184.522 2.40397L182.167 -18.1171C184.337 -18.3661 190.799 -19.1424 197.693 -16.1332C205.421 -12.7597 209.815 -6.54541 212.287 -0.974107L193.407 7.40355Z" fill="#6A38F3" mask="url(#path-62-inside-24_28_387)"/>
<mask id="path-64-inside-25_28_387" fill="white">
<path d="M282.999 161.115C284.812 157.875 284.812 93.9835 279.373 77.1147L288.324 88.8196C288.174 111.403 284.925 157.672 282.999 161.115Z"/>
</mask>
<path d="M279.373 77.1147L222.361 95.4952L326.957 40.7275L279.373 77.1147ZM288.324 88.8196L335.908 52.4324L348.361 68.718L348.224 89.2192L288.324 88.8196ZM279.373 77.1147L336.385 58.7342C340.044 70.0811 341.436 83.3716 342.163 91.6766C343.043 101.733 343.543 112.731 343.789 122.757C344.036 132.821 344.044 142.648 343.844 150.512C343.747 154.351 343.586 158.346 343.307 161.921C343.175 163.615 342.952 166.086 342.546 168.775C342.347 170.087 341.983 172.283 341.346 174.884C340.994 176.321 339.423 182.948 335.275 190.363L282.999 161.115L230.723 131.867C228.395 136.027 227.077 139.576 226.431 141.456C225.713 143.548 225.253 145.278 224.981 146.389C224.45 148.557 224.188 150.208 224.088 150.87C223.878 152.259 223.835 153.009 223.866 152.613C223.913 152.007 224.007 150.347 224.08 147.478C224.22 141.924 224.228 134.116 224.022 125.694C223.814 117.234 223.408 108.893 222.816 102.125C222.519 98.7355 222.216 96.2095 221.957 94.5226C221.627 92.3759 221.606 93.1517 222.361 95.4952L279.373 77.1147ZM282.999 161.115L230.723 131.867C228.118 136.522 226.785 140.43 226.317 141.841C225.711 143.674 225.344 145.109 225.167 145.84C224.971 146.647 224.849 147.245 224.79 147.544C224.727 147.865 224.695 148.057 224.69 148.087C224.684 148.126 224.725 147.876 224.807 147.258C224.885 146.666 224.981 145.883 225.091 144.895C225.548 140.798 226.075 134.838 226.582 127.825C227.608 113.637 228.361 97.8693 228.424 88.4199L288.324 88.8196L348.224 89.2192C348.137 102.354 347.19 121.012 346.073 136.465C345.508 144.272 344.852 151.936 344.154 158.189C343.815 161.226 343.391 164.621 342.859 167.805C342.603 169.344 342.194 171.611 341.583 174.127C341.414 174.822 339.765 182.336 335.275 190.363L282.999 161.115ZM288.324 88.8196L240.741 125.207L231.79 113.502L279.373 77.1147L326.957 40.7275L335.908 52.4324L288.324 88.8196Z" fill="#6A38F3" mask="url(#path-64-inside-25_28_387)"/>
<circle cx="295.106" cy="113.951" r="5.16393" fill="white"/>
<circle cx="91.9918" cy="112.574" r="5.16393" fill="white"/>
<mask id="path-68-inside-26_28_387" fill="white">
<path d="M106.554 163.524C101.046 160.284 101.046 96.3933 117.57 79.5244L90.3735 91.2294C90.8314 113.813 100.701 160.082 106.554 163.524Z"/>
</mask>
<path d="M117.57 79.5244L160.361 121.442L93.8898 24.5023L117.57 79.5244ZM90.3735 91.2294L66.6931 36.2072L29.6672 52.1424L30.4842 92.4435L90.3735 91.2294ZM117.57 79.5244L74.779 37.6065C59.4481 53.2568 53.125 72.9697 50.2143 83.9123C46.7422 96.9657 44.9325 110.522 44.0637 122.185C43.1902 133.911 43.1171 145.795 43.9027 156.002C44.277 160.865 44.9744 167.128 46.4781 173.478C47.1981 176.519 48.5622 181.591 51.1529 187.232C52.7417 190.692 59.4698 205.325 76.1825 215.156L106.554 163.524L136.925 111.893C145.75 117.084 151.205 123.382 154.112 127.288C157.146 131.365 158.997 134.997 160.024 137.233C162.017 141.574 162.833 144.924 163.058 145.875C163.572 148.045 163.495 148.653 163.353 146.808C163.105 143.596 163.032 137.846 163.536 131.085C164.044 124.262 164.988 118.48 165.992 114.708C166.481 112.867 166.729 112.489 166.414 113.163C166.224 113.571 164.576 117.14 160.361 121.442L117.57 79.5244ZM106.554 163.524L136.925 111.893C142.11 114.943 145.84 118.225 148.224 120.596C150.668 123.025 152.439 125.237 153.603 126.814C155.847 129.853 157.136 132.304 157.624 133.267C158.608 135.208 158.789 136.009 158.347 134.708C157.567 132.409 156.318 127.94 154.947 121.7C153.628 115.698 152.436 109.151 151.571 103.097C150.666 96.763 150.309 92.2824 150.263 90.0153L90.3735 91.2294L30.4842 92.4435C30.8264 109.32 34.2938 130.838 37.9347 147.409C39.8198 155.99 42.1637 165.145 44.8948 173.196C46.2088 177.069 48.1246 182.226 50.7704 187.444C52.0894 190.046 54.1906 193.866 57.2222 197.972C59.7481 201.394 65.8189 209.059 76.1825 215.156L106.554 163.524ZM90.3735 91.2294L114.054 146.252L141.251 134.547L117.57 79.5244L93.8898 24.5023L66.6931 36.2072L90.3735 91.2294Z" fill="#6A38F3" mask="url(#path-68-inside-26_28_387)"/>
<mask id="path-70-inside-27_28_387" fill="white">
<path d="M84.5276 450.639L104.709 486.787L132.25 353.902L111.38 341.508L84.5276 450.639Z"/>
</mask>
<path d="M153.38 205.18L125.09 201.161L103.96 349.882L132.25 353.902L160.539 357.921L181.67 209.2L153.38 205.18ZM135.134 245.459L107.396 238.599L83.642 334.648L111.38 341.508L139.118 348.368L162.872 252.319L135.134 245.459ZM104.709 486.787L54.8109 514.645L129.551 648.517L160.667 498.384L104.709 486.787ZM84.5276 450.639L29.0353 436.985L23.657 458.843L34.6298 478.497L84.5276 450.639ZM111.38 341.508L140.56 292.372L74.3002 253.024L55.8877 327.854L111.38 341.508ZM132.25 353.902L188.208 365.499L196.481 325.581L161.429 304.765L132.25 353.902ZM104.709 486.787L154.606 458.929L134.425 422.781L84.5276 450.639L34.6298 478.497L54.8109 514.645L104.709 486.787ZM84.5276 450.639L140.02 464.293L166.872 355.162L111.38 341.508L55.8877 327.854L29.0353 436.985L84.5276 450.639ZM132.25 353.902L76.2913 342.304L48.7504 475.189L104.709 486.787L160.667 498.384L188.208 365.499L132.25 353.902ZM111.38 341.508L82.2004 390.645L103.07 403.038L132.25 353.902L161.429 304.765L140.56 292.372L111.38 341.508Z" fill="#DCE0D5" mask="url(#path-70-inside-27_28_387)"/>
<mask id="path-72-inside-28_28_387" fill="white">
<path d="M126.742 352.525L100.919 479.677C102.19 481.899 103.453 484.248 104.709 486.787L99.5449 486.443L79.2334 452.016L106.774 342.197L108.151 342.909L126.742 352.525Z"/>
</mask>
<path d="M100.919 479.677L115.426 482.623L116.535 477.161L113.767 472.324L100.919 479.677ZM81.9874 449.951L67.6075 446.436L66.1956 452.212L69.1718 457.36L81.9874 449.951ZM100.919 479.677L86.4117 476.731L85.0377 483.497L99.5449 486.443L114.052 489.389L115.426 482.623L100.919 479.677ZM100.919 479.677L113.767 472.324C110.436 466.504 107.068 461.516 103.954 456.889C100.794 452.196 97.8375 447.79 94.803 442.542L81.9874 449.951L69.1718 457.36C72.7739 463.591 76.258 468.764 79.3929 473.421C82.5727 478.145 85.3526 482.281 88.071 487.031L100.919 479.677ZM81.9874 449.951L96.3673 453.466L122.531 346.424L108.151 342.909L93.7714 339.394L67.6075 446.436L81.9874 449.951ZM126.742 352.525L155.756 358.417L160.207 336.501L140.343 326.228L126.742 352.525ZM100.919 479.677L71.9045 473.785L69.686 484.709L75.2231 494.384L100.919 479.677ZM99.5449 486.443L74.0457 501.487L81.9853 514.944L97.5754 515.984L99.5449 486.443ZM79.2334 452.016L50.5161 444.815L47.5611 456.598L53.7342 467.061L79.2334 452.016ZM106.774 342.197L120.376 315.9L87.155 298.717L78.057 334.995L106.774 342.197ZM104.709 486.787L102.739 516.328L154.042 519.748L131.247 473.661L104.709 486.787ZM108.151 342.909L121.753 316.612L121.753 316.612L108.151 342.909ZM126.742 352.525L97.7273 346.632L71.9045 473.785L100.919 479.677L129.933 485.57L155.756 358.417L126.742 352.525ZM99.5449 486.443L125.044 471.398L104.733 436.972L79.2334 452.016L53.7342 467.061L74.0457 501.487L99.5449 486.443ZM79.2334 452.016L107.951 459.218L135.492 349.399L106.774 342.197L78.057 334.995L50.5161 444.815L79.2334 452.016ZM99.5449 486.443L97.5754 515.984L102.739 516.328L104.709 486.787L106.678 457.246L101.514 456.902L99.5449 486.443ZM104.709 486.787L131.247 473.661C129.708 470.551 128.162 467.674 126.614 464.971L100.919 479.677L75.2231 494.384C76.2187 496.123 77.1977 497.945 78.171 499.913L104.709 486.787ZM106.774 342.197L93.1725 368.494L94.5495 369.206L108.151 342.909L121.753 316.612L120.376 315.9L106.774 342.197ZM108.151 342.909L94.5495 369.206L113.14 378.822L126.742 352.525L140.343 326.228L121.753 316.612L108.151 342.909Z" fill="#F1F6E4" mask="url(#path-72-inside-28_28_387)"/>
<rect width="21.6101" height="31.6654" transform="matrix(-0.990527 -0.137315 -0.137315 0.990527 141.983 359.477)" fill="#C6E700"/>
<mask id="path-75-inside-29_28_387" fill="white">
<path d="M162.027 368.358L139.282 365.205L140.541 359.277L161.998 362.252C170.616 365.714 165.894 367.805 162.027 368.358Z"/>
</mask>
<path d="M139.282 365.205L81.7479 352.984L68.6194 414.789L131.205 423.465L139.282 365.205ZM162.027 368.358L153.95 426.618L162.155 427.756L170.356 426.583L162.027 368.358ZM161.998 362.252L183.924 307.674L177.225 304.983L170.075 303.992L161.998 362.252ZM140.541 359.277L148.617 301.017L94.3835 293.499L83.007 347.056L140.541 359.277ZM139.282 365.205L131.205 423.465L153.95 426.618L162.027 368.358L170.103 310.098L147.358 306.945L139.282 365.205ZM162.027 368.358L170.356 426.583C174.268 426.023 179.853 424.913 185.995 422.549C188.722 421.499 206.637 415.007 217.736 395.623C224.856 383.189 227.932 367.35 223.84 351.151C220.205 336.766 212.252 327.362 207.257 322.49C198.038 313.495 187.865 309.257 183.924 307.674L161.998 362.252L140.073 416.83C139.473 416.589 137.845 415.909 135.654 414.669C133.689 413.556 129.581 411.053 125.108 406.688C120.822 402.507 113.271 393.75 109.789 379.968C105.848 364.372 108.826 349.09 115.653 337.168C121.591 326.799 129.212 320.938 133.254 318.23C137.645 315.288 141.495 313.629 143.737 312.766C148.175 311.058 151.72 310.416 153.698 310.133L162.027 368.358ZM161.998 362.252L170.075 303.992L148.617 301.017L140.541 359.277L132.464 417.537L153.922 420.512L161.998 362.252ZM140.541 359.277L83.007 347.056L81.7479 352.984L139.282 365.205L196.815 377.426L198.074 371.498L140.541 359.277Z" fill="#C6E700" mask="url(#path-75-inside-29_28_387)"/>
<mask id="path-77-inside-30_28_387" fill="white">
<path d="M162.731 377.609L138.036 374.186L139.332 368.263L162.629 371.493C172.012 375.061 166.917 377.1 162.731 377.609Z"/>
</mask>
<path d="M138.036 374.186L80.5785 361.614L66.9897 423.717L129.96 432.446L138.036 374.186ZM162.731 377.609L154.655 435.87L162.234 436.92L169.831 435.997L162.731 377.609ZM162.629 371.493L183.535 316.516L177.307 314.148L170.706 313.233L162.629 371.493ZM139.332 368.263L147.409 310.003L93.5064 302.531L81.8744 355.691L139.332 368.263ZM138.036 374.186L129.96 432.446L154.655 435.87L162.731 377.609L170.808 319.349L146.113 315.926L138.036 374.186ZM162.731 377.609L169.831 435.997C173.604 435.538 179.043 434.599 185.049 432.519C188.055 431.478 192.664 429.654 197.738 426.545C202.318 423.74 211.083 417.596 217.932 406.409C225.981 393.261 229.393 376.115 224.464 358.779C220.23 343.884 211.461 334.607 206.605 330.223C197.391 321.905 187.412 317.991 183.535 316.516L162.629 371.493L141.723 426.469C141.332 426.321 139.922 425.772 137.93 424.715C136.19 423.792 132.224 421.553 127.78 417.542C123.7 413.859 115.375 405.235 111.313 390.945C106.557 374.214 109.869 357.625 117.606 344.988C124.142 334.31 132.384 328.628 136.287 326.237C140.686 323.542 144.467 322.084 146.553 321.362C150.719 319.919 153.951 319.426 155.632 319.222L162.731 377.609ZM162.629 371.493L170.706 313.233L147.409 310.003L139.332 368.263L131.256 426.524L154.553 429.753L162.629 371.493ZM139.332 368.263L81.8744 355.691L80.5785 361.614L138.036 374.186L195.494 386.758L196.79 380.836L139.332 368.263Z" fill="#C6E700" mask="url(#path-77-inside-30_28_387)"/>
<mask id="path-79-inside-31_28_387" fill="white">
<path d="M159.514 385.554L136.119 382.311L137.391 376.385L159.462 379.445C168.335 382.942 163.488 385.016 159.514 385.554Z"/>
</mask>
<path d="M136.119 382.311L78.6108 369.973L65.3293 431.877L128.043 440.571L136.119 382.311ZM159.514 385.554L151.438 443.814L159.424 444.921L167.413 443.839L159.514 385.554ZM159.462 379.445L181.03 324.725L174.496 322.149L167.538 321.184L159.462 379.445ZM137.391 376.385L145.467 318.125L91.3443 310.622L79.8822 364.047L137.391 376.385ZM136.119 382.311L128.043 440.571L151.438 443.814L159.514 385.554L167.591 327.294L144.196 324.051L136.119 382.311ZM159.514 385.554L167.413 443.839C171.275 443.315 176.811 442.266 182.908 440.002C185.381 439.083 203.655 432.802 215.057 413.338C222.484 400.659 225.671 384.383 221.305 367.8C217.47 353.23 209.236 343.861 204.279 339.153C195.054 330.391 184.944 326.267 181.03 324.725L159.462 379.445L137.893 434.165C137.364 433.956 135.81 433.323 133.686 432.147C131.797 431.101 127.734 428.689 123.265 424.445C119.04 420.431 111.222 411.712 107.546 397.746C103.339 381.765 106.427 366.047 113.554 353.88C119.695 343.397 127.53 337.59 131.533 334.989C135.932 332.13 139.762 330.54 141.953 329.727C146.301 328.112 149.74 327.524 151.616 327.27L159.514 385.554ZM159.462 379.445L167.538 321.184L145.467 318.125L137.391 376.385L129.314 434.645L151.385 437.705L159.462 379.445ZM137.391 376.385L79.8822 364.047L78.6108 369.973L136.119 382.311L193.628 394.649L194.9 388.723L137.391 376.385Z" fill="#C6E700" mask="url(#path-79-inside-31_28_387)"/>
<mask id="path-81-inside-32_28_387" fill="white">
<path d="M155.124 393.336L134.978 390.543L136.188 384.609L155.194 387.244C162.792 390.564 158.566 392.724 155.124 393.336Z"/>
</mask>
<path d="M134.978 390.543L77.3469 378.792L64.8256 440.198L126.902 448.804L134.978 390.543ZM155.124 393.336L147.048 451.596L156.262 452.874L165.422 451.245L155.124 393.336ZM155.194 387.244L178.749 333.349L171.311 330.098L163.27 328.983L155.194 387.244ZM136.188 384.609L144.265 326.349L89.5862 318.769L78.557 372.857L136.188 384.609ZM134.978 390.543L126.902 448.804L147.048 451.596L155.124 393.336L163.201 335.076L143.055 332.283L134.978 390.543ZM155.124 393.336L165.422 451.245C169.569 450.508 175.362 449.105 181.662 446.288C185.407 444.614 201.67 437.296 211.473 418.459C217.401 407.069 220.047 392.983 216.979 378.377C214.145 364.885 207.393 355.433 202.354 349.901C193.258 339.917 182.872 335.151 178.749 333.349L155.194 387.244L131.639 441.138C131.315 440.997 123.25 437.746 115.391 429.119C110.971 424.266 104.566 415.454 101.857 402.561C98.915 388.554 101.465 375.026 107.125 364.152C116.391 346.347 131.428 339.891 133.649 338.898C138.426 336.762 142.4 335.859 144.826 335.427L155.124 393.336ZM155.194 387.244L163.27 328.983L144.265 326.349L136.188 384.609L128.112 442.869L147.117 445.504L155.194 387.244ZM136.188 384.609L78.557 372.857L77.3469 378.792L134.978 390.543L192.61 402.295L193.82 396.36L136.188 384.609Z" fill="#C6E700" mask="url(#path-81-inside-32_28_387)"/>
<mask id="path-83-inside-33_28_387" fill="white">
<path d="M162.399 366.379L162.769 363.716C163.362 363.911 164.639 364.515 165.001 365.369C165.363 366.222 163.417 366.398 162.399 366.379Z"/>
</mask>
<path d="M162.769 363.716L117.074 357.382L124.668 302.601L177.198 319.9L162.769 363.716ZM162.399 366.379L161.554 412.503L109.565 411.55L116.705 360.045L162.399 366.379ZM165.001 365.369L207.465 347.344L165.001 365.369ZM162.769 363.716L208.463 370.05L208.093 372.714L162.399 366.379L116.705 360.045L117.074 357.382L162.769 363.716ZM162.399 366.379L163.244 320.256C161.882 320.231 157.85 320.186 152.568 321.565C150.875 322.007 141.999 324.23 133.579 332.012C128.652 336.565 122.734 344.126 120.151 355.001C117.505 366.146 119.461 376.147 122.537 383.393L165.001 365.369L207.465 347.344C210.631 354.804 212.605 364.997 209.918 376.315C207.295 387.363 201.276 395.077 196.201 399.767C187.487 407.821 178.129 410.247 175.867 410.837C169.448 412.512 163.935 412.546 161.554 412.503L162.399 366.379ZM165.001 365.369L122.537 383.393C125.416 390.177 129.336 394.774 131.984 397.419C134.717 400.148 137.281 401.978 139.019 403.096C142.276 405.19 145.429 406.574 148.339 407.532L162.769 363.716L177.198 319.9C180.701 321.053 184.789 322.837 188.923 325.495C191.874 327.393 201.812 334.026 207.465 347.344L165.001 365.369Z" fill="#6A38F3" mask="url(#path-83-inside-33_28_387)"/>
<mask id="path-85-inside-34_28_387" fill="white">
<path d="M163.867 376.084L164.236 373.42C164.829 373.616 166.106 374.22 166.469 375.073C166.831 375.926 164.885 376.102 163.867 376.084Z"/>
</mask>
<path d="M164.236 373.42L118.542 367.086L126.136 312.306L178.665 329.604L164.236 373.42ZM163.867 376.084L163.022 422.207L111.033 421.255L118.173 369.749L163.867 376.084ZM166.469 375.073L208.933 357.049L166.469 375.073ZM164.236 373.42L209.93 379.755L209.561 382.418L163.867 376.084L118.173 369.749L118.542 367.086L164.236 373.42ZM163.867 376.084L164.712 329.96C163.35 329.935 159.318 329.891 154.036 331.269C152.342 331.711 143.466 333.934 135.047 341.716C130.12 346.27 124.201 353.83 121.619 364.705C118.973 375.85 120.929 385.851 124.004 393.097L166.469 375.073L208.933 357.049C212.099 364.508 214.073 374.701 211.386 386.019C208.763 397.067 202.743 404.781 197.669 409.471C188.955 417.525 179.597 419.951 177.335 420.541C170.916 422.216 165.402 422.251 163.022 422.207L163.867 376.084ZM166.469 375.073L124.004 393.097C126.884 399.882 130.803 404.478 133.452 407.123C136.185 409.852 138.749 411.682 140.487 412.8C143.744 414.895 146.897 416.278 149.807 417.237L164.236 373.42L178.665 329.604C182.169 330.758 186.257 332.541 190.391 335.199C193.342 337.097 203.279 343.73 208.933 357.049L166.469 375.073Z" fill="#6A38F3" mask="url(#path-85-inside-34_28_387)"/>
<mask id="path-87-inside-35_28_387" fill="white">
<path d="M160.69 383.787L161.059 381.123C161.652 381.319 162.929 381.923 163.291 382.776C163.653 383.629 161.708 383.805 160.69 383.787Z"/>
</mask>
<path d="M161.059 381.123L115.365 374.789L122.959 320.009L175.488 337.307L161.059 381.123ZM160.69 383.787L159.845 429.91L107.855 428.958L114.995 377.452L160.69 383.787ZM163.291 382.776L205.755 364.752L163.291 382.776ZM161.059 381.123L206.753 387.458L206.384 390.121L160.69 383.787L114.995 377.452L115.365 374.789L161.059 381.123ZM160.69 383.787L161.535 337.663C160.172 337.638 156.141 337.594 150.859 338.972C149.165 339.414 140.289 341.637 131.869 349.419C126.942 353.973 121.024 361.533 118.442 372.408C115.795 383.553 117.751 393.554 120.827 400.8L163.291 382.776L205.755 364.752C208.921 372.211 210.896 382.404 208.208 393.722C205.585 404.77 199.566 412.484 194.492 417.174C185.778 425.228 176.419 427.654 174.157 428.244C167.739 429.919 162.225 429.954 159.845 429.91L160.69 383.787ZM163.291 382.776L120.827 400.8C123.707 407.585 127.626 412.181 130.275 414.826C133.007 417.555 135.571 419.385 137.31 420.503C140.566 422.598 143.719 423.981 146.63 424.94L161.059 381.123L175.488 337.307C178.992 338.461 183.079 340.244 187.213 342.902C190.165 344.8 200.102 351.433 205.755 364.752L163.291 382.776Z" fill="#6A38F3" mask="url(#path-87-inside-35_28_387)"/>
<mask id="path-89-inside-36_28_387" fill="white">
<path d="M155.349 391.869L155.719 389.205C156.312 389.401 157.589 390.005 157.951 390.858C158.313 391.711 156.368 391.887 155.349 391.869Z"/>
</mask>
<path d="M155.719 389.205L110.025 382.871L117.619 328.091L170.148 345.389L155.719 389.205ZM155.349 391.869L154.504 437.992L102.515 437.04L109.655 385.534L155.349 391.869ZM157.951 390.858L200.415 372.834L157.951 390.858ZM155.719 389.205L201.413 395.54L201.044 398.203L155.349 391.869L109.655 385.534L110.025 382.871L155.719 389.205ZM155.349 391.869L156.194 345.745C154.832 345.72 150.8 345.676 145.518 347.054C143.825 347.496 134.949 349.719 126.529 357.501C121.602 362.055 115.684 369.615 113.102 380.49C110.455 391.635 112.411 401.636 115.487 408.882L157.951 390.858L200.415 372.834C203.581 380.293 205.555 390.486 202.868 401.804C200.245 412.852 194.226 420.566 189.152 425.256C180.437 433.31 171.079 435.736 168.817 436.326C162.398 438.001 156.885 438.036 154.504 437.992L155.349 391.869ZM157.951 390.858L115.487 408.882C118.367 415.667 122.286 420.263 124.935 422.908C127.667 425.637 130.231 427.468 131.97 428.585C135.226 430.68 138.379 432.063 141.29 433.022L155.719 389.205L170.148 345.389C173.652 346.543 177.739 348.326 181.873 350.984C184.825 352.882 194.762 359.515 200.415 372.834L157.951 390.858Z" fill="#6A38F3" mask="url(#path-89-inside-36_28_387)"/>
<path d="M131.023 354.789L159.253 204.69M134.81 246.346L112.089 344.805" stroke="#F1F6E4" stroke-width="2.06557"/>
<mask id="path-92-inside-37_28_387" fill="white">
<path d="M37.7284 288.346C35.2819 262.19 124.711 214.034 160.63 204.002L143.955 244.082C126.074 258.404 81.751 288.094 72.2451 289.237C79.6027 296.543 107.469 335.079 120.695 356.51L116.22 387.838C91.8274 371.887 39.8526 311.057 37.7284 288.346Z"/>
</mask>
<path d="M72.2451 289.237L75.738 318.29L135.764 311.073L92.864 268.473L72.2451 289.237ZM70.4333 288.346L99.6629 286.964L99.6629 286.964L70.4333 288.346ZM72.2451 289.237L68.7522 260.184C70.0072 260.033 76.2608 259.269 83.4674 262.687C87.6318 264.663 92.0014 268.007 95.2402 273.083C98.4144 278.058 99.4797 283.089 99.6629 286.964L70.4333 288.346L41.2037 289.728C41.4048 293.981 42.5633 299.329 45.903 304.563C49.3071 309.898 53.9142 313.444 58.3849 315.564C66.2043 319.274 73.3459 318.577 75.738 318.29L72.2451 289.237ZM70.4333 288.346L99.6629 286.964C99.7139 288.042 100.752 305.26 84.1004 313.971C76.5434 317.924 69.4584 317.525 65.6101 316.848C61.7699 316.173 58.9615 314.871 57.6008 314.178C54.8736 312.788 53.1073 311.308 52.7206 310.985C52.079 310.45 51.6905 310.064 51.6263 310.001L72.2451 289.237L92.864 268.473C92.445 268.057 89.0562 264.52 84.1624 262.028C82.6476 261.256 79.7042 259.904 75.7486 259.209C71.785 258.511 64.6043 258.121 56.9718 262.114C40.1688 270.904 41.1372 288.322 41.2037 289.728L70.4333 288.346ZM160.63 204.002L214.664 226.483L260.958 115.214L144.886 147.635L160.63 204.002ZM37.7284 288.346L-20.5418 293.796L37.7284 288.346ZM116.22 387.838L84.19 436.819L161.152 487.146L174.156 396.114L116.22 387.838ZM143.955 244.082L180.542 289.76L192.235 280.394L197.989 266.563L143.955 244.082ZM72.2451 289.237L65.2595 231.13L-54.7932 245.563L31.0074 330.765L72.2451 289.237ZM120.695 356.51L178.632 364.786L181.629 343.807L170.499 325.773L120.695 356.51ZM160.63 204.002L144.886 147.635C119.725 154.663 83.1469 172.17 53.8092 190.477C38.8796 199.793 22.9103 211.1 10.0844 223.55C3.71309 229.735 -3.61012 237.85 -9.4797 247.729C-15.0491 257.102 -22.4524 273.369 -20.5418 293.796L37.7284 288.346L95.9986 282.896C97.2976 296.783 92.1538 305.824 91.1471 307.518C89.8402 309.718 89.3829 309.701 91.6128 307.536C95.9893 303.288 104.163 297.024 115.775 289.778C139.52 274.961 165.616 263.374 176.374 260.369L160.63 204.002ZM37.7284 288.346L-20.5418 293.796C-18.6527 313.993 -8.33538 332.102 -2.5681 341.601C4.79306 353.726 13.979 366.199 23.2303 377.567C40.4633 398.743 64.1794 423.734 84.19 436.819L116.22 387.838L148.25 338.856C148.25 338.856 147.869 338.604 147.082 337.997C146.315 337.405 145.319 336.598 144.097 335.547C141.629 333.424 138.641 330.654 135.259 327.286C128.466 320.522 120.976 312.239 114.017 303.687C106.96 295.015 101.229 287.024 97.4854 280.858C95.6112 277.771 94.7175 275.929 94.4303 275.264C93.8785 273.988 95.4468 276.996 95.9986 282.896L37.7284 288.346ZM143.955 244.082L107.367 198.404C100.498 203.906 86.7189 213.724 73.2362 222.421C66.5831 226.712 60.8724 230.166 56.7852 232.409C55.8153 232.941 55.0517 233.342 54.4836 233.629C53.8959 233.926 53.6669 234.025 53.7469 233.99C53.7579 233.985 54.5428 233.634 55.9133 233.177C56.9421 232.834 60.3756 231.718 65.2595 231.13L72.2451 289.237L79.2308 347.343C89.6324 346.092 98.1323 342.339 100.898 341.122C105.206 339.226 109.426 337.037 113.106 335.017C120.562 330.925 128.831 325.847 136.682 320.783C152.208 310.768 169.53 298.58 180.542 289.76L143.955 244.082ZM72.2451 289.237L31.0074 330.765C29.7545 329.52 30.6889 330.359 34.7924 335.656C38.1247 339.958 42.2991 345.567 46.8034 351.812C55.9653 364.515 65.3282 378.231 70.8921 387.247L120.695 356.51L170.499 325.773C162.837 313.358 151.653 297.091 141.736 283.341C133.148 271.435 121.317 255.488 113.483 247.709L72.2451 289.237ZM116.22 387.838L174.156 396.114L178.632 364.786L120.695 356.51L62.7591 348.233L58.2837 379.561L116.22 387.838ZM160.63 204.002L106.595 181.521L89.9201 221.601L143.955 244.082L197.989 266.563L214.664 226.483L160.63 204.002Z" fill="#C6E700" mask="url(#path-92-inside-37_28_387)"/>
<path d="M129.991 247.556L135.251 244.28L138.941 244.28L131.368 250.133L129.991 247.556Z" fill="#C6E700"/>
<path d="M522.299 457.524V513.268L520.047 514.02H359.077V458.275L361.329 457.524H522.299Z" stroke="#C6E700" stroke-width="99.8347"/>
<path d="M309.16 422.311H510.016H528.158M309.16 422.311L308.512 563.937H528.158M309.16 422.311L353.218 407.607H572.216M528.158 563.937V422.311M528.158 563.937L572.216 549.233V407.607M528.158 422.311L572.216 407.607" stroke="#6A38F3" stroke-width="0.773913"/>
<mask id="path-97-inside-38_28_387" fill="white">
<path d="M532.971 556.215V534.264L551.217 529.475V550.131L532.971 556.215Z"/>
</mask>
<path d="M532.971 534.264L516.271 470.637L467.188 483.52V534.264H532.971ZM532.971 556.215H467.188V647.495L553.78 618.62L532.971 556.215ZM551.217 550.131L572.026 612.536L616.999 597.539V550.131H551.217ZM551.217 529.475H616.999V444.199L534.516 465.848L551.217 529.475ZM532.971 534.264H467.188V556.215H532.971H598.753V534.264H532.971ZM532.971 556.215L553.78 618.62L572.026 612.536L551.217 550.131L530.407 487.727L512.161 493.811L532.971 556.215ZM551.217 550.131H616.999V529.475H551.217H485.434V550.131H551.217ZM551.217 529.475L534.516 465.848L516.271 470.637L532.971 534.264L549.671 597.892L567.917 593.103L551.217 529.475Z" fill="#F6F3E4" mask="url(#path-97-inside-38_28_387)"/>
<mask id="path-99-inside-39_28_387" fill="white">
<path d="M542.041 543.421L533.659 545.983L537.85 539.019L542.041 543.421Z"/>
</mask>
<path d="M542.041 543.421L533.659 545.983L537.85 539.019L542.041 543.421Z" fill="#6A38F3"/>
<path d="M533.659 545.983L494.857 526.558L433.999 627.691L533.659 597.221V545.983ZM542.041 543.421V594.659L641.701 564.19L580.843 500.269L542.041 543.421ZM537.85 539.019L576.653 495.867L537.85 455.111L499.047 519.593L537.85 539.019ZM533.659 545.983V597.221L542.041 594.659V543.421V492.182L533.659 494.745V545.983ZM542.041 543.421L580.843 500.269L576.653 495.867L537.85 539.019L499.047 582.171L503.238 586.572L542.041 543.421ZM537.85 539.019L499.047 519.593L494.857 526.558L533.659 545.983L572.462 565.409L576.653 558.444L537.85 539.019Z" fill="#6A38F3" mask="url(#path-99-inside-39_28_387)"/>
<rect width="3.37094" height="5.68293" transform="matrix(0.956305 -0.292372 0 1 536.238 545.195)" fill="#6A38F3"/>
<mask id="path-102-inside-40_28_387" fill="white">
<path d="M550.991 540.667L542.61 543.229L546.801 536.265L550.991 540.667Z"/>
</mask>
<path d="M550.991 540.667L542.61 543.229L546.801 536.265L550.991 540.667Z" fill="white"/>
<path d="M542.61 543.229L503.807 523.804L442.95 624.936L542.61 594.467V543.229ZM550.991 540.667V591.905L650.651 561.436L589.794 497.515L550.991 540.667ZM546.801 536.265L585.603 493.113L546.801 452.357L507.998 516.839L546.801 536.265ZM542.61 543.229V594.467L550.991 591.905V540.667V489.428L542.61 491.991V543.229ZM550.991 540.667L589.794 497.515L585.603 493.113L546.801 536.265L507.998 579.417L512.189 583.818L550.991 540.667ZM546.801 536.265L507.998 516.839L503.807 523.804L542.61 543.229L581.413 562.655L585.603 555.69L546.801 536.265Z" fill="white" mask="url(#path-102-inside-40_28_387)"/>
<rect x="0.322364" y="0.238537" width="2.69675" height="5.00874" transform="matrix(0.956305 -0.292372 0 1 545.203 542.535)" fill="white" stroke="white" stroke-width="0.674188"/>
<mask id="path-105-inside-41_28_387" fill="white">
<path d="M401.462 266.459H332.847L319.042 281.164V422.79H387.658L401.462 408.085V266.459Z"/>
</mask>
<path d="M332.847 266.459V166.624H289.636L260.061 198.128L332.847 266.459ZM401.462 266.459H501.297V166.624H401.462V266.459ZM401.462 408.085L474.249 476.416L501.297 447.604V408.085H401.462ZM387.658 422.79V522.624H430.869L460.444 491.121L387.658 422.79ZM319.042 281.164L246.256 212.832L219.208 241.645V281.164H319.042ZM319.042 422.79H219.208V522.624H319.042V422.79ZM332.847 266.459V366.294H401.462V266.459V166.624H332.847V266.459ZM401.462 266.459H301.628V408.085H401.462H501.297V266.459H401.462ZM401.462 408.085L328.676 339.754L314.872 354.458L387.658 422.79L460.444 491.121L474.249 476.416L401.462 408.085ZM332.847 266.459L260.061 198.128L246.256 212.832L319.042 281.164L391.829 349.495L405.633 334.79L332.847 266.459ZM319.042 281.164H219.208V422.79H319.042H418.877V281.164H319.042ZM319.042 422.79V522.624H387.658V422.79V322.955H319.042V422.79Z" fill="black" mask="url(#path-105-inside-41_28_387)"/>
<path d="M319.042 281.164H381.974H387.658M319.042 281.164L318.839 422.79H387.658M319.042 281.164L332.847 266.459H401.462M387.658 422.79V281.164M387.658 422.79L401.462 408.085V266.459M387.658 281.164L401.462 266.459" stroke="#6A38F3"/>
<mask id="path-108-inside-42_28_387" fill="white">
<path d="M390.5 411.955V390.004L399.432 381.772V402.902L390.5 411.955Z"/>
</mask>
<path d="M390.5 390.004L345.92 341.63L324.717 361.17V390.004H390.5ZM390.5 411.955H324.717V572.282L437.325 458.158L390.5 411.955ZM399.432 402.902L446.257 449.106L465.215 429.893V402.902H399.432ZM399.432 381.772H465.215V231.692L354.853 333.399L399.432 381.772ZM390.5 390.004H324.717V411.955H390.5H456.283V390.004H390.5ZM390.5 411.955L437.325 458.158L446.257 449.106L399.432 402.902L352.607 356.699L343.675 365.751L390.5 411.955ZM399.432 402.902H465.215V381.772H399.432H333.65V402.902H399.432ZM399.432 381.772L354.853 333.399L345.92 341.63L390.5 390.004L435.08 438.378L444.012 430.146L399.432 381.772Z" fill="#F6F3E4" mask="url(#path-108-inside-42_28_387)"/>
<path d="M377.02 395.901V407.606H373.232V395.901H377.02Z" stroke="#F1F6E4" stroke-width="11.0164"/>
<mask id="path-111-inside-43_28_387" fill="white">
<path d="M371.167 409.897C371.167 409.278 378.741 409.279 378.741 409.897C378.741 410.515 371.167 410.515 371.167 409.897Z"/>
</mask>
<path d="M371.167 409.897H372.545C372.545 410.622 372.002 410.944 371.969 410.964C371.865 411.027 371.805 411.037 371.864 411.02C371.961 410.993 372.168 410.954 372.5 410.918C373.143 410.848 374.036 410.81 374.954 410.81C375.873 410.81 376.766 410.848 377.409 410.918C377.741 410.954 377.948 410.993 378.045 411.02C378.104 411.037 378.044 411.028 377.939 410.964C377.907 410.944 377.364 410.623 377.364 409.897H378.741H380.118C380.118 409.094 379.517 408.7 379.373 408.613C379.158 408.481 378.935 408.41 378.787 408.368C378.47 408.279 378.085 408.221 377.707 408.18C376.93 408.096 375.929 408.056 374.954 408.056C373.98 408.056 372.979 408.096 372.202 408.18C371.824 408.221 371.439 408.279 371.122 408.368C370.974 408.409 370.751 408.481 370.536 408.612C370.392 408.7 369.79 409.094 369.79 409.897H371.167ZM371.167 409.897H369.79C369.79 410.7 370.392 411.094 370.536 411.181C370.751 411.313 370.974 411.384 371.122 411.426C371.439 411.515 371.824 411.573 372.202 411.614C372.979 411.698 373.979 411.738 374.954 411.738C375.929 411.738 376.93 411.698 377.707 411.614C378.085 411.573 378.47 411.515 378.787 411.426C378.935 411.385 379.158 411.313 379.373 411.182C379.517 411.094 380.118 410.7 380.118 409.897H378.741H377.364C377.364 409.171 377.907 408.85 377.939 408.83C378.044 408.766 378.104 408.757 378.045 408.774C377.948 408.801 377.741 408.84 377.409 408.876C376.766 408.946 375.873 408.984 374.954 408.984C374.036 408.984 373.143 408.946 372.5 408.876C372.168 408.84 371.961 408.801 371.864 408.774C371.805 408.757 371.865 408.766 371.969 408.83C372.002 408.85 372.545 409.171 372.545 409.897H371.167Z" fill="black" mask="url(#path-111-inside-43_28_387)"/>
<path d="M376.468 397.279C376.372 397.769 376.242 398.258 376.067 398.695C375.604 399.849 375.177 399.949 374.955 399.949C374.732 399.949 374.305 399.85 373.842 398.695C373.667 398.258 373.536 397.769 373.44 397.279H376.468Z" stroke="black" stroke-width="4.13114"/>
<path d="M374.955 401.396V409.433" stroke="black" stroke-width="0.344262"/>
<mask id="path-115-inside-44_28_387" fill="white">
<path d="M374.954 396.246V394.869H375.643V396.246L376.675 396.935L374.954 398.312L375.643 396.935L374.954 396.246Z"/>
</mask>
<path d="M374.954 394.869V393.492H373.577V394.869H374.954ZM374.954 396.246H373.577V396.816L373.98 397.22L374.954 396.246ZM375.643 396.935L376.874 397.55L377.318 396.663L376.616 395.961L375.643 396.935ZM374.954 398.312L373.722 397.696L375.814 399.387L374.954 398.312ZM376.675 396.935L377.536 398.01L379.006 396.833L377.439 395.789L376.675 396.935ZM375.643 396.246H374.266V396.983L374.879 397.392L375.643 396.246ZM375.643 394.869H377.02V393.492H375.643V394.869ZM374.954 394.869H373.577V396.246H374.954H376.331V394.869H374.954ZM374.954 396.246L373.98 397.22L374.669 397.908L375.643 396.935L376.616 395.961L375.928 395.272L374.954 396.246ZM375.643 396.935L374.411 396.319L373.722 397.696L374.954 398.312L376.186 398.927L376.874 397.55L375.643 396.935ZM374.954 398.312L375.814 399.387L377.536 398.01L376.675 396.935L375.815 395.859L374.094 397.236L374.954 398.312ZM376.675 396.935L377.439 395.789L376.406 395.1L375.643 396.246L374.879 397.392L375.912 398.08L376.675 396.935ZM375.643 396.246H377.02V394.869H375.643H374.266V396.246H375.643ZM375.643 394.869V393.492H374.954V394.869V396.246H375.643V394.869Z" fill="#F1F6E4" mask="url(#path-115-inside-44_28_387)"/>
<path d="M500.773 314.999V371.495H443.504V314.999H500.773Z" stroke="#6A38F3" stroke-width="99.8347"/>
<path d="M393.587 279.787H513.544H524.378M393.587 279.787L393.2 421.413H524.378M393.587 279.787L419.9 265.082H550.691M524.378 421.413V279.787M524.378 421.413L550.691 406.708V265.082M524.378 279.787L550.691 265.082" stroke="#C6E700" stroke-width="0.773913"/>
<mask id="path-119-inside-45_28_387" fill="white">
<path d="M529.796 410.578V388.627L546.822 380.395V401.525L529.796 410.578Z"/>
</mask>
<path d="M529.796 388.627L501.163 329.403L464.013 347.363V388.627H529.796ZM529.796 410.578H464.013V520.056L560.678 468.661L529.796 410.578ZM546.822 401.525L577.704 459.609L612.605 441.053V401.525H546.822ZM546.822 380.395H612.605V275.524L518.189 321.171L546.822 380.395ZM529.796 388.627H464.013V410.578H529.796H595.578V388.627H529.796ZM529.796 410.578L560.678 468.661L577.704 459.609L546.822 401.525L515.94 343.442L498.914 352.494L529.796 410.578ZM546.822 401.525H612.605V380.395H546.822H481.039V401.525H546.822ZM546.822 380.395L518.189 321.171L501.163 329.403L529.796 388.627L558.429 447.851L575.455 439.619L546.822 380.395Z" fill="#F6F3E4" mask="url(#path-119-inside-45_28_387)"/>
<mask id="path-121-inside-46_28_387" fill="white">
<path d="M538.235 397.687L530.57 401.936L534.403 394.128L538.235 397.687Z"/>
</mask>
<path d="M538.235 397.687L530.57 401.936L534.403 394.128L538.235 397.687Z" fill="#C6E700"/>
<path d="M530.57 401.936L495.082 390.319L439.422 503.698L530.57 453.174V401.936ZM538.235 397.687V448.925L629.383 398.401L573.724 346.727L538.235 397.687ZM534.403 394.128L569.891 343.168L534.403 310.221L498.914 382.511L534.403 394.128ZM530.57 401.936V453.174L538.235 448.925V397.687V346.449L530.57 350.698V401.936ZM538.235 397.687L573.724 346.727L569.891 343.168L534.403 394.128L498.914 445.089L502.747 448.647L538.235 397.687ZM534.403 394.128L498.914 382.511L495.082 390.319L530.57 401.936L566.058 413.553L569.891 405.746L534.403 394.128Z" fill="#C6E700" mask="url(#path-121-inside-46_28_387)"/>
<rect width="3.37094" height="5.68293" transform="matrix(0.87462 -0.48481 0 1 532.929 400.629)" fill="#C6E700"/>
<mask id="path-124-inside-47_28_387" fill="white">
<path d="M546.749 393.043L539.083 397.293L542.916 389.485L546.749 393.043Z"/>
</mask>
<path d="M546.749 393.043L539.083 397.293L542.916 389.485L546.749 393.043Z" fill="white"/>
<path d="M539.083 397.293L503.595 385.675L447.936 499.055L539.083 448.531V397.293ZM546.749 393.043V444.282L637.896 393.758L582.237 342.083L546.749 393.043ZM542.916 389.485L578.404 338.525L542.916 305.577L507.428 377.868L542.916 389.485ZM539.083 397.293V448.531L546.749 444.282V393.043V341.805L539.083 346.054V397.293ZM546.749 393.043L582.237 342.083L578.404 338.525L542.916 389.485L507.428 440.445L511.26 444.004L546.749 393.043ZM542.916 389.485L507.428 377.868L503.595 385.675L539.083 397.293L574.571 408.91L578.404 401.102L542.916 389.485Z" fill="white" mask="url(#path-124-inside-47_28_387)"/>
<rect x="0.294829" y="0.173667" width="2.69675" height="5.00874" transform="matrix(0.87462 -0.48481 0 1 541.479 396.128)" fill="white" stroke="white" stroke-width="0.674188"/>
<mask id="path-127-inside-48_28_387" fill="white">
<path d="M343.282 267.644C315.588 239.95 259.219 214.233 234.496 204.836L249.299 247.869C269.61 261.225 305.798 282.658 321.938 289.869C340.955 298.365 413.401 287.699 435.889 280.918V263.705C411.284 263.256 360.945 262.053 343.282 267.644Z"/>
</mask>
<path d="M234.496 204.836L258.468 141.763L123.84 90.5937L170.69 226.785L234.496 204.836ZM343.282 267.644L295.57 315.357L324.559 344.346L363.645 331.974L343.282 267.644ZM249.299 247.869L185.493 269.818L192.985 291.595L212.227 304.248L249.299 247.869ZM321.938 289.869L349.462 228.263L349.462 228.263L321.938 289.869ZM435.889 280.918L455.367 345.521L503.364 331.049V280.918H435.889ZM435.889 263.705H503.364V197.451L437.121 196.241L435.889 263.705ZM234.496 204.836L210.523 267.91C220.369 271.652 237.984 279.248 255.898 288.85C274.901 299.035 288.862 308.648 295.57 315.357L343.282 267.644L390.995 219.932C370.009 198.946 341.938 181.853 319.652 169.908C296.276 157.378 273.345 147.417 258.468 141.763L234.496 204.836ZM249.299 247.869L212.227 304.248C233.217 318.051 273.112 341.958 294.414 351.475L321.938 289.869L349.462 228.263C338.484 223.358 306.003 204.399 286.371 191.49L249.299 247.869ZM321.938 289.869L294.414 351.475C313.221 359.878 334.057 360.391 343.993 360.481C357.28 360.601 371.575 359.606 384.674 358.227C409.855 355.577 438.32 350.661 455.367 345.521L435.889 280.918L416.41 216.316C410.969 217.956 391.968 221.764 370.549 224.018C360.35 225.091 351.561 225.593 345.214 225.536C343.716 225.522 342.525 225.478 341.621 225.424C341.177 225.398 340.834 225.371 340.587 225.348C340.466 225.336 340.373 225.327 340.309 225.32C340.245 225.313 340.214 225.308 340.214 225.308C340.214 225.308 340.251 225.313 340.324 225.325C340.396 225.336 340.509 225.354 340.662 225.382C340.958 225.436 341.464 225.535 342.148 225.703C343.351 225.997 346.004 226.718 349.462 228.263L321.938 289.869ZM435.889 280.918H503.364V263.705H435.889H368.414V280.918H435.889ZM435.889 263.705L437.121 196.241C425.246 196.024 405.095 195.575 385.691 195.947C375.971 196.133 365.564 196.536 355.839 197.39C347.3 198.141 334.719 199.58 322.92 203.315L343.282 267.644L363.645 331.974C360.677 332.913 361.012 332.406 367.648 331.824C373.099 331.345 380.125 331.029 388.274 330.873C404.605 330.56 421.927 330.937 434.656 331.169L435.889 263.705ZM234.496 204.836L170.69 226.785L185.493 269.818L249.299 247.869L313.105 225.92L298.301 182.887L234.496 204.836Z" fill="#C6E700" mask="url(#path-127-inside-48_28_387)"/>
<mask id="path-129-inside-49_28_387" fill="white">
<path d="M483.053 266.093C480.299 262.65 445.514 261.985 435.2 263.705V280.918C450.428 282.407 458.114 281.607 469.626 276.076L483.053 266.093Z"/>
</mask>
<path d="M435.2 263.705L427.95 220.24L391.135 226.381V263.705H435.2ZM483.053 266.093L509.347 301.453L545.98 274.213L517.462 238.565L483.053 266.093ZM435.2 280.918H391.135V320.887L430.914 324.775L435.2 280.918ZM469.626 276.076L488.709 315.796L492.524 313.963L495.921 311.437L469.626 276.076ZM435.2 263.705L442.45 307.17C441.825 307.275 441.976 307.217 443.265 307.125C444.393 307.044 445.923 306.968 447.806 306.918C451.587 306.818 456.056 306.84 460.335 306.998C464.789 307.163 468.117 307.442 469.909 307.687C470.942 307.827 470.332 307.806 468.794 307.378C468.054 307.171 465.978 306.567 463.309 305.302C461.925 304.647 459.874 303.576 457.542 301.954C455.287 300.386 451.921 297.718 448.643 293.62L483.053 266.093L517.462 238.565C511.102 230.615 503.698 226.916 501.04 225.657C497.555 224.005 494.439 223.035 492.463 222.484C488.456 221.367 484.596 220.743 481.819 220.364C475.993 219.569 469.464 219.144 463.588 218.927C452.928 218.533 437.828 218.592 427.95 220.24L435.2 263.705ZM435.2 280.918L430.914 324.775C439.636 325.627 449.348 326.186 459.658 324.805C470.66 323.331 479.968 319.995 488.709 315.796L469.626 276.076L450.544 236.357C449.005 237.096 448.262 237.355 448.033 237.429C447.923 237.464 447.897 237.467 447.93 237.46C447.965 237.452 447.983 237.45 447.956 237.454C447.737 237.483 445.992 237.697 439.487 237.062L435.2 280.918ZM435.2 263.705H391.135V280.918H435.2H479.266V263.705H435.2ZM469.626 276.076L495.921 311.437L509.347 301.453L483.053 266.093L456.758 230.732L443.332 240.715L469.626 276.076Z" fill="#C6E700" mask="url(#path-129-inside-49_28_387)"/>
<path d="M467.561 274.377C470.068 272.161 477.779 269.53 484.43 275.41" stroke="#C6E700" stroke-width="4.13114" stroke-linecap="round"/>
<path d="M469.626 271.956C472.57 269.739 480.409 266.776 488.217 272.656" stroke="#C6E700" stroke-width="4.13114" stroke-linecap="round"/>
<path d="M468.25 269.202C471.193 266.985 479.032 264.022 486.84 269.902" stroke="#C6E700" stroke-width="4.13114" stroke-linecap="round"/>
<path d="M464.575 276.869C476.262 278.781 481.573 280.023 461.02 278.853L464.575 276.869Z" stroke="#C6E700" stroke-width="4.13114" stroke-linecap="round"/>
<mask id="path-135-inside-50_28_387" fill="white">
<path d="M472.381 279.781L473.083 277.476C474.502 277.986 474.954 278.414 474.987 279.495C474.333 280.218 473.698 280.171 472.381 279.781Z"/>
</mask>
<path d="M473.083 277.476L476.811 267.109L465.919 263.193L462.546 274.264L473.083 277.476ZM472.381 279.781L461.843 276.57L458.608 287.185L469.247 290.342L472.381 279.781ZM474.987 279.495L483.153 286.891L486.134 283.599L485.999 279.159L474.987 279.495ZM473.083 277.476L462.546 274.264L461.843 276.57L472.381 279.781L482.919 282.992L483.621 280.687L473.083 277.476ZM472.381 279.781L469.247 290.342C469.818 290.511 472.09 291.238 474.744 291.042C478.465 290.767 481.287 288.95 483.153 286.891L474.987 279.495L466.822 272.1C467.289 271.585 468.107 270.813 469.335 270.164C470.623 269.481 471.94 269.156 473.121 269.069C474.193 268.99 474.987 269.119 475.289 269.176C475.586 269.232 475.721 269.281 475.515 269.22L472.381 279.781ZM474.987 279.495L485.999 279.159C485.933 277.004 485.335 273.586 482.492 270.632C480.286 268.34 477.661 267.415 476.811 267.109L473.083 277.476L469.356 287.842C469.477 287.886 469.222 287.804 468.806 287.583C468.373 287.353 467.514 286.842 466.618 285.911C465.644 284.899 464.91 283.687 464.464 282.395C464.056 281.216 463.989 280.263 463.976 279.831L474.987 279.495Z" fill="#6A38F3" mask="url(#path-135-inside-50_28_387)"/>
<mask id="path-137-inside-51_28_387" fill="white">
<path d="M485.118 275.41L486.151 274.377C485.692 273.803 484.636 272.725 484.085 273C483.535 273.276 484.544 274.722 485.118 275.41Z"/>
</mask>
<path d="M486.151 274.377L493.941 282.167L500.913 275.195L494.753 267.495L486.151 274.377ZM485.118 275.41L476.655 282.463L484.378 291.73L492.908 283.2L485.118 275.41ZM486.151 274.377L478.361 266.587L477.329 267.62L485.118 275.41L492.908 283.2L493.941 282.167L486.151 274.377ZM485.118 275.41L493.581 268.358C493.618 268.402 493.63 268.418 493.643 268.437C493.653 268.451 493.68 268.489 493.718 268.551C493.755 268.609 493.826 268.725 493.915 268.893C493.96 268.978 494.595 270.112 494.842 271.853C494.972 272.777 495.11 274.652 494.324 276.855C493.418 279.398 491.549 281.585 489.012 282.854L484.085 273L479.159 263.147C476.484 264.484 474.527 266.777 473.572 269.454C472.738 271.791 472.869 273.83 473.026 274.939C473.325 277.051 474.145 278.641 474.445 279.207C475.198 280.628 476.119 281.819 476.655 282.463L485.118 275.41ZM484.085 273L489.012 282.854C485.118 284.801 481.671 283.709 480.585 283.287C479.327 282.798 478.546 282.19 478.341 282.028C477.861 281.651 477.651 281.387 477.549 281.259L486.151 274.377L494.753 267.495C494.192 266.793 493.224 265.704 491.964 264.712C491.369 264.244 490.192 263.382 488.567 262.75C487.114 262.186 483.328 261.062 479.159 263.147L484.085 273Z" fill="#6A38F3" mask="url(#path-137-inside-51_28_387)"/>
<path d="M489.594 271.787L488.635 272.656L489.259 272.082L489.594 271.787Z" stroke="#6A38F3" stroke-width="11.0164"/>
<path d="M488.217 268.634L487.578 269.213L487.998 268.827L488.217 268.634Z" stroke="#6A38F3" stroke-width="11.0164"/>
</svg>
