<svg width="379" height="1119" viewBox="0 0 379 1119" fill="none" xmlns="http://www.w3.org/2000/svg">
<path d="M85.7381 565H167.91C180.271 709.487 167.381 828.765 158.182 1055H98.7704C89.1454 863.643 70.5904 756.357 85.7381 565Z" fill="#6A38F3"/>
<path d="M203.738 565H285.91C298.271 709.487 285.381 828.765 276.182 1055H216.77C207.145 863.643 188.59 756.357 203.738 565Z" fill="#6A38F3"/>
<path d="M185.29 397.351C185.524 398.265 185.759 399.196 185.992 400.143C191.539 422.718 195.157 447.65 197.758 473.211H169.9C172.613 452.894 176.382 431.658 181.42 411.597C182.687 406.549 183.983 401.801 185.29 397.351Z" stroke="black" stroke-width="186.587" stroke-linecap="round"/>
<ellipse cx="190.521" cy="159.61" rx="146.684" ry="121.394" fill="#C6E700"/>
<mask id="path-5-inside-1_160_178" fill="white">
<path d="M183.842 296.806C169.316 294.827 166.592 283.444 167.046 278H202C202 285.094 198.368 298.786 183.842 296.806Z"/>
</mask>
<path d="M167.046 278V-264H-331.64L-373.08 232.961L167.046 278ZM183.842 296.806L110.656 833.843L183.842 296.806ZM202 278H744V-264H202V278ZM167.046 278L-373.08 232.961C-381.652 335.768 -362.601 463.468 -285.32 582.991C-193.649 724.769 -46.9187 812.369 110.656 833.843L183.842 296.806L257.028 -240.23C400.076 -220.735 538.181 -139.817 624.972 -5.58679C697.374 106.389 715.29 225.676 707.171 323.039L167.046 278ZM183.842 296.806L110.656 833.843C203.334 846.472 313.543 837.65 422.677 786.54C529.917 736.318 602.76 660.93 648.547 592.638C729.829 471.408 744 349.669 744 278H202H-340C-340 213.425 -327.645 102.078 -251.81 -11.0271C-208.747 -75.256 -139.536 -147.149 -37.0625 -195.139C67.3052 -244.017 171.614 -251.87 257.028 -240.23L183.842 296.806ZM202 278V-264H167.046V278V820H202V278Z" fill="#C6E700" mask="url(#path-5-inside-1_160_178)"/>
<path d="M175.392 176.471C174.029 196.206 204.189 195.7 200.956 176.471" stroke="black" stroke-width="3.37205" stroke-linecap="round"/>
<path d="M231.547 173.099V148.37" stroke="black" stroke-width="10.1162" stroke-linecap="round"/>
<path d="M149.494 173.099V148.37" stroke="black" stroke-width="10.1162" stroke-linecap="round"/>
<mask id="path-10-inside-2_160_178" fill="white">
<path d="M371.834 144.142C359.247 121.538 323.245 133.146 308.439 146.341L317.935 184.117C340.065 177.167 384.421 166.747 371.834 144.142Z"/>
</mask>
<path d="M308.439 146.341L227.135 55.1146L171.883 104.356L189.926 176.133L308.439 146.341ZM371.834 144.142L265.07 203.592L265.07 203.592L371.834 144.142ZM317.935 184.117L199.422 213.908L230.995 339.508L354.551 300.702L317.935 184.117ZM308.439 146.341L389.743 237.568C382.678 243.865 376.887 246.895 373.724 248.344C370.255 249.934 365.072 251.841 357.782 252.854C351.043 253.79 336.449 254.782 318.283 248.416C297.581 241.16 277.522 225.953 265.07 203.592L371.834 144.142L478.597 84.6928C436.866 9.74831 359.863 5.81937 324.155 10.7795C288.32 15.7573 253.029 32.037 227.135 55.1146L308.439 146.341ZM371.834 144.142L265.07 203.592C258.116 191.102 251.386 172.515 251.867 149.51C252.353 126.229 260.052 106.888 268.964 92.9893C277.275 80.0269 286.331 72.1405 291.365 68.2456C296.607 64.1895 300.684 62.0123 302.135 61.2682C304.619 59.9942 304.612 60.297 299.566 61.943C291.248 64.6562 293.601 63.675 281.318 67.5327L317.935 184.117L354.551 300.702C355.713 300.337 389.17 291.298 413.671 278.732C425.478 272.676 454.204 256.878 474.704 224.905C486.35 206.742 495.622 182.824 496.212 154.619C496.796 126.691 488.699 102.834 478.597 84.6927L371.834 144.142ZM317.935 184.117L436.447 154.326L426.951 116.55L308.439 146.341L189.926 176.133L199.422 213.908L317.935 184.117Z" fill="#C6E700" mask="url(#path-10-inside-2_160_178)"/>
<path d="M343.053 140.909L322.898 160.95L339.499 162.714" stroke="black" stroke-width="1.83758" stroke-linecap="round"/>
<mask id="path-13-inside-3_160_178" fill="white">
<path d="M6.89277 144.142C19.4797 121.538 55.4818 133.146 70.2879 146.341L60.7919 184.117C38.662 177.167 -5.6942 166.747 6.89277 144.142Z"/>
</mask>
<path d="M70.2879 146.341L151.592 55.1146L206.843 104.356L188.8 176.133L70.2879 146.341ZM6.89277 144.142L113.656 203.592L113.656 203.592L6.89277 144.142ZM60.7919 184.117L179.304 213.908L147.731 339.508L24.1755 300.702L60.7919 184.117ZM70.2879 146.341L-11.0162 237.568C-3.95102 243.865 1.83994 246.895 5.00264 248.344C8.47133 249.934 13.655 251.841 20.945 252.854C27.6837 253.79 42.278 254.782 60.4433 248.416C81.1454 241.16 101.204 225.953 113.656 203.592L6.89277 144.142L-99.8708 84.6928C-58.1392 9.74831 18.8638 5.81937 54.5713 10.7795C90.4064 15.7573 125.698 32.037 151.592 55.1146L70.2879 146.341ZM6.89277 144.142L113.656 203.592C120.611 191.102 127.341 172.515 126.86 149.51C126.373 126.229 118.674 106.888 109.762 92.9893C101.451 80.0269 92.3954 72.1405 87.3617 68.2456C82.1197 64.1895 78.0424 62.0123 76.5917 61.2682C74.1077 59.9942 74.1148 60.297 79.1605 61.943C87.4781 64.6562 85.1256 63.675 97.4083 67.5327L60.7919 184.117L24.1755 300.702C23.0138 300.337 -10.4438 291.298 -34.9447 278.732C-46.7512 272.676 -75.4773 256.878 -95.9777 224.905C-107.624 206.742 -116.896 182.824 -117.485 154.619C-118.069 126.691 -109.972 102.834 -99.8707 84.6927L6.89277 144.142ZM60.7919 184.117L-57.7204 154.326L-48.2244 116.55L70.2879 146.341L188.8 176.133L179.304 213.908L60.7919 184.117Z" fill="#C6E700" mask="url(#path-13-inside-3_160_178)"/>
<path d="M35.6734 140.909L55.8287 160.95L39.2277 162.714" stroke="black" stroke-width="1.83758" stroke-linecap="round"/>
<path d="M262.921 59.008C214.233 56.3404 186.936 54.8287 138.254 53.9528" stroke="black" stroke-width="3.37205"/>
<mask id="path-17-inside-4_160_178" fill="white">
<path d="M305 83C316.117 96.0235 327.63 107.97 334.5 121.5C256.1 136.3 222.667 82.8333 219 56.5H268C282.662 63.054 290.8 69.3155 305 83Z"/>
</mask>
<path d="M334.5 121.5L346.001 182.424L427.189 167.098L389.781 93.4291L334.5 121.5ZM305 83L352.155 42.7461L350.196 40.4506L348.022 38.3562L305 83ZM268 56.5L293.302 -0.102123L281.227 -5.5H268V56.5ZM219 56.5V-5.5H147.769L157.592 65.0504L219 56.5ZM334.5 121.5L389.781 93.4291C378.552 71.3139 359.337 51.1592 352.155 42.7461L305 83L257.845 123.254C272.898 140.888 276.708 144.626 279.219 149.571L334.5 121.5ZM305 83L348.022 38.3562C330.92 21.8752 316.882 10.4385 293.302 -0.102123L268 56.5L242.698 113.102C246.867 114.966 248.697 116.122 250.255 117.253C252.366 118.785 255.493 121.394 261.978 127.644L305 83ZM219 56.5L157.592 65.0504C161.656 94.231 179.266 128.397 210.129 152.947C243.674 179.63 290.157 192.966 346.001 182.424L334.5 121.5L322.999 60.576C311.001 62.8409 303.016 62.096 298.085 60.9365C293.182 59.7838 289.8 57.8755 287.321 55.9033C284.667 53.7926 282.66 51.279 281.327 48.9584C279.777 46.2622 280.067 45.5006 280.408 47.9496L219 56.5ZM219 56.5V118.5H268V56.5V-5.5H219V56.5Z" fill="black" mask="url(#path-17-inside-4_160_178)"/>
<path d="M152.204 71C135.272 76.6899 124.619 82.3276 106.682 94.3965C137.166 91.3784 158.22 81.8012 172.486 71H152.204Z" stroke="black" stroke-width="62"/>
<mask id="path-20-inside-5_160_178" fill="white">
<path d="M118 48.5C128 44.5 132.833 44.2615 135 45L94 66.5C97.2779 61.3338 108 52.5 118 48.5Z"/>
</mask>
<path d="M135 45L187.943 145.961L422.977 22.7113L171.777 -62.9048L135 45ZM94 66.5L-2.25901 5.42463L-230.728 365.508L146.943 167.461L94 66.5ZM135 45L171.777 -62.9048C144.985 -72.0363 121.567 -69.3384 110.198 -67.3916C96.9553 -65.1242 85.1716 -61.1504 75.6614 -57.3463L118 48.5L160.339 154.346C160.321 154.353 159.368 154.737 157.611 155.269C155.904 155.786 152.843 156.624 148.677 157.338C144.621 158.032 138.344 158.812 130.468 158.648C122.766 158.488 111.365 157.384 98.2229 152.905L135 45ZM118 48.5L75.6614 -57.3463C58.2924 -50.3987 43.9538 -41.0108 33.7692 -33.1399C25.5988 -26.8257 9.88938 -13.7221 -2.25901 5.42463L94 66.5L190.259 127.575C184.824 136.141 179.708 141.314 178.206 142.811C176.02 144.99 174.302 146.405 173.189 147.265C171.685 148.428 167.708 151.399 160.339 154.346L118 48.5ZM94 66.5L146.943 167.461L187.943 145.961L135 45L82.0572 -55.9607L41.0572 -34.4607L94 66.5Z" fill="black" mask="url(#path-20-inside-5_160_178)"/>
<path d="M236.044 129.397C240.007 128.835 248.477 129.734 250.645 137.827" stroke="black" stroke-width="2.24803" stroke-linecap="round"/>
<path d="M149.483 130.521C145.52 129.959 137.05 130.858 134.882 138.951" stroke="black" stroke-width="2.24803" stroke-linecap="round"/>
<mask id="path-24-inside-6_160_178" fill="white">
<path d="M84 666C84 666 69.9991 663.545 78.4292 565.381H289.744C293.304 645.337 289.744 666 289.744 666H84Z"/>
</mask>
<path d="M78.4292 565.381V405.77H-68.0617L-80.5959 551.724L78.4292 565.381ZM84 666L56.4305 823.211L70.1109 825.61H84V666ZM289.744 565.381L449.197 558.282L442.408 405.77H289.744V565.381ZM289.744 666V825.61H424.211L447.038 693.096L289.744 666ZM78.4292 565.381L-80.5959 551.724C-85.1691 604.976 -85.3423 647.586 -78.7554 682.277C-75.4812 699.52 -68.5208 726.237 -50.6907 752.872C-41.1891 767.065 -27.6182 782.683 -8.68862 796.058C0.76223 802.735 11.1431 808.559 22.3575 813.24C27.9296 815.566 33.5951 817.563 39.3238 819.232C42.1831 820.065 45.0435 820.812 47.9006 821.475C49.3285 821.806 50.754 822.116 52.1763 822.406C52.8875 822.55 53.5976 822.69 54.3067 822.824C54.661 822.891 55.1924 822.989 55.3695 823.022C55.8998 823.117 56.4305 823.211 84 666C111.57 508.789 112.1 508.883 112.63 508.978C112.807 509.011 113.338 509.109 113.692 509.176C114.4 509.31 115.109 509.449 115.819 509.593C117.238 509.882 118.658 510.191 120.079 510.521C122.923 511.181 125.763 511.923 128.596 512.748C134.273 514.401 139.861 516.373 145.332 518.657C156.346 523.255 166.434 528.929 175.518 535.348C193.715 548.205 206.258 562.864 214.579 575.294C230.047 598.4 234.034 618.368 234.862 622.727C236.556 631.649 233.597 623.949 237.454 579.037L78.4292 565.381ZM289.744 565.381L130.292 572.479C131.948 609.689 131.838 630.766 131.537 640.992C131.389 646.046 131.207 648.016 131.239 647.646C131.257 647.44 131.337 646.559 131.519 645.109C131.61 644.379 131.729 643.491 131.881 642.459C131.958 641.942 132.043 641.386 132.137 640.794C132.184 640.498 132.234 640.192 132.286 639.877C132.312 639.72 132.339 639.56 132.366 639.398C132.38 639.317 132.394 639.235 132.408 639.153C132.415 639.112 132.426 639.05 132.429 639.029C132.44 638.967 132.451 638.904 289.744 666C447.038 693.096 447.049 693.033 447.06 692.971C447.063 692.95 447.074 692.887 447.081 692.845C447.095 692.762 447.109 692.678 447.124 692.595C447.152 692.427 447.18 692.26 447.208 692.092C447.263 691.757 447.318 691.42 447.372 691.083C447.48 690.407 447.584 689.726 447.686 689.038C447.888 687.664 448.08 686.254 448.262 684.803C448.624 681.911 448.955 678.791 449.251 675.398C449.839 668.656 450.324 660.462 450.621 650.356C451.211 630.262 451.1 601.029 449.197 558.282L289.744 565.381ZM289.744 666V506.39H84V666V825.61H289.744V666ZM78.4292 565.381V724.991H289.744V565.381V405.77H78.4292V565.381Z" fill="#6A38F3" mask="url(#path-24-inside-6_160_178)"/>
<path d="M256.586 581.679C257.71 591.811 264.117 613.19 280.752 617.647" stroke="black" stroke-width="2.24803"/>
<path d="M125.638 582.241C124.514 592.373 118.107 613.752 101.472 618.209" stroke="black" stroke-width="2.24803"/>
<path d="M229.815 341.846C228.425 342.134 227.27 343.496 227.216 344.879C227.206 345.224 227.254 345.545 227.374 345.853L227.724 346.707C227.768 346.885 227.653 347.105 227.449 347.198C227.315 347.294 227.178 347.246 227.086 347.148L226.541 346.457C226.111 345.932 225.423 345.682 224.666 345.801C223.281 346.017 222.059 347.333 221.934 348.729C221.877 349.34 222.036 349.884 222.374 350.311L222.924 350.929L222.938 350.926C223.039 351.094 222.98 351.334 222.815 351.477C222.679 351.601 222.507 351.632 222.4 351.55L221.685 351.076C221.225 350.785 220.653 350.686 220.066 350.803C218.691 351.074 217.509 352.427 217.439 353.827C217.4 354.592 217.721 355.251 218.288 355.623L219.059 356.116C219.206 356.233 219.19 356.465 219.009 356.626C218.958 356.683 218.895 356.728 218.828 356.752C218.76 356.777 218.692 356.781 218.632 356.764L218.618 356.766L217.774 356.514C217.454 356.442 217.132 356.413 216.789 356.459C215.42 356.658 214.185 357.963 214.044 359.375C213.971 360.418 214.476 361.273 215.391 361.512L231.163 365.984L238.191 358.179L232.095 342.96C231.763 342.061 230.819 341.626 229.815 341.846ZM230.586 347.575C231.188 347.455 231.707 347.707 231.897 348.217L235.565 357.354L230.316 352.644L229.2 349.822C228.835 348.985 229.569 347.783 230.586 347.575ZM225.618 352.385C226.004 352.317 226.351 352.399 226.603 352.64L232.993 358.394C233.526 358.844 233.477 359.754 232.893 360.429C232.281 361.109 231.393 361.28 230.834 360.792L224.444 355.038C224.317 354.931 224.219 354.793 224.156 354.632C224.093 354.471 224.066 354.29 224.077 354.1C224.088 353.911 224.136 353.716 224.218 353.527C224.301 353.338 224.416 353.159 224.558 353.001C224.85 352.663 225.232 352.453 225.618 352.385ZM221.393 357.879C221.578 357.846 221.775 357.869 221.913 357.916L224.863 358.741L230.097 363.454L220.598 360.766C219.184 360.386 219.823 358.113 221.393 357.879ZM239.803 360.169L233.311 367.379L234.44 368.395C235.451 369.29 236.994 369.433 238.494 368.782C239.234 368.454 239.922 367.949 240.491 367.316C241.061 366.684 241.491 365.947 241.74 365.177C242.23 363.617 241.927 362.097 240.932 361.186L239.803 360.169Z" fill="white"/>
<mask id="path-29-inside-7_160_178" fill="white">
<path d="M156.804 1118.5V1055H98.5L29.3038 1074C-2.40957 1093.07 1.37275 1108.74 10.3036 1118.5H156.804Z"/>
</mask>
<path d="M156.804 1055H328.804V883H156.804V1055ZM156.804 1118.5V1290.5H328.804V1118.5H156.804ZM10.3036 1118.5L-116.615 1234.59L-65.4725 1290.5H10.3036V1118.5ZM29.3038 1074L-16.2386 908.139L-39.0584 914.405L-59.3382 926.601L29.3038 1074ZM98.5 1055V883H75.315L52.9576 889.139L98.5 1055ZM156.804 1055H-15.1964V1118.5H156.804H328.804V1055H156.804ZM156.804 1118.5V946.5H10.3036V1118.5V1290.5H156.804V1118.5ZM10.3036 1118.5L137.222 1002.41C153.724 1020.46 189.106 1071.56 171.311 1141.92C163.673 1172.11 148.772 1192.7 138.181 1204.19C127.943 1215.3 119.447 1220.5 117.946 1221.4L29.3038 1074L-59.3382 926.601C-88.6962 944.256 -143.544 983.861 -162.186 1057.56C-183.786 1142.96 -142.047 1206.78 -116.615 1234.59L10.3036 1118.5ZM29.3038 1074L74.8462 1239.86L144.042 1220.86L98.5 1055L52.9576 889.139L-16.2386 908.139L29.3038 1074ZM98.5 1055V1227H156.804V1055V883H98.5V1055Z" fill="black" mask="url(#path-29-inside-7_160_178)"/>
<mask id="path-31-inside-8_160_178" fill="white">
<path d="M217 1118.5V1055H275.304L344.5 1074C376.213 1093.07 372.431 1108.74 363.5 1118.5H217Z"/>
</mask>
<path d="M217 1055H45V883H217V1055ZM217 1118.5V1290.5H45V1118.5H217ZM363.5 1118.5L490.418 1234.59L439.276 1290.5H363.5V1118.5ZM344.5 1074L390.042 908.139L412.862 914.405L433.142 926.601L344.5 1074ZM275.304 1055V883H298.489L320.846 889.139L275.304 1055ZM217 1055H389V1118.5H217H45V1055H217ZM217 1118.5V946.5H363.5V1118.5V1290.5H217V1118.5ZM363.5 1118.5L236.582 1002.41C220.08 1020.46 184.698 1071.56 202.493 1141.92C210.131 1172.11 225.032 1192.7 235.623 1204.19C245.86 1215.3 254.356 1220.5 255.858 1221.4L344.5 1074L433.142 926.601C462.5 944.256 517.348 983.861 535.99 1057.56C557.59 1142.96 515.851 1206.78 490.418 1234.59L363.5 1118.5ZM344.5 1074L298.957 1239.86L229.761 1220.86L275.304 1055L320.846 889.139L390.042 908.139L344.5 1074ZM275.304 1055V1227H217V1055V883H275.304V1055Z" fill="black" mask="url(#path-31-inside-8_160_178)"/>
<mask id="path-33-inside-9_160_178" fill="white">
<path d="M274 61C285.5 71.7609 319.1 95.913 331.5 89.6957C327.719 94.0983 324.524 96.2818 321.609 97.0256C326.869 101.185 332.907 105.574 339.5 108.826L319.5 116L274 61Z"/>
</mask>
<path d="M321.609 97.0256L335.703 152.256L447.32 123.774L356.967 52.3173L321.609 97.0256ZM300.5 87.9022L244.325 78.2376L236.99 120.872L276.08 139.406L300.5 87.9022ZM321.609 97.0256L307.516 41.7954C316.548 39.4907 325.003 40.1691 331.596 41.9865C337.281 43.5536 340.832 45.7745 341.017 45.8867C341.244 46.0238 341.209 46.0122 340.532 45.5618C340.231 45.3618 338.638 44.2924 337.576 43.5961C334.993 41.9027 330.529 39.0578 324.92 36.3981L300.5 87.9022L276.08 139.406C274.67 138.737 274.042 138.259 275.077 138.937C275.824 139.426 275.985 139.544 277.403 140.487C278.443 141.179 280.09 142.265 281.979 143.408C288.581 147.405 308.991 159.072 335.703 152.256L321.609 97.0256ZM300.5 87.9022L356.675 97.5667C356.122 100.781 354.44 108.684 348.639 117.312C341.861 127.393 330.687 136.455 315.844 139.959C302.814 143.035 292.352 140.528 287.508 138.995C282.443 137.392 279.054 135.425 277.968 134.776C275.972 133.585 275.32 132.897 277.806 134.897C278.773 135.675 283.412 139.488 286.252 141.734L321.609 97.0256L356.967 52.3173C353.911 49.9004 353.145 49.1955 349.273 46.0803C346.92 44.1872 341.999 40.2309 336.379 36.8779C333.481 35.1486 328.442 32.3764 321.898 30.3059C315.576 28.3055 303.807 25.6672 289.652 29.0087C253.685 37.4994 245.749 69.9604 244.325 78.2376L300.5 87.9022ZM339.5 108.826L359.278 162.285C365.025 160.159 369.826 157.333 373.7 154.431C377.533 151.56 380.506 148.58 382.748 145.976C384.99 143.371 386.703 140.906 387.981 138.849C389.268 136.779 390.26 134.888 391.013 133.313C391.771 131.728 392.366 130.296 392.829 129.09C393.293 127.878 393.666 126.784 393.961 125.853C394.54 124.028 394.932 122.475 395.187 121.372C395.449 120.241 395.636 119.28 395.764 118.577C395.894 117.863 395.99 117.261 396.055 116.83C396.122 116.396 396.172 116.038 396.202 115.817C396.231 115.607 396.255 115.417 396.259 115.391C396.269 115.317 396.257 115.403 396.242 115.514C396.226 115.636 396.189 115.895 396.138 116.233C396.087 116.568 396.005 117.077 395.892 117.701C395.78 118.313 395.61 119.187 395.367 120.235C395.13 121.255 394.758 122.724 394.204 124.47C393.922 125.361 393.563 126.413 393.114 127.584C392.668 128.748 392.092 130.135 391.358 131.674C390.629 133.203 389.668 135.041 388.423 137.056C387.186 139.06 385.531 141.46 383.367 144.003C381.204 146.545 378.34 149.459 374.649 152.287C370.923 155.143 366.292 157.958 360.73 160.129L340 107.033L319.27 53.9358C313.69 56.1143 309.043 58.9382 305.3 61.8067C301.594 64.6475 298.714 67.5761 296.536 70.1357C294.357 72.697 292.688 75.117 291.437 77.1431C290.178 79.1808 289.204 81.0438 288.462 82.5996C287.715 84.1654 287.126 85.5819 286.668 86.7767C286.208 87.9782 285.838 89.0633 285.544 89.9898C285.248 90.9205 285.007 91.7623 284.812 92.4889C284.616 93.218 284.453 93.879 284.32 94.4541C284.058 95.584 283.869 96.5462 283.741 97.2518C283.61 97.9682 283.513 98.574 283.447 99.0086C283.38 99.4463 283.329 99.8086 283.298 100.034C283.269 100.249 283.243 100.441 283.239 100.472C283.229 100.552 283.24 100.468 283.254 100.362C283.27 100.245 283.306 99.9889 283.357 99.6548C283.407 99.324 283.488 98.8178 283.6 98.1965C283.711 97.5863 283.881 96.7126 284.124 95.6642C284.247 95.1298 284.4 94.5069 284.586 93.8134C284.771 93.1226 285.003 92.313 285.288 91.4114C285.573 90.5142 285.934 89.4532 286.387 88.2718C286.837 87.0974 287.421 85.6935 288.166 84.135C288.906 82.5871 289.885 80.7202 291.158 78.6727C292.422 76.6375 294.12 74.1927 296.348 71.6047C298.575 69.0178 301.533 66.0528 305.35 63.1932C309.208 60.3032 313.993 57.487 319.722 55.3672L339.5 108.826ZM274 61L351.891 -22.2408L186.162 133.666L274 61ZM331.5 89.6957L417.988 163.964L280.403 -12.2118L331.5 89.6957ZM321.609 97.0256L293.422 -13.4348L70.1876 43.5296L250.894 186.442L321.609 97.0256ZM339.5 108.826L377.99 216.132L630.863 125.428L389.93 6.58691L339.5 108.826ZM319.5 116L231.662 188.666L282.669 250.323L357.99 223.306L319.5 116ZM274 61L196.109 144.241C208.225 155.578 226.454 169.444 245.209 180.324C254.511 185.72 268.674 193.178 285.434 198.325C296.198 201.631 337.967 213.981 382.597 191.603L331.5 89.6957L280.403 -12.2118C301.245 -22.6618 320.095 -23.6422 330.566 -23.2171C341.221 -22.7844 348.926 -20.686 352.369 -19.6286C358.982 -17.5977 361.701 -15.6848 359.616 -16.8943C355.596 -19.2266 351.275 -22.8172 351.891 -22.2408L274 61ZM331.5 89.6957L245.012 15.4272C248.029 11.9138 263.679 -5.84501 293.422 -13.4348L321.609 97.0256L349.796 207.486C385.369 198.409 407.41 176.283 417.988 163.964L331.5 89.6957ZM321.609 97.0256L250.894 186.442C258.164 192.192 271.643 202.469 289.07 211.065L339.5 108.826L389.93 6.58691C391.199 7.21306 392.158 7.75344 392.79 8.12776C393.423 8.50272 393.812 8.76204 393.936 8.84626C394.062 8.93094 393.997 8.89129 393.708 8.67712C393.419 8.46175 392.978 8.12551 392.325 7.60907L321.609 97.0256ZM339.5 108.826L301.01 1.52038L281.01 8.69429L319.5 116L357.99 223.306L377.99 216.132L339.5 108.826ZM319.5 116L407.338 43.3336L361.838 -11.6664L274 61L186.162 133.666L231.662 188.666L319.5 116Z" fill="black" mask="url(#path-33-inside-9_160_178)"/>
<mask id="path-35-inside-10_160_178" fill="white">
<path d="M221.857 55.6833C221.106 80.2731 230.553 128.73 274.351 125.838C259.908 122.426 229.19 103.617 221.857 55.6833Z"/>
</mask>
<path d="M221.857 55.6833L334.546 38.4445L107.911 52.2015L221.857 55.6833ZM274.351 125.838L281.861 239.591L300.566 14.8935L274.351 125.838ZM221.857 55.6833L107.911 52.2015C107.163 76.6765 110.663 116.142 130.347 153.836C140.871 173.99 158.192 197.627 185.927 215.454C214.964 234.117 248.337 241.804 281.861 239.591L274.351 125.838L266.841 12.0859C278.465 11.3184 294.233 14.0326 309.204 23.6551C322.874 32.4409 329.667 42.9691 332.449 48.2966C335.156 53.4806 335.684 56.6997 335.7 56.7893C335.75 57.0579 335.855 57.5128 335.804 59.1652L221.857 55.6833ZM274.351 125.838L300.566 14.8935C309.881 17.0946 316 20.1958 319.409 22.2258C323.302 24.5438 326.338 27.0627 328.695 29.5826C334.167 35.4326 334.777 39.9501 334.546 38.4445L221.857 55.6833L109.168 72.9222C123.715 168.01 189.667 222.967 248.135 236.783L274.351 125.838Z" fill="black" mask="url(#path-35-inside-10_160_178)"/>
<mask id="path-37-inside-11_160_178" fill="white">
<path d="M53 82.5645C78.1244 81.5205 115.232 52.7093 128 49.5L106.15 90.5L53 82.5645Z"/>
</mask>
<path d="M128 49.5L228.605 103.116L349.495 -123.723L100.209 -61.0606L128 49.5ZM53 82.5645L48.2672 -31.3372L36.1659 195.315L53 82.5645ZM106.15 90.5L89.3155 203.25L168.907 215.134L206.754 144.116L106.15 90.5ZM128 49.5L100.209 -61.0606C87.4086 -57.8431 77.2568 -53.1081 72.8151 -50.9763C67.3438 -48.3504 62.3387 -45.6116 58.7912 -43.628C55.1846 -41.6113 51.2982 -39.3642 48.4443 -37.7227C45.2716 -35.8978 42.6073 -34.3758 40.0473 -32.9629C34.5898 -29.9508 31.8854 -28.7192 31.0147 -28.3693C29.072 -27.5886 35.889 -30.8229 48.2672 -31.3372L53 82.5645L57.7328 196.466C82.6733 195.43 103.55 188.203 116.031 183.187C129.583 177.741 141.664 171.374 150.22 166.651C154.667 164.197 158.817 161.818 162.123 159.916C165.747 157.832 168.005 156.527 170.065 155.375C172.184 154.19 172.369 154.143 171.469 154.575C170.936 154.831 169.462 155.526 167.282 156.389C165.265 157.187 161.244 158.69 155.791 160.061L128 49.5ZM53 82.5645L36.1659 195.315L89.3155 203.25L106.15 90.5L122.984 -22.2502L69.8341 -30.1857L53 82.5645ZM106.15 90.5L206.754 144.116L228.605 103.116L128 49.5L27.3952 -4.11596L5.5448 36.884L106.15 90.5Z" fill="black" mask="url(#path-37-inside-11_160_178)"/>
<mask id="path-39-inside-12_160_178" fill="white">
<path d="M30.5 118C51.8694 112.098 73.9591 74.681 91 76.9999L69.1496 118H30.5Z"/>
</mask>
<path d="M91 76.9999L191.605 130.616L268.612 -13.8809L106.372 -35.9589L91 76.9999ZM30.5 118L0.151659 8.11375L30.5 232V118ZM69.1496 118V232H137.574L169.754 171.616L69.1496 118ZM91 76.9999L106.372 -35.9589C58.8506 -42.4257 24.1316 -20.0856 13.1366 -12.588C-0.408211 -3.35166 -11.7774 7.62096 -16.1216 11.7457C-19.4171 14.8748 -20.9622 16.3694 -22.8761 18.1401C-24.5584 19.6964 -25.0964 20.1229 -24.9243 19.9843C-24.8098 19.8921 -22.8763 18.3202 -19.4144 16.2766C-16.0265 14.2768 -9.36435 10.7419 0.151659 8.11375L30.5 118L60.8483 227.886C75.7067 223.783 87.7337 217.787 96.4865 212.621C105.313 207.41 112.611 201.965 118.068 197.571C123.583 193.131 128.364 188.828 131.957 185.504C135.317 182.395 139.002 178.861 140.868 177.089C143.278 174.8 144.366 173.808 144.949 173.299C145.586 172.744 144.298 173.937 141.589 175.784C139.11 177.475 132.604 181.686 122.712 185.218C112.429 188.889 95.904 192.718 75.6283 189.959L91 76.9999ZM30.5 118V232H69.1496V118V3.99995H30.5V118ZM69.1496 118L169.754 171.616L191.605 130.616L91 76.9999L-9.60481 23.384L-31.4552 64.384L69.1496 118Z" fill="black" mask="url(#path-39-inside-12_160_178)"/>
<mask id="path-41-inside-13_160_178" fill="white">
<path d="M63 133.202C87.258 131.479 100.242 129.207 122.162 122.603L86.9065 121.089C80.8589 128.322 73.7226 129.527 63 133.202Z"/>
</mask>
<path d="M122.162 122.603L155.047 231.757L127.053 8.70769L122.162 122.603ZM63 133.202L26.0389 25.3598L71.0745 246.915L63 133.202ZM86.9065 121.089L91.7977 7.19364L35.5532 4.77822L-0.555169 47.9692L86.9065 121.089ZM122.162 122.603L89.2769 13.4489C76.1773 17.3954 71.5824 18.3053 54.9254 19.4881L63 133.202L71.0745 246.915C102.934 244.653 124.307 241.018 155.047 231.757L122.162 122.603ZM63 133.202L99.961 241.044C101.733 240.437 101.492 240.552 105.839 239.13C108.763 238.174 114.832 236.171 121.651 233.246C137.978 226.242 157.347 214.568 174.368 194.208L86.9065 121.089L-0.555169 47.9692C4.24584 42.2265 9.99195 36.8828 16.5059 32.2973C22.8185 27.8535 28.3717 25.1678 31.7617 23.7135C34.7004 22.4528 36.5964 21.8923 34.9776 22.4217C34.7823 22.4855 29.6287 24.1295 26.0389 25.3598L63 133.202ZM86.9065 121.089L82.0153 234.984L117.271 236.498L122.162 122.603L127.053 8.70769L91.7977 7.19364L86.9065 121.089Z" fill="black" mask="url(#path-41-inside-13_160_178)"/>
<mask id="path-43-inside-14_160_178" fill="white">
<path d="M318.29 131.202C303.172 127.903 294.992 124.802 281 116.83L302.706 117.653C306.923 125.203 311.416 126.863 318.29 131.202Z"/>
</mask>
<path d="M281 116.83L224.57 215.884L285.318 2.9122L281 116.83ZM318.29 131.202L379.139 34.7998L293.983 242.58L318.29 131.202ZM302.706 117.653L307.024 3.73498L371.012 6.16049L402.236 62.0664L302.706 117.653ZM281 116.83L337.43 17.7766C341.672 20.1935 341.746 19.9813 340.114 19.3542C339.379 19.072 338.927 18.9457 339.053 18.9812C339.306 19.0526 340.297 19.3214 342.596 19.8231L318.29 131.202L293.983 242.58C267.518 236.805 248.515 229.526 224.57 215.884L281 116.83ZM318.29 131.202L257.44 227.604C257.542 227.668 257.481 227.627 256.984 227.328C256.94 227.301 255.23 226.276 254.33 225.729C252.023 224.327 246.676 221.056 240.664 216.502C225.799 205.241 213.091 190.992 203.177 173.24L302.706 117.653L402.236 62.0664C399.88 57.8488 396.504 52.7262 391.843 47.385C387.106 41.9579 382.341 37.7928 378.339 34.7614C374.836 32.1078 372.165 30.5379 372.766 30.9034C373.319 31.2399 373.121 31.1148 374.655 32.0394C375.735 32.6904 377.319 33.6507 379.139 34.7998L318.29 131.202ZM302.706 117.653L298.388 231.571L276.682 230.749L281 116.83L285.318 2.9122L307.024 3.73498L302.706 117.653Z" fill="black" mask="url(#path-43-inside-14_160_178)"/>
<mask id="path-45-inside-15_160_178" fill="white">
<path d="M189.144 2.24805C148.444 2.24803 137.367 41.4685 138.308 55.0768H239.416C235.65 35.1041 231.508 2.24806 189.144 2.24805Z"/>
</mask>
<path d="M138.308 55.0768L-35.4988 67.1006L-24.2781 229.299H138.308V55.0768ZM189.144 2.24805L189.145 -171.975L189.144 2.24805ZM239.416 55.0768V229.299H449.555L410.622 22.7979L239.416 55.0768ZM138.308 55.0768L312.116 43.0531C313.58 64.2187 310.277 79.4487 308.082 87.4074C305.396 97.1437 300.8 108.716 292.675 120.795C284.281 133.275 270.878 148.017 250.91 159.528C230.1 171.524 208.222 176.471 189.144 176.471L189.144 2.24805L189.145 -171.975C102.236 -171.975 38.567 -125.742 3.5468 -73.6762C-24.7636 -31.5859 -38.7716 19.7919 -35.4988 67.1006L138.308 55.0768ZM189.144 2.24805L189.144 176.471C176.983 176.471 156.089 173.992 132.793 161.653C108.856 148.974 92.152 131.058 81.6813 114.57C72.1863 99.6183 68.6395 87.2019 67.6567 83.5383C67.0223 81.1733 66.376 77.6317 68.2094 87.3558L239.416 55.0768L410.622 22.7979C410.573 22.5356 407.996 7.39725 404.202 -6.74563C400.06 -22.187 392.124 -46.5624 375.827 -72.2248C358.555 -99.4236 332.636 -126.802 295.89 -146.265C259.785 -165.389 222.488 -171.975 189.145 -171.975L189.144 2.24805ZM239.416 55.0768V-119.146H138.308V55.0768V229.299H239.416V55.0768Z" fill="black" mask="url(#path-45-inside-15_160_178)"/>
<path d="M209.042 20.8223C226.017 9.10142 246.106 0.0764904 268.779 1.22266C278.863 1.73242 285.197 4.30008 288.683 7.97754C292.12 11.6044 292.988 16.5296 291.64 22.29C288.936 33.8392 277.416 48.1502 261.688 59.5518L170.154 54.4902C180.024 45.1229 193.1 31.8301 209.042 20.8223Z" fill="black" stroke="#F6F3E4" stroke-width="2.24803" stroke-linecap="round"/>
<path d="M170 54.5H138" stroke="#F6F3E4" stroke-width="2"/>
<path d="M92.5 402.5L116 381L133 294L87.5 323.5L92.5 402.5Z" fill="black" stroke="black"/>
<path d="M307.5 489.5C300.977 460.531 289.777 440.867 281 404.5L284 325C311.687 346.449 363.627 442.583 356 489.5C347.014 544.775 287.19 587.591 267 611.5L244.5 569.5L307.5 489.5Z" fill="#C6E700" stroke="#C6E700"/>
<path d="M63.2561 493.5C69.7791 464.531 82.723 426.867 91.5 390.5L86.5 324C58.813 345.449 7.12888 446.583 14.7561 493.5C23.7421 548.775 83.5663 591.591 103.756 615.5L126.256 573.5L63.2561 493.5Z" fill="#C6E700" stroke="#C6E700"/>
<path d="M220.633 609.947C218.442 608.198 201.735 614.183 193.655 617.394L189.781 617.062C177.853 615.085 165.652 611.693 163.715 613.856L161.529 616.596L143.957 605.337L135.018 595.791C134.574 591.851 135.865 589.685 136.566 589.095C137.606 586.062 152.237 584.582 159.422 584.221C170.025 578.885 178.044 583.213 180.729 586.045L197.442 584.548L197.607 582.611C205.045 577.784 215.722 579.934 220.131 581.612C226.794 576.718 240.451 579.773 246.446 581.912C246.247 584.237 246.3 587.428 246.835 588.775C250.444 592.205 249.668 597.472 248.829 599.677C242.272 607.896 223.373 612.132 220.633 609.947Z" fill="black" stroke="black" stroke-width="1.94406"/>
<path d="M204.356 574.389C207.482 574.038 211.772 574.647 214.693 575.285L214.778 575.303L214.865 575.306C214.812 575.304 214.968 575.322 215.233 575.532C215.47 575.719 215.64 575.942 215.709 576.127C215.762 576.27 215.755 576.365 215.667 576.489C215.55 576.656 215.228 576.94 214.441 577.222L212.713 577.077L211.746 576.997L211.416 580.852L212.457 580.869C214.098 580.898 215.489 581.031 216.42 581.259C216.643 581.314 216.821 581.37 216.959 581.422C216.899 581.458 216.831 581.497 216.752 581.537C216.264 581.782 215.538 582.027 214.617 582.253C212.786 582.701 210.36 583.03 207.942 583.189C205.52 583.348 203.166 583.332 201.476 583.114C200.702 583.014 200.133 582.879 199.772 582.733C200.027 582.572 200.414 582.394 200.942 582.217C202.046 581.846 203.579 581.531 205.305 581.298L206.077 581.195L206.437 576.982L203.831 576.76L203.704 576.783C203.566 576.808 203.308 576.763 203.003 576.527C202.706 576.296 202.489 575.973 202.412 575.679C202.344 575.416 202.388 575.215 202.55 575.039C202.747 574.823 203.242 574.515 204.356 574.389Z" fill="#060606" stroke="#060606" stroke-width="1.94406"/>
<path d="M173.57 576.366C170.44 576.05 166.157 576.708 163.243 577.38L163.159 577.399L163.072 577.404C163.125 577.401 162.968 577.421 162.706 577.633C162.472 577.823 162.304 578.048 162.237 578.234C162.186 578.378 162.194 578.473 162.283 578.596C162.403 578.761 162.727 579.042 163.518 579.315L165.244 579.15L166.21 579.058L166.584 582.909L165.544 582.938C163.903 582.986 162.514 583.135 161.585 583.374C161.362 583.432 161.185 583.489 161.048 583.543C161.108 583.578 161.177 583.617 161.256 583.655C161.748 583.895 162.476 584.132 163.399 584.347C165.235 584.774 167.665 585.075 170.085 585.206C172.509 585.337 174.862 585.294 176.549 585.057C177.322 584.948 177.889 584.806 178.249 584.656C177.992 584.498 177.603 584.325 177.073 584.153C175.965 583.795 174.428 583.498 172.7 583.285L171.927 583.19L171.518 578.983L174.121 578.73L174.249 578.752C174.387 578.775 174.645 578.728 174.946 578.488C175.241 578.253 175.454 577.927 175.528 577.632C175.593 577.369 175.547 577.169 175.383 576.994C175.183 576.781 174.685 576.478 173.57 576.366Z" fill="#060606" stroke="#060606" stroke-width="1.94406"/>
<path d="M213.466 602.504L174.229 605C170.222 606.218 172.338 608.09 173.897 608.874L191.33 610.366C194.429 610.631 197.196 610.217 198.192 609.977L214.186 605.492C216.709 603.367 214.757 602.615 213.466 602.504Z" fill="#6A38F3" stroke="#6A38F3" stroke-width="1.94406"/>
<path d="M224.534 598.574C225.871 603.987 225.801 606.337 225.476 610.361L241.552 604.908C241.689 604.107 241.767 603.615 242.049 599.097C241.815 595.148 240.233 594.741 236.736 592.789C233.169 592.346 231.463 592.73 228.822 594.063C226.254 595.687 225.369 596.683 224.534 598.574Z" fill="#191919" stroke="#191919" stroke-width="1.94406"/>
<path d="M162.69 603.037C162.493 605.268 160.81 613.608 161.612 615.628L144.925 605.419C145.224 604.235 145.187 603.597 145.174 602.514C146.352 601.02 147.321 600.167 149.379 598.971C152.84 597.468 154.951 597.347 159.147 598.832C160.601 600.185 162.088 601.932 162.69 603.037Z" fill="#191919" stroke="#191919" stroke-width="1.94406"/>
<path d="M209.586 585.17C209.912 585.222 210.13 585.291 210.262 585.348C210.323 585.375 210.358 585.395 210.373 585.405L210.402 585.44L210.477 585.5C210.478 585.501 210.479 585.502 210.481 585.503C210.485 585.506 210.491 585.511 210.5 585.519C210.518 585.533 210.545 585.555 210.581 585.584C210.652 585.643 210.755 585.731 210.883 585.843C211.139 586.068 211.489 586.389 211.861 586.767C212.631 587.551 213.397 588.486 213.722 589.304C214.052 590.134 214.173 591.45 214.191 592.664C214.199 593.25 214.184 593.776 214.166 594.157C214.157 594.346 214.147 594.498 214.14 594.602C214.137 594.654 214.133 594.694 214.131 594.72L214.128 594.756C214.02 596.019 213.623 596.607 213.253 596.919C212.859 597.251 212.346 597.398 211.74 597.498L175.541 600.232C174.71 600.142 174.103 599.742 173.661 599.244C173.247 598.778 172.999 598.246 172.886 597.881L173.286 593.213C173.326 592.742 173.164 592.19 173.02 591.773C172.858 591.304 172.64 590.796 172.428 590.338C172.215 589.877 171.999 589.449 171.838 589.138C171.757 588.982 171.689 588.855 171.641 588.765C171.618 588.721 171.599 588.685 171.586 588.661C171.582 588.654 171.578 588.649 171.575 588.644C171.586 588.635 171.597 588.625 171.609 588.615C171.878 588.407 172.341 588.254 172.732 588.287L172.817 588.294L172.902 588.287L206.327 585.294L206.362 585.291L206.395 585.285C207.904 585.042 208.934 585.066 209.586 585.17ZM171.502 588.656L170.712 589.09L171.502 588.654L171.502 588.656Z" fill="#191919" stroke="#191919" stroke-width="1.94406"/>
<path d="M237.73 581.166C238.175 581.204 238.505 581.281 238.688 581.372L238.598 582.43L235.769 582.885C235.624 582.781 235.447 582.646 235.276 582.493C235.08 582.318 234.921 582.148 234.823 582C234.815 581.989 234.81 581.978 234.804 581.968C234.815 581.961 234.826 581.952 234.838 581.944C235.045 581.807 235.368 581.661 235.767 581.529C236.156 581.4 236.575 581.299 236.947 581.236C237.337 581.17 237.61 581.156 237.73 581.166Z" fill="#191919" stroke="#191919" stroke-width="1.94406"/>
<path d="M223.203 582.607C222.791 582.781 222.501 582.956 222.355 583.1L222.769 584.077L225.599 583.634C225.705 583.491 225.832 583.307 225.947 583.109C226.079 582.882 226.177 582.671 226.225 582.5C226.229 582.487 226.231 582.475 226.233 582.464C226.221 582.46 226.208 582.455 226.193 582.451C225.954 582.386 225.602 582.347 225.182 582.344C224.772 582.342 224.342 582.376 223.969 582.431C223.577 582.489 223.314 582.56 223.203 582.607Z" fill="#191919" stroke="#191919" stroke-width="1.94406"/>
<path d="M230.743 583.526C231.768 583.539 232.793 583.699 233.595 583.885L233.506 584.925C233.359 584.972 233.171 585.019 232.94 585.059C232.396 585.153 231.704 585.208 230.943 585.23C229.826 585.263 228.621 585.224 227.632 585.165L227.715 584.187C228.423 583.717 229.493 583.511 230.743 583.526Z" fill="#191919" stroke="#191919" stroke-width="1.94406"/>
<path d="M166.044 586.642C165.975 587.444 163.751 587.909 161.077 587.68C158.402 587.451 156.29 586.615 156.359 585.813C156.427 585.011 158.651 584.546 161.325 584.774C164 585.003 166.112 585.839 166.044 586.642Z" fill="#191919"/>
<path d="M165.413 587.173L165.377 587.593C161.357 588.219 158.211 587.46 156.851 586.903L156.89 586.444L165.413 587.173Z" fill="#191919" stroke="#191919" stroke-width="1.16644"/>
<path d="M137.244 589.15C137.304 589.953 139.421 590.45 141.973 590.26C144.525 590.07 146.545 589.265 146.485 588.462C146.425 587.659 144.308 587.162 141.756 587.352C139.205 587.542 137.185 588.347 137.244 589.15Z" fill="#191919"/>
<path d="M137.869 589.688L137.901 590.113C141.702 590.789 144.685 590.085 145.981 589.552L145.947 589.086L137.869 589.688Z" fill="#191919" stroke="#191919" stroke-width="1.16644"/>
<path d="M147.491 590.036C147.545 590.762 149.863 591.182 152.668 590.973C155.474 590.764 157.704 590.006 157.65 589.279C157.596 588.553 155.278 588.133 152.472 588.342C149.667 588.551 147.436 589.309 147.491 590.036Z" fill="#191919"/>
<path d="M148.115 590.574L148.135 590.841C152.347 591.408 155.679 590.717 157.134 590.205L157.112 589.904L148.115 590.574Z" fill="#191919" stroke="#191919" stroke-width="1.16644"/>
<path d="M229.075 557.323C231.088 557.269 233.368 557.782 235.019 558.334C235.467 559.978 236.543 561.512 237.908 562.897C239.442 564.452 241.419 565.9 243.522 567.193C247.641 569.725 252.37 571.738 255.554 572.852L268.937 585.574L268.997 585.631L269.065 585.676C270.361 586.549 271.874 588.053 272.417 589.711C272.679 590.511 272.711 591.33 272.405 592.158C272.096 592.996 271.408 593.934 270.065 594.9L269.082 595.607L269.985 596.414C271.74 597.981 273.981 600.557 275.078 603.179C275.624 604.484 275.856 605.726 275.676 606.83C275.503 607.895 274.931 608.926 273.678 609.831L268.518 613.283L268.129 613.542L268.089 614.008C267.916 616.036 267.331 618.968 266.181 621.205C265.607 622.322 264.928 623.193 264.16 623.717C263.425 624.218 262.569 624.432 261.503 624.185L260.759 624.013L260.416 624.696C259.672 626.176 257.585 629.79 255.151 632.578C250.24 633.962 238.054 634.538 223.531 628.87C222.767 627.477 222.402 626.35 222.218 625.344C222.018 624.246 222.025 623.277 221.997 622.135C221.97 621.005 221.905 619.768 221.52 618.298C221.163 616.936 220.537 615.411 219.453 613.583L220.211 611.827C224.518 611.952 230.853 611.431 236.721 609.462C242.886 607.394 248.742 603.653 250.965 597.17L251.062 596.885L250.982 596.595C249.48 591.158 248.996 588.565 248.862 587.561L248.834 587.562L248.384 581.918L248.333 581.282L247.73 581.076L236.357 577.176L236.017 577.06L235.682 577.192C233.703 577.978 230.671 578.952 228.008 579.335C226.669 579.528 225.498 579.56 224.624 579.387C223.749 579.214 223.368 578.884 223.221 578.513C222.882 577.661 222.698 576.438 222.664 574.925C222.631 573.428 222.746 571.718 222.959 569.935C223.384 566.369 224.19 562.58 224.916 559.743C225.138 558.876 225.627 558.316 226.305 557.943C227.016 557.552 227.966 557.352 229.075 557.323Z" fill="#C6E700" stroke="#B2D000" stroke-width="1.94406"/>
<path d="M145.614 585.967L144.767 585.183C141.749 584.265 132.098 588.752 134.049 595.709C135.843 602.106 153.707 613 162.415 617.648C171.934 620.413 180.956 628.99 177.719 632.615C175.129 635.516 166.199 634.231 162.057 633.226C163.408 635.683 158.415 637.793 155.749 638.54C155.55 640.864 139.839 642.057 132.008 642.362C127.293 642.739 119.823 640.344 116.678 639.099L115.155 634.091L110.644 629.803L109.453 620.92L105.745 618.652L103.171 614.529L107.32 600.251L107.817 594.44L122.479 571.305L140.907 561.174L152.28 565.074C156.569 572.393 156.917 576.544 156.516 583.973C151.311 586.727 152.758 586.708 145.614 585.967Z" fill="#C6E700"/>
<path d="M137.478 578.442L145.614 585.967M145.614 585.967C152.758 586.708 151.311 586.727 156.516 583.973C156.917 576.544 156.569 572.393 152.28 565.074L140.907 561.174L122.479 571.305L107.817 594.44L107.32 600.251L103.171 614.529L105.745 618.652L109.453 620.92L110.644 629.803L115.155 634.091L116.678 639.099C119.823 640.344 127.293 642.739 132.008 642.362C139.839 642.057 155.55 640.864 155.749 638.54C158.415 637.793 163.408 635.683 162.057 633.226C166.199 634.231 175.129 635.516 177.719 632.615C180.956 628.99 171.934 620.413 162.415 617.648C153.707 613 135.843 602.106 134.049 595.709C131.807 587.712 144.894 582.978 145.614 585.967Z" stroke="#B3D101" stroke-width="1.94406"/>
<path d="M335 400.5L286.5 429L241.5 301.5C273.9 291.1 318.5 365.167 335 400.5Z" fill="black" stroke="black"/>
<path d="M28.5 419L78.5 440.5C93.4418 393.924 99.4765 367.061 110 319.069C76.6299 308.36 43.5964 383.218 28.5 419Z" fill="black" stroke="black"/>
</svg>
