<svg width="425" height="1097" viewBox="0 0 425 1097" fill="none" xmlns="http://www.w3.org/2000/svg">
<path d="M203.738 542.5H269.5C299.063 686.946 302.201 806.223 276.182 1032.5H216.77C199.722 841.062 179.279 733.755 203.738 542.5Z" fill="black"/>
<path d="M168.109 543H102.347C72.7839 687.446 69.6455 806.723 95.6647 1033H155.076C172.125 841.562 192.568 734.255 168.109 543Z" fill="black"/>
<path d="M181.131 337.189C186.192 337.214 189.436 337.622 191.378 338.029C192.709 341.163 195.177 348.655 196.292 363.321C198.305 389.79 195.178 419.429 190.317 450.711H175.254C171.831 425.261 170.298 397.536 172.746 372.965C174.707 353.289 178.61 342.257 181.131 337.189Z" stroke="#6A38F3" stroke-width="186.587" stroke-linecap="round"/>
<path d="M337.205 137.11C337.205 70.0665 271.532 15.7166 190.521 15.7166V258.504C236.554 258.504 296.671 239.573 317 214.5C337.329 189.427 329.698 163.536 337.205 137.11Z" fill="#C6E700"/>
<path d="M44 137.394C44 70.3499 109.673 16 190.684 16V258.788C144.651 258.788 84.5344 239.856 64.2051 214.783C43.8757 189.711 51.507 163.819 44 137.394Z" fill="#C6E700"/>
<mask id="path-6-inside-1_165_595" fill="white">
<path d="M183.842 274.306C169.316 272.327 166.592 260.944 167.046 255.5H202C202 262.594 198.368 276.286 183.842 274.306Z"/>
</mask>
<path d="M167.046 255.5V-286.5H-331.64L-373.08 210.461L167.046 255.5ZM183.842 274.306L110.656 811.343L183.842 274.306ZM202 255.5H744V-286.5H202V255.5ZM167.046 255.5L-373.08 210.461C-381.652 313.268 -362.601 440.968 -285.32 560.491C-193.649 702.269 -46.9187 789.869 110.656 811.343L183.842 274.306L257.028 -262.73C400.076 -243.235 538.181 -162.317 624.972 -28.0868C697.374 83.8893 715.29 203.176 707.171 300.539L167.046 255.5ZM183.842 274.306L110.656 811.343C203.334 823.972 313.543 815.15 422.677 764.04C529.917 713.818 602.76 638.43 648.547 570.138C729.829 448.908 744 327.169 744 255.5H202H-340C-340 190.925 -327.645 79.5784 -251.81 -33.5271C-208.747 -97.7561 -139.536 -169.649 -37.0625 -217.639C67.3052 -266.517 171.614 -274.37 257.028 -262.73L183.842 274.306ZM202 255.5V-286.5H167.046V255.5V797.5H202V255.5Z" fill="#C6E700" mask="url(#path-6-inside-1_165_595)"/>
<path d="M172.064 159.5C170.114 179.759 213.279 179.24 208.653 159.5" stroke="black" stroke-width="3.37205" stroke-linecap="round"/>
<path d="M231.547 150.599V125.87" stroke="black" stroke-width="10.1162" stroke-linecap="round"/>
<path d="M149.494 150.599V125.87" stroke="black" stroke-width="10.1162" stroke-linecap="round"/>
<mask id="path-11-inside-2_165_595" fill="white">
<path d="M371.834 121.642C359.247 99.0376 323.245 110.646 308.439 123.841L317.935 161.617C340.065 154.667 384.421 144.247 371.834 121.642Z"/>
</mask>
<path d="M308.439 123.841L227.135 32.6146L171.883 81.8561L189.926 153.633L308.439 123.841ZM371.834 121.642L265.07 181.092L265.07 181.092L371.834 121.642ZM317.935 161.617L199.422 191.408L230.995 317.007L354.551 278.201L317.935 161.617ZM308.439 123.841L389.743 215.068C382.678 221.365 376.887 224.395 373.724 225.844C370.255 227.434 365.072 229.341 357.782 230.354C351.043 231.29 336.449 232.282 318.283 225.916C297.581 218.66 277.522 203.453 265.07 181.092L371.834 121.642L478.597 62.1927C436.866 -12.7517 359.863 -16.6807 324.155 -11.7206C288.32 -6.74275 253.029 9.53698 227.135 32.6146L308.439 123.841ZM371.834 121.642L265.07 181.092C258.116 168.602 251.386 150.015 251.867 127.01C252.354 103.729 260.052 84.3884 268.964 70.4893C277.275 57.5269 286.331 49.6405 291.365 45.7456C296.607 41.6895 300.684 39.5123 302.135 38.7682C304.619 37.4942 304.612 37.797 299.566 39.443C291.249 42.1562 293.601 41.175 281.318 45.0327L317.935 161.617L354.551 278.201C355.713 277.837 389.17 268.798 413.671 256.232C425.478 250.176 454.204 234.378 474.704 202.405C486.35 184.242 495.622 160.324 496.212 132.119C496.796 104.191 488.699 80.3335 478.597 62.1927L371.834 121.642ZM317.935 161.617L436.447 131.826L426.951 94.05L308.439 123.841L189.926 153.633L199.422 191.408L317.935 161.617Z" fill="#C6E700" mask="url(#path-11-inside-2_165_595)"/>
<path d="M343.053 118.409L322.898 138.45L339.499 140.214" stroke="black" stroke-width="1.83758" stroke-linecap="round"/>
<mask id="path-14-inside-3_165_595" fill="white">
<path d="M6.89273 121.642C19.4797 99.0376 55.4817 110.646 70.2879 123.841L60.7919 161.617C38.6619 154.667 -5.69424 144.247 6.89273 121.642Z"/>
</mask>
<path d="M70.2879 123.841L151.592 32.6146L206.843 81.8561L188.8 153.633L70.2879 123.841ZM6.89273 121.642L113.656 181.092L113.656 181.092L6.89273 121.642ZM60.7919 161.617L179.304 191.408L147.731 317.007L24.1755 278.201L60.7919 161.617ZM70.2879 123.841L-11.0163 215.068C-3.95106 221.365 1.8399 224.395 5.0026 225.844C8.4713 227.434 13.655 229.341 20.945 230.354C27.6836 231.29 42.2779 232.282 60.4432 225.916C81.1454 218.66 101.204 203.453 113.656 181.092L6.89273 121.642L-99.8708 62.1927C-58.1393 -12.7517 18.8638 -16.6807 54.5712 -11.7206C90.4064 -6.74275 125.698 9.53698 151.592 32.6146L70.2879 123.841ZM6.89273 121.642L113.656 181.092C120.611 168.602 127.341 150.015 126.86 127.01C126.373 103.729 118.674 84.3884 109.762 70.4893C101.451 57.5269 92.3954 49.6405 87.3617 45.7456C82.1196 41.6895 78.0424 39.5123 76.5916 38.7682C74.1077 37.4942 74.1148 37.797 79.1605 39.443C87.478 42.1562 85.1256 41.175 97.4083 45.0327L60.7919 161.617L24.1755 278.201C23.0137 277.837 -10.4438 268.798 -34.9447 256.232C-46.7512 250.176 -75.4773 234.378 -95.9777 202.405C-107.624 184.242 -116.896 160.324 -117.485 132.119C-118.069 104.191 -109.972 80.3335 -99.8708 62.1927L6.89273 121.642ZM60.7919 161.617L-57.7204 131.826L-48.2244 94.05L70.2879 123.841L188.8 153.633L179.304 191.408L60.7919 161.617Z" fill="#C6E700" mask="url(#path-14-inside-3_165_595)"/>
<path d="M35.6734 118.409L55.8287 138.45L39.2277 140.214" stroke="black" stroke-width="1.83758" stroke-linecap="round"/>
<path d="M262.921 36.508C214.233 33.8403 186.936 32.3286 138.254 31.4528" stroke="black" stroke-width="3.37205"/>
<path d="M165.454 43.459C156.805 45.5883 141.362 50.6792 125.283 57.1582C116.168 60.8314 107.853 64.5492 101.6 67.7764C98.4519 69.401 96.2456 70.6873 94.885 71.5801C94.8428 71.6078 94.8031 71.6361 94.7639 71.6621C93.2573 73.3788 91.5885 75.1132 89.8147 76.8428C142.557 84.2231 176.352 79.9184 196.701 71.4355C209.751 65.9957 216.884 59.0393 220.949 52.3613C221.114 52.0909 221.274 51.817 221.433 51.541L165.454 43.459Z" fill="#F6F3E4" stroke="#F6F3E4" stroke-width="62"/>
<path d="M317.5 119.5L250 55.5L260.5 29C309.207 15.2281 331.916 76.5896 334 110L317.5 119.5Z" fill="#F6F3E4" stroke="#F6F3E4"/>
<path d="M236.044 106.897C240.007 106.335 248.476 107.234 250.645 115.327" stroke="black" stroke-width="2.24803" stroke-linecap="round"/>
<path d="M149.483 108.021C145.52 107.459 137.051 108.358 134.882 116.451" stroke="black" stroke-width="2.24803" stroke-linecap="round"/>
<mask id="path-22-inside-4_165_595" fill="white">
<path d="M92 645.5C92 645.5 90.5699 641.045 99 542.881H270C273.559 622.837 276.5 645.5 276.5 645.5H92Z"/>
</mask>
<path d="M92 645.5C92 645.5 90.5699 641.045 99 542.881H270C273.559 622.837 276.5 645.5 276.5 645.5H92Z" fill="black"/>
<path d="M99 542.881V383.27H-47.4909L-60.0251 529.224L99 542.881ZM92 645.5L-59.9729 694.282L-24.3977 805.11H92V645.5ZM270 542.881L429.452 535.782L422.663 383.27H270V542.881ZM276.5 645.5V805.11H458.159L434.784 624.962L276.5 645.5ZM99 542.881L-60.0251 529.224C-64.2896 578.881 -66.2199 606.634 -67.0562 622.71C-67.4634 630.539 -67.7094 637.385 -67.702 643.463C-67.6985 646.4 -67.64 651.084 -67.241 656.612C-67.0385 659.415 -66.6597 663.716 -65.8884 668.903C-65.4925 671.565 -64.9165 674.984 -64.0704 678.932C-63.6408 680.936 -63.1114 683.218 -62.4591 685.723C-62.131 686.983 -61.7646 688.327 -61.3554 689.745C-61.1504 690.455 -60.9335 691.189 -60.7038 691.944C-60.5871 692.326 -60.4094 692.901 -60.3489 693.095C-60.1621 693.689 -59.9729 694.282 92 645.5C243.973 596.718 244.162 597.311 244.349 597.905C244.409 598.099 244.587 598.674 244.704 599.056C244.933 599.811 245.15 600.544 245.355 601.253C245.764 602.67 246.13 604.013 246.457 605.27C247.108 607.769 247.636 610.044 248.063 612.037C248.904 615.962 249.473 619.344 249.86 621.949C250.615 627.023 250.971 631.132 251.151 633.622C251.505 638.522 251.517 642.091 251.519 643.078C251.521 645.252 251.445 644.849 251.734 639.293C252.29 628.601 253.859 605.044 258.025 556.537L99 542.881ZM270 542.881L110.548 549.979C112.381 591.173 114.095 618.508 115.426 636.167C116.092 645.017 116.673 651.564 117.138 656.307C117.372 658.685 117.58 660.639 117.759 662.229C117.848 663.025 117.931 663.735 118.007 664.365C118.046 664.681 118.082 664.977 118.117 665.256C118.134 665.395 118.151 665.529 118.168 665.66C118.176 665.725 118.184 665.789 118.192 665.852C118.197 665.884 118.201 665.915 118.205 665.946C118.207 665.961 118.21 665.984 118.211 665.992C118.214 666.015 118.216 666.038 276.5 645.5C434.784 624.962 434.786 624.985 434.789 625.007C434.79 625.015 434.793 625.037 434.795 625.052C434.799 625.082 434.803 625.111 434.806 625.14C434.814 625.197 434.821 625.253 434.828 625.307C434.842 625.415 434.854 625.516 434.866 625.609C434.89 625.797 434.909 625.956 434.925 626.086C434.956 626.346 434.973 626.491 434.975 626.511C434.979 626.549 434.929 626.108 434.831 625.112C434.635 623.108 434.257 618.991 433.744 612.181C432.715 598.52 431.178 574.545 429.452 535.782L270 542.881ZM276.5 645.5V485.89H92V645.5V805.11H276.5V645.5ZM99 542.881V702.491H270V542.881V383.27H99V542.881Z" fill="black" mask="url(#path-22-inside-4_165_595)"/>
<path d="M238 556.5C239.124 566.632 245.531 588.011 262.166 592.469" stroke="#F6F3E4" stroke-width="2.24803"/>
<path d="M131.166 556.5C130.042 566.632 123.635 588.011 107 592.469" stroke="#F6F3E4" stroke-width="2.24803"/>
<path d="M229.815 319.346C228.425 319.634 227.27 320.996 227.216 322.379C227.206 322.724 227.254 323.045 227.374 323.353L227.724 324.207C227.768 324.385 227.653 324.605 227.449 324.698C227.315 324.794 227.177 324.746 227.086 324.648L226.541 323.957C226.111 323.432 225.423 323.182 224.666 323.301C223.281 323.517 222.059 324.833 221.934 326.229C221.877 326.84 222.036 327.384 222.374 327.811L222.924 328.429L222.938 328.426C223.039 328.594 222.98 328.834 222.815 328.977C222.679 329.101 222.507 329.132 222.4 329.05L221.685 328.576C221.225 328.285 220.653 328.186 220.066 328.303C218.691 328.574 217.509 329.927 217.439 331.327C217.4 332.092 217.721 332.751 218.288 333.123L219.059 333.616C219.206 333.733 219.19 333.965 219.009 334.126C218.958 334.183 218.895 334.228 218.828 334.252C218.76 334.277 218.692 334.281 218.632 334.264L218.618 334.266L217.774 334.014C217.454 333.942 217.131 333.913 216.789 333.959C215.42 334.158 214.185 335.463 214.043 336.875C213.971 337.918 214.476 338.773 215.391 339.012L231.163 343.484L238.191 335.679L232.095 320.46C231.762 319.561 230.818 319.126 229.815 319.346ZM230.586 325.075C231.188 324.955 231.707 325.207 231.897 325.717L235.565 334.854L230.316 330.144L229.2 327.322C228.835 326.485 229.569 325.283 230.586 325.075ZM225.618 329.885C226.004 329.817 226.351 329.899 226.603 330.14L232.993 335.894C233.526 336.344 233.477 337.254 232.893 337.929C232.28 338.609 231.393 338.78 230.834 338.292L224.444 332.538C224.317 332.431 224.219 332.293 224.156 332.132C224.093 331.971 224.066 331.79 224.077 331.6C224.087 331.411 224.136 331.216 224.218 331.027C224.301 330.838 224.416 330.659 224.558 330.501C224.85 330.163 225.232 329.953 225.618 329.885ZM221.393 335.379C221.578 335.346 221.775 335.369 221.912 335.416L224.863 336.241L230.097 340.954L220.598 338.266C219.184 337.886 219.823 335.613 221.393 335.379ZM239.802 337.669L233.311 344.879L234.44 345.895C235.451 346.79 236.994 346.933 238.494 346.282C239.233 345.954 239.922 345.449 240.491 344.816C241.06 344.184 241.491 343.447 241.74 342.677C242.23 341.117 241.927 339.597 240.932 338.686L239.802 337.669Z" fill="white"/>
<mask id="path-27-inside-5_165_595" fill="white">
<path d="M154.804 1096.5V1033H96.5L27.3038 1052C-4.40957 1071.07 -0.627254 1086.74 8.30355 1096.5H154.804Z"/>
</mask>
<path d="M154.804 1033H326.804V861H154.804V1033ZM154.804 1096.5V1268.5H326.804V1096.5H154.804ZM8.30355 1096.5L-118.615 1212.59L-67.4725 1268.5H8.30355V1096.5ZM27.3038 1052L-18.2386 886.139L-41.0584 892.405L-61.3382 904.601L27.3038 1052ZM96.5 1033V861H73.315L50.9576 867.139L96.5 1033ZM154.804 1033H-17.1964V1096.5H154.804H326.804V1033H154.804ZM154.804 1096.5V924.5H8.30355V1096.5V1268.5H154.804V1096.5ZM8.30355 1096.5L135.222 980.415C151.724 998.457 187.106 1049.56 169.311 1119.92C161.673 1150.11 146.772 1170.7 136.181 1182.19C125.943 1193.3 117.447 1198.5 115.946 1199.4L27.3038 1052L-61.3382 904.601C-90.6962 922.256 -145.544 961.861 -164.186 1035.56C-185.786 1120.96 -144.047 1184.78 -118.615 1212.59L8.30355 1096.5ZM27.3038 1052L72.8462 1217.86L142.042 1198.86L96.5 1033L50.9576 867.139L-18.2386 886.139L27.3038 1052ZM96.5 1033V1205H154.804V1033V861H96.5V1033Z" fill="black" mask="url(#path-27-inside-5_165_595)"/>
<mask id="path-29-inside-6_165_595" fill="white">
<path d="M217 1096V1032.5H275.304L344.5 1051.5C376.213 1070.57 372.431 1086.24 363.5 1096H217Z"/>
</mask>
<path d="M217 1032.5H45V860.5H217V1032.5ZM217 1096V1268H45V1096H217ZM363.5 1096L490.418 1212.09L439.276 1268H363.5V1096ZM344.5 1051.5L390.042 885.639L412.862 891.905L433.142 904.101L344.5 1051.5ZM275.304 1032.5V860.5H298.489L320.846 866.639L275.304 1032.5ZM217 1032.5H389V1096H217H45V1032.5H217ZM217 1096V924H363.5V1096V1268H217V1096ZM363.5 1096L236.582 979.915C220.08 997.957 184.698 1049.06 202.493 1119.42C210.131 1149.61 225.032 1170.2 235.623 1181.69C245.86 1192.8 254.356 1198 255.858 1198.9L344.5 1051.5L433.142 904.101C462.5 921.756 517.348 961.361 535.99 1035.06C557.59 1120.46 515.851 1184.28 490.418 1212.09L363.5 1096ZM344.5 1051.5L298.957 1217.36L229.761 1198.36L275.304 1032.5L320.846 866.639L390.042 885.639L344.5 1051.5ZM275.304 1032.5V1204.5H217V1032.5V860.5H275.304V1032.5Z" fill="black" mask="url(#path-29-inside-6_165_595)"/>
<ellipse cx="193.5" cy="28.5" rx="67.5" ry="28.5" fill="#F6F3E4"/>
<path d="M28.5 38.7753C54.5507 50.5056 131.298 28.1573 164.5 14L93.6268 59C66.3422 53.8405 50.262 52.1061 28.5 38.7753Z" fill="#F6F3E4" stroke="#F6F3E4"/>
<path d="M10 64.6297C44.4726 61.2548 115.028 33.8599 128 39.8544L66.507 84.8544C42.8337 79.6949 28.8817 77.9605 10 64.6297Z" fill="#F6F3E4" stroke="#F6F3E4"/>
<path d="M49 32.0389C126.213 12.9238 163.965 -2.00663 164 13.3653L94.266 38.0952C81.4614 44.713 71.375 43.0637 49 32.0389Z" fill="#F6F3E4" stroke="#F6F3E4"/>
<path d="M249.057 56.8393C258.325 90.4987 158.72 135.949 90.5463 111.466C88.6443 110.87 86.9536 110.213 85.5 109.5C87.161 110.2 88.8439 110.855 90.5463 111.466C126.293 122.674 236.638 112.583 249.057 56.8393Z" fill="#F6F3E4" stroke="#F6F3E4"/>
<path d="M367.877 524C324.968 520.394 276.399 416.643 277.006 332.585L313.953 314.561C340.97 323.397 368.594 415.465 367.877 456.11C369.2 417.982 362.849 394.991 376.5 327L414 327C435.123 429.525 422.837 528.619 367.877 524Z" fill="#C6E700" stroke="#C6E700"/>
<path d="M326.5 324C302.71 283.042 241.664 253.215 232.75 255.128L268.842 346L326.5 324Z" fill="#6A38F3" stroke="#6A38F3"/>
<path d="M41 324.131C64.7899 283.174 127.086 253.588 136 255.5L98.6583 346.131L41 324.131Z" fill="#6A38F3" stroke="#6A38F3"/>
<path d="M15.2166 504.5C7.93957 419.294 20.0039 362.447 40.5 325L89.2264 338.618C97.4728 386.278 75.1786 475.543 65.9909 501.96L15.2166 504.5Z" fill="#C6E700" stroke="#C6E700"/>
<path d="M20.833 664C7.68309 596.326 4.76462 536.108 15.7798 501.561L67 500C66.6883 512.07 62.4322 612.33 50.2881 664H20.833Z" fill="#C6E700" stroke="#C6E700" stroke-width="0.775862"/>
<path d="M56.4747 717.59C63.3496 704.648 55.7782 676.466 50.5 664L20 659.5C17.5902 676.418 17.4922 712.684 22.3692 710.566C17.1755 719.381 11.5567 726.383 13.999 730.703C15.6352 733.597 18.7378 730.661 21.6732 725.671C17.1495 735.99 13.0728 745.416 16.068 745.165C18.6858 744.945 22.5908 740.366 26.5876 734.296C20.3969 744.758 15.1174 754.049 19.1774 753.237C24.8254 752.106 33.4679 740.875 40.015 730.285C36.7935 736.135 34.6248 740.69 37.6882 739.17C44.2963 735.892 53.745 723.009 56.4747 717.59Z" fill="#C6E700" stroke="#B3D101" stroke-width="0.775862"/>
<path d="M20 656H51L50.1727 665H20V656Z" fill="#C6E700"/>
<path d="M381.96 182.193V253.011L381.206 275.236H329.6C329.725 245.854 330.052 186.111 330.353 182.193C330.654 178.276 334.246 176.543 336.003 176.166C347.555 176.041 371.714 175.865 375.933 176.166C380.152 176.468 381.709 180.31 381.96 182.193Z" fill="#191919" stroke="#191919" stroke-width="0.584521"/>
<rect x="333.084" y="178.521" width="19.3996" height="20.153" rx="5.1795" fill="#858585" stroke="#858585" stroke-width="0.188346"/>
<path d="M351.071 189.351C351.071 191.639 349.216 193.494 346.928 193.494C344.639 193.494 342.784 191.639 342.784 189.351C342.784 187.062 344.639 185.207 346.928 185.207C349.216 185.207 351.071 187.062 351.071 189.351Z" fill="#D9D9D9" fill-opacity="0.11"/>
<path d="M351.071 189.351C351.071 191.639 349.216 193.494 346.928 193.494C344.639 193.494 342.784 191.639 342.784 189.351C342.784 187.062 344.639 185.207 346.928 185.207C349.216 185.207 351.071 187.062 351.071 189.351Z" fill="#D9D9D9" fill-opacity="0.11"/>
<path d="M350.318 189.162C350.318 191.035 348.8 192.552 346.928 192.552C345.055 192.552 343.537 191.035 343.537 189.162C343.537 187.29 345.055 185.772 346.928 185.772C348.8 185.772 350.318 187.29 350.318 189.162Z" fill="black"/>
<path d="M350.318 189.162C350.318 191.035 348.8 192.552 346.928 192.552C345.055 192.552 343.537 191.035 343.537 189.162C343.537 187.29 345.055 185.772 346.928 185.772C348.8 185.772 350.318 187.29 350.318 189.162Z" fill="black"/>
<mask id="path-47-inside-7_165_595" fill="white">
<path d="M348.949 188.221C348.938 189.755 348.623 190.287 348.058 191.234C348.269 191.234 348.856 190.631 349.062 190.23C349.268 189.828 349.034 188.89 348.949 188.221Z"/>
</mask>
<path d="M348.949 188.221C348.938 189.755 348.623 190.287 348.058 191.234C348.269 191.234 348.856 190.631 349.062 190.23C349.268 189.828 349.034 188.89 348.949 188.221Z" fill="#191919"/>
<path d="M348.058 191.234L347.388 190.835L346.685 192.013L348.058 192.013L348.058 191.234ZM348.949 188.221L349.722 188.122L348.169 188.215L348.949 188.221ZM348.058 191.234L348.727 191.633C349.002 191.172 349.267 190.732 349.449 190.199C349.634 189.652 349.722 189.047 349.728 188.226L348.949 188.221L348.169 188.215C348.164 188.928 348.089 189.356 347.973 189.697C347.853 190.049 347.678 190.35 347.388 190.835L348.058 191.234ZM348.949 188.221L348.175 188.319C348.199 188.503 348.232 188.704 348.262 188.886C348.293 189.075 348.321 189.252 348.341 189.417C348.36 189.584 348.368 189.714 348.364 189.812C348.36 189.921 348.344 189.922 348.368 189.874L349.062 190.23L349.756 190.585C349.883 190.336 349.915 190.069 349.922 189.869C349.93 189.656 349.912 189.436 349.889 189.234C349.865 189.031 349.831 188.822 349.801 188.635C349.769 188.441 349.741 188.272 349.722 188.122L348.949 188.221ZM349.062 190.23L348.368 189.874C348.315 189.978 348.176 190.165 348.008 190.334C347.928 190.415 347.863 190.47 347.822 190.499C347.801 190.514 347.802 190.511 347.821 190.502C347.828 190.499 347.917 190.455 348.058 190.455L348.058 191.234L348.058 192.013C348.251 192.013 348.405 191.95 348.485 191.913C348.578 191.869 348.66 191.816 348.727 191.768C348.863 191.671 348.997 191.551 349.116 191.431C349.346 191.199 349.603 190.883 349.756 190.585L349.062 190.23Z" fill="#191919" mask="url(#path-47-inside-7_165_595)"/>
<circle cx="346.551" cy="188.974" r="0.753382" fill="#191919"/>
<path d="M342.031 184.077C342.031 186.365 340.175 188.221 337.887 188.221C335.599 188.221 333.743 186.365 333.743 184.077C333.743 181.788 335.599 179.933 337.887 179.933C340.175 179.933 342.031 181.788 342.031 184.077Z" fill="#D9D9D9" fill-opacity="0.11"/>
<path d="M342.031 184.077C342.031 186.365 340.175 188.221 337.887 188.221C335.599 188.221 333.743 186.365 333.743 184.077C333.743 181.788 335.599 179.933 337.887 179.933C340.175 179.933 342.031 181.788 342.031 184.077Z" fill="#D9D9D9" fill-opacity="0.11"/>
<path d="M341.277 183.889C341.277 185.761 339.759 187.279 337.887 187.279C336.015 187.279 334.497 185.761 334.497 183.889C334.497 182.016 336.015 180.498 337.887 180.498C339.759 180.498 341.277 182.016 341.277 183.889Z" fill="black"/>
<path d="M341.277 183.889C341.277 185.761 339.759 187.279 337.887 187.279C336.015 187.279 334.497 185.761 334.497 183.889C334.497 182.016 336.015 180.498 337.887 180.498C339.759 180.498 341.277 182.016 341.277 183.889Z" fill="black"/>
<mask id="path-52-inside-8_165_595" fill="white">
<path d="M339.908 182.947C339.897 184.481 339.582 185.014 339.017 185.96C339.228 185.96 339.816 185.358 340.022 184.956C340.227 184.554 339.994 183.617 339.908 182.947Z"/>
</mask>
<path d="M339.908 182.947C339.897 184.481 339.582 185.014 339.017 185.96C339.228 185.96 339.816 185.358 340.022 184.956C340.227 184.554 339.994 183.617 339.908 182.947Z" fill="#191919"/>
<path d="M339.017 185.96L338.348 185.561L337.644 186.74L339.017 186.74L339.017 185.96ZM339.908 182.947L340.681 182.848L339.129 182.941L339.908 182.947ZM339.017 185.96L339.686 186.36C339.962 185.898 340.226 185.459 340.408 184.925C340.594 184.379 340.681 183.773 340.687 182.952L339.908 182.947L339.129 182.941C339.123 183.655 339.048 184.083 338.932 184.423C338.812 184.776 338.637 185.076 338.348 185.561L339.017 185.96ZM339.908 182.947L339.135 183.046C339.158 183.23 339.192 183.43 339.222 183.612C339.253 183.802 339.281 183.978 339.3 184.143C339.32 184.31 339.327 184.441 339.324 184.538C339.32 184.647 339.303 184.648 339.328 184.601L340.022 184.956L340.715 185.311C340.843 185.062 340.874 184.796 340.881 184.595C340.889 184.383 340.872 184.162 340.848 183.961C340.824 183.757 340.791 183.549 340.76 183.361C340.728 183.167 340.7 182.999 340.681 182.848L339.908 182.947ZM340.022 184.956L339.328 184.601C339.275 184.704 339.135 184.891 338.968 185.06C338.888 185.141 338.822 185.197 338.782 185.225C338.761 185.24 338.761 185.238 338.781 185.229C338.787 185.225 338.877 185.181 339.017 185.181L339.017 185.96L339.017 186.74C339.21 186.74 339.364 186.677 339.444 186.639C339.537 186.595 339.619 186.542 339.687 186.494C339.822 186.398 339.956 186.277 340.075 186.157C340.305 185.925 340.563 185.609 340.715 185.311L340.022 184.956Z" fill="#191919" mask="url(#path-52-inside-8_165_595)"/>
<circle cx="337.51" cy="183.7" r="0.753382" fill="#191919"/>
<path d="M342.031 193.871C342.031 196.159 340.175 198.014 337.887 198.014C335.599 198.014 333.743 196.159 333.743 193.871C333.743 191.582 335.599 189.727 337.887 189.727C340.175 189.727 342.031 191.582 342.031 193.871Z" fill="#D9D9D9" fill-opacity="0.11"/>
<path d="M342.031 193.871C342.031 196.159 340.175 198.014 337.887 198.014C335.599 198.014 333.743 196.159 333.743 193.871C333.743 191.582 335.599 189.727 337.887 189.727C340.175 189.727 342.031 191.582 342.031 193.871Z" fill="#D9D9D9" fill-opacity="0.11"/>
<path d="M341.277 193.683C341.277 195.555 339.759 197.073 337.887 197.073C336.015 197.073 334.497 195.555 334.497 193.683C334.497 191.81 336.015 190.292 337.887 190.292C339.759 190.292 341.277 191.81 341.277 193.683Z" fill="black"/>
<path d="M341.277 193.683C341.277 195.555 339.759 197.073 337.887 197.073C336.015 197.073 334.497 195.555 334.497 193.683C334.497 191.81 336.015 190.292 337.887 190.292C339.759 190.292 341.277 191.81 341.277 193.683Z" fill="black"/>
<mask id="path-57-inside-9_165_595" fill="white">
<path d="M339.908 192.741C339.897 194.275 339.582 194.808 339.017 195.754C339.228 195.754 339.816 195.152 340.022 194.75C340.227 194.348 339.994 193.41 339.908 192.741Z"/>
</mask>
<path d="M339.908 192.741C339.897 194.275 339.582 194.808 339.017 195.754C339.228 195.754 339.816 195.152 340.022 194.75C340.227 194.348 339.994 193.41 339.908 192.741Z" fill="#191919"/>
<path d="M339.017 195.754L338.348 195.355L337.644 196.534L339.017 196.534L339.017 195.754ZM339.908 192.741L340.681 192.642L339.129 192.735L339.908 192.741ZM339.017 195.754L339.686 196.154C339.962 195.692 340.226 195.253 340.408 194.719C340.594 194.173 340.681 193.567 340.687 192.746L339.908 192.741L339.129 192.735C339.123 193.449 339.048 193.877 338.932 194.217C338.812 194.57 338.637 194.87 338.348 195.355L339.017 195.754ZM339.908 192.741L339.135 192.84C339.158 193.024 339.192 193.224 339.222 193.406C339.253 193.596 339.281 193.772 339.3 193.937C339.32 194.104 339.327 194.235 339.324 194.332C339.32 194.441 339.303 194.442 339.328 194.395L340.022 194.75L340.715 195.105C340.843 194.856 340.874 194.59 340.881 194.389C340.889 194.177 340.872 193.956 340.848 193.755C340.824 193.551 340.791 193.343 340.76 193.155C340.728 192.961 340.7 192.793 340.681 192.642L339.908 192.741ZM340.022 194.75L339.328 194.395C339.275 194.498 339.135 194.685 338.968 194.854C338.888 194.935 338.822 194.991 338.782 195.019C338.761 195.034 338.761 195.032 338.781 195.022C338.787 195.019 338.877 194.975 339.017 194.975L339.017 195.754L339.017 196.534C339.21 196.534 339.364 196.471 339.444 196.433C339.537 196.389 339.619 196.336 339.687 196.288C339.822 196.192 339.956 196.071 340.075 195.951C340.305 195.719 340.563 195.403 340.715 195.105L340.022 194.75Z" fill="#191919" mask="url(#path-57-inside-9_165_595)"/>
<circle cx="337.51" cy="193.494" r="0.753382" fill="#191919"/>
<circle cx="346.551" cy="182.193" r="1.50676" fill="#D9D9D9"/>
<path d="M406.445 303.111C410.362 307.632 414.251 322.101 414 327.5L375.933 334V321.946C349.564 306.502 351.071 296.331 349.941 296.708C349.037 297.009 347.555 295.829 346.928 295.201C345.722 295.201 342.91 293.945 341.654 293.317C341.051 293.92 339.645 294.071 339.017 294.071C332.689 292.564 333.367 288.169 334.497 286.16C334.497 285.256 338.515 282.77 340.524 281.64L335.25 281.263C333.743 283.071 331.86 283.774 331.107 283.9C322.066 283.9 322.819 277.12 323.196 275.99C323.573 274.859 325.079 271.093 329.6 269.586C334.12 268.079 336.004 268.079 343.537 270.339C349.564 272.147 350.569 271.093 350.318 270.339C349.816 269.209 348.208 266.874 345.797 266.572C343.387 266.271 339.77 264.689 338.264 263.935C337.058 265.442 333.241 264.814 331.483 264.689C328.923 271.366 325.355 268.787 323.573 265.442C322.904 263.656 323.907 257.671 326.586 254.895C328.516 252.896 337.636 251.253 342.031 250.751C348.058 251.881 356.345 257.532 361.618 258.662C364.331 257.456 355.968 252.132 351.448 249.621C350.694 248.114 345.797 245.101 328.47 240.581C320.333 233.047 325.582 231.666 329.223 231.917C342.031 231.917 344.291 235.307 348.058 234.93C351.071 234.629 355.34 236.06 357.098 236.814L381.96 252.635V233.047C382.588 231.58 384.597 228.849 387.61 229.657C390.624 230.464 390.121 236.522 389.494 239.451C390.914 242.087 393.58 247.662 392.884 248.868C392.188 250.073 394.352 258.662 395.521 262.805C398.233 265.518 399.915 269.962 400.418 271.846C399.288 275.99 401.548 297.461 406.445 303.111Z" fill="#C6E700" stroke="#B3D101" stroke-width="0.584521"/>
<path d="M375.5 329.5L413.822 323.157C414.199 327.294 414.737 328.813 415.266 331.878L376.944 338.222C375.321 335.06 375.12 333.123 375.5 329.5Z" fill="#C6E700"/>
</svg>
