<svg width="97" height="18" viewBox="0 0 97 18" fill="none" xmlns="http://www.w3.org/2000/svg">
<path d="M4.99432 17.6932L-1.37091e-06 0.238636H4.03125L6.92045 12.3665H7.06534L10.2528 0.238636H13.7045L16.8835 12.392H17.0369L19.9261 0.238636H23.9574L18.9631 17.6932H15.3665L12.0426 6.28125H11.9062L8.59091 17.6932H4.99432ZM28.191 17.9403C27.3558 17.9403 26.6115 17.7955 25.9581 17.5057C25.3047 17.2102 24.7876 16.7756 24.407 16.2017C24.032 15.6222 23.8445 14.9006 23.8445 14.0369C23.8445 13.3097 23.978 12.6989 24.245 12.2045C24.5121 11.7102 24.8757 11.3125 25.3359 11.0114C25.7962 10.7102 26.3189 10.483 26.9041 10.3295C27.495 10.1761 28.1143 10.0682 28.7621 10.0057C29.5234 9.92614 30.1371 9.85227 30.603 9.78409C31.0689 9.71023 31.407 9.60227 31.6172 9.46023C31.8274 9.31818 31.9325 9.10795 31.9325 8.82955V8.77841C31.9325 8.23864 31.7621 7.82102 31.4212 7.52557C31.0859 7.23011 30.6087 7.08239 29.9893 7.08239C29.3359 7.08239 28.816 7.22727 28.4297 7.51705C28.0433 7.80114 27.7876 8.15909 27.6626 8.59091L24.3047 8.31818C24.4751 7.52273 24.8104 6.83523 25.3104 6.25568C25.8104 5.67045 26.4553 5.22159 27.245 4.90909C28.0405 4.59091 28.9609 4.43182 30.0064 4.43182C30.7337 4.43182 31.4297 4.51705 32.0945 4.6875C32.7649 4.85795 33.3587 5.12216 33.8757 5.48011C34.3984 5.83807 34.8104 6.2983 35.1115 6.8608C35.4126 7.41761 35.5632 8.08523 35.5632 8.86364V17.6932H32.12V15.8778H32.0178C31.8075 16.2869 31.5263 16.6477 31.174 16.9602C30.8217 17.267 30.3984 17.5085 29.9041 17.6847C29.4098 17.8551 28.8388 17.9403 28.191 17.9403ZM29.2308 15.4347C29.7649 15.4347 30.2365 15.3295 30.6456 15.1193C31.0547 14.9034 31.3757 14.6136 31.6087 14.25C31.8416 13.8864 31.9581 13.4744 31.9581 13.0142V11.625C31.8445 11.6989 31.6882 11.767 31.4893 11.8295C31.2962 11.8864 31.0774 11.9403 30.8331 11.9915C30.5888 12.0369 30.3445 12.0795 30.1001 12.1193C29.8558 12.1534 29.6342 12.1847 29.4354 12.2131C29.0092 12.2756 28.6371 12.375 28.3189 12.5114C28.0007 12.6477 27.7535 12.8324 27.5774 13.0653C27.4013 13.2926 27.3132 13.5767 27.3132 13.9176C27.3132 14.4119 27.4922 14.7898 27.8501 15.0511C28.2138 15.3068 28.674 15.4347 29.2308 15.4347ZM50.1158 4.60227L45.5391 17.6932H41.4482L36.8714 4.60227H40.7067L43.4254 13.9688H43.5618L46.272 4.60227H50.1158ZM57.5178 17.9489C56.1712 17.9489 55.0121 17.6761 54.0405 17.1307C53.0746 16.5795 52.3303 15.8011 51.8075 14.7955C51.2848 13.7841 51.0234 12.5881 51.0234 11.2074C51.0234 9.8608 51.2848 8.67898 51.8075 7.66193C52.3303 6.64489 53.066 5.85227 54.0149 5.28409C54.9695 4.71591 56.0888 4.43182 57.3729 4.43182C58.2365 4.43182 59.0405 4.57102 59.7848 4.84943C60.5348 5.12216 61.1882 5.53409 61.745 6.08523C62.3075 6.63636 62.745 7.32955 63.0575 8.16477C63.37 8.99432 63.5263 9.96591 63.5263 11.0795V12.0767H52.4723V9.8267H60.1087C60.1087 9.30398 59.995 8.84091 59.7678 8.4375C59.5405 8.03409 59.2251 7.71875 58.8217 7.49148C58.424 7.25852 57.9609 7.14205 57.4325 7.14205C56.8814 7.14205 56.3928 7.26989 55.9666 7.52557C55.5462 7.77557 55.2166 8.11364 54.978 8.53977C54.7393 8.96023 54.6172 9.42898 54.6115 9.94602V12.0852C54.6115 12.733 54.7308 13.2926 54.9695 13.7642C55.2138 14.2358 55.5575 14.5994 56.0007 14.8551C56.4439 15.1108 56.9695 15.2386 57.5774 15.2386C57.9808 15.2386 58.3501 15.1818 58.6854 15.0682C59.0206 14.9545 59.3075 14.7841 59.5462 14.5568C59.7848 14.3295 59.9666 14.0511 60.0916 13.7216L63.4496 13.9432C63.2791 14.75 62.9297 15.4545 62.4013 16.0568C61.8786 16.6534 61.2024 17.1193 60.3729 17.4545C59.549 17.7841 58.5973 17.9489 57.5178 17.9489ZM82.0036 8.96591C82.0036 10.8693 81.6428 12.4886 80.9212 13.8239C80.2053 15.1591 79.228 16.179 77.9893 16.8835C76.7564 17.5824 75.37 17.9318 73.8303 17.9318C72.2791 17.9318 70.8871 17.5795 69.6541 16.875C68.4212 16.1705 67.4467 15.1506 66.7308 13.8153C66.0149 12.4801 65.657 10.8636 65.657 8.96591C65.657 7.0625 66.0149 5.44318 66.7308 4.10795C67.4467 2.77273 68.4212 1.75568 69.6541 1.05682C70.8871 0.352273 72.2791 -4.76837e-07 73.8303 -4.76837e-07C75.37 -4.76837e-07 76.7564 0.352273 77.9893 1.05682C79.228 1.75568 80.2053 2.77273 80.9212 4.10795C81.6428 5.44318 82.0036 7.0625 82.0036 8.96591ZM78.2621 8.96591C78.2621 7.73295 78.0774 6.69318 77.7081 5.84659C77.3445 5 76.8303 4.35795 76.1655 3.92045C75.5007 3.48295 74.7223 3.2642 73.8303 3.2642C72.9382 3.2642 72.1598 3.48295 71.495 3.92045C70.8303 4.35795 70.3132 5 69.9439 5.84659C69.5803 6.69318 69.3984 7.73295 69.3984 8.96591C69.3984 10.1989 69.5803 11.2386 69.9439 12.0852C70.3132 12.9318 70.8303 13.5739 71.495 14.0114C72.1598 14.4489 72.9382 14.6676 73.8303 14.6676C74.7223 14.6676 75.5007 14.4489 76.1655 14.0114C76.8303 13.5739 77.3445 12.9318 77.7081 12.0852C78.0774 11.2386 78.2621 10.1989 78.2621 8.96591ZM88.2997 10.125V17.6932H84.669V4.60227H88.1293V6.91193H88.2827C88.5724 6.15057 89.0582 5.5483 89.7401 5.10511C90.4219 4.65625 91.2486 4.43182 92.2202 4.43182C93.1293 4.43182 93.9219 4.63068 94.598 5.02841C95.2741 5.42614 95.7997 5.99432 96.1747 6.73295C96.5497 7.46591 96.7372 8.34091 96.7372 9.35795V17.6932H93.1065V10.0057C93.1122 9.20455 92.9077 8.57955 92.4929 8.13068C92.0781 7.67614 91.5071 7.44886 90.7798 7.44886C90.2912 7.44886 89.8594 7.55398 89.4844 7.7642C89.1151 7.97443 88.8253 8.28125 88.6151 8.68466C88.4105 9.08239 88.3054 9.5625 88.2997 10.125Z" fill="black"/>
</svg>
