<svg width="97" height="18" viewBox="0 0 97 18" fill="none" xmlns="http://www.w3.org/2000/svg">
<path d="M4.99436 17.6932L4.44055e-05 0.23863H4.03129L6.9205 12.3665H7.06539L10.2529 0.23863H13.7046L16.8836 12.392H17.037L19.9262 0.23863H23.9574L18.9631 17.6932H15.3665L12.0427 6.28124H11.9063L8.59095 17.6932H4.99436ZM28.1911 17.9403C27.3559 17.9403 26.6116 17.7954 25.9581 17.5057C25.3047 17.2102 24.7877 16.7756 24.407 16.2017C24.032 15.6222 23.8445 14.9006 23.8445 14.0369C23.8445 13.3097 23.978 12.6989 24.2451 12.2045C24.5121 11.7102 24.8758 11.3125 25.336 11.0114C25.7962 10.7102 26.3189 10.4829 26.9042 10.3295C27.4951 10.1761 28.1144 10.0682 28.7621 10.0057C29.5235 9.92613 30.1371 9.85227 30.603 9.78409C31.0689 9.71022 31.407 9.60227 31.6172 9.46022C31.8275 9.31818 31.9326 9.10795 31.9326 8.82954V8.7784C31.9326 8.23863 31.7621 7.82102 31.4212 7.52556C31.086 7.23011 30.6087 7.08238 29.9894 7.08238C29.336 7.08238 28.8161 7.22727 28.4297 7.51704C28.0434 7.80113 27.7877 8.15909 27.6627 8.5909L24.3047 8.31818C24.4752 7.52272 24.8104 6.83522 25.3104 6.25568C25.8104 5.67045 26.4553 5.22158 27.2451 4.90908C28.0405 4.5909 28.961 4.43181 30.0064 4.43181C30.7337 4.43181 31.4297 4.51704 32.0945 4.68749C32.765 4.85795 33.3587 5.12215 33.8758 5.48011C34.3985 5.83806 34.8104 6.29829 35.1116 6.86079C35.4127 7.41761 35.5633 8.08522 35.5633 8.86363V17.6932H32.1201V15.8778H32.0178C31.8076 16.2869 31.5263 16.6477 31.1741 16.9602C30.8218 17.267 30.3985 17.5085 29.9042 17.6847C29.4098 17.8551 28.8388 17.9403 28.1911 17.9403ZM29.2309 15.4347C29.765 15.4347 30.2366 15.3295 30.6456 15.1193C31.0547 14.9034 31.3758 14.6136 31.6087 14.25C31.8417 13.8864 31.9581 13.4744 31.9581 13.0142V11.625C31.8445 11.6989 31.6883 11.767 31.4894 11.8295C31.2962 11.8864 31.0775 11.9403 30.8331 11.9915C30.5888 12.0369 30.3445 12.0795 30.1002 12.1193C29.8559 12.1534 29.6343 12.1847 29.4354 12.2131C29.0093 12.2756 28.6371 12.375 28.3189 12.5114C28.0008 12.6477 27.7536 12.8324 27.5775 13.0653C27.4013 13.2926 27.3133 13.5767 27.3133 13.9176C27.3133 14.4119 27.4922 14.7898 27.8502 15.0511C28.2138 15.3068 28.6741 15.4347 29.2309 15.4347ZM50.1158 4.60227L45.5391 17.6932H41.4482L36.8715 4.60227H40.7067L43.4255 13.9687H43.5618L46.2721 4.60227H50.1158ZM57.5178 17.9489C56.1712 17.9489 55.0121 17.6761 54.0405 17.1307C53.0746 16.5795 52.3303 15.8011 51.8076 14.7954C51.2848 13.7841 51.0235 12.5881 51.0235 11.2074C51.0235 9.86079 51.2848 8.67897 51.8076 7.66193C52.3303 6.64488 53.0661 5.85227 54.015 5.28408C54.9695 4.7159 56.0888 4.43181 57.3729 4.43181C58.2366 4.43181 59.0405 4.57102 59.7848 4.84943C60.5348 5.12215 61.1883 5.53409 61.7451 6.08522C62.3076 6.63636 62.7451 7.32954 63.0576 8.16477C63.3701 8.99431 63.5263 9.9659 63.5263 11.0795V12.0767H52.4723V9.8267H60.1087C60.1087 9.30397 59.9951 8.8409 59.7678 8.43749C59.5405 8.03409 59.2252 7.71874 58.8218 7.49147C58.4241 7.25852 57.961 7.14204 57.4326 7.14204C56.8814 7.14204 56.3928 7.26988 55.9667 7.52556C55.5462 7.77556 55.2167 8.11363 54.978 8.53977C54.7394 8.96022 54.6172 9.42897 54.6116 9.94602V12.0852C54.6116 12.7329 54.7309 13.2926 54.9695 13.7642C55.2138 14.2358 55.5576 14.5994 56.0008 14.8551C56.4439 15.1108 56.9695 15.2386 57.5775 15.2386C57.9809 15.2386 58.3502 15.1818 58.6854 15.0682C59.0206 14.9545 59.3076 14.7841 59.5462 14.5568C59.7848 14.3295 59.9667 14.0511 60.0917 13.7216L63.4496 13.9432C63.2792 14.75 62.9297 15.4545 62.4013 16.0568C61.8786 16.6534 61.2025 17.1193 60.3729 17.4545C59.5491 17.7841 58.5973 17.9489 57.5178 17.9489ZM82.0036 8.9659C82.0036 10.8693 81.6428 12.4886 80.9212 13.8239C80.2053 15.1591 79.228 16.179 77.9894 16.8835C76.7564 17.5824 75.3701 17.9318 73.8303 17.9318C72.2792 17.9318 70.8871 17.5795 69.6542 16.875C68.4212 16.1704 67.4468 15.1506 66.7309 13.8153C66.015 12.4801 65.657 10.8636 65.657 8.9659C65.657 7.06249 66.015 5.44318 66.7309 4.10795C67.4468 2.77272 68.4212 1.75568 69.6542 1.05681C70.8871 0.352267 72.2792 -6.19888e-06 73.8303 -6.19888e-06C75.3701 -6.19888e-06 76.7564 0.352267 77.9894 1.05681C79.228 1.75568 80.2053 2.77272 80.9212 4.10795C81.6428 5.44318 82.0036 7.06249 82.0036 8.9659ZM78.2621 8.9659C78.2621 7.73295 78.0775 6.69318 77.7081 5.84659C77.3445 4.99999 76.8303 4.35795 76.1655 3.92045C75.5008 3.48295 74.7223 3.2642 73.8303 3.2642C72.9383 3.2642 72.1598 3.48295 71.4951 3.92045C70.8303 4.35795 70.3133 4.99999 69.9439 5.84659C69.5803 6.69318 69.3985 7.73295 69.3985 8.9659C69.3985 10.1989 69.5803 11.2386 69.9439 12.0852C70.3133 12.9318 70.8303 13.5739 71.4951 14.0114C72.1598 14.4489 72.9383 14.6676 73.8303 14.6676C74.7223 14.6676 75.5008 14.4489 76.1655 14.0114C76.8303 13.5739 77.3445 12.9318 77.7081 12.0852C78.0775 11.2386 78.2621 10.1989 78.2621 8.9659ZM88.2998 10.125V17.6932H84.6691V4.60227H88.1293V6.91193H88.2827C88.5725 6.15056 89.0583 5.54829 89.7401 5.10511C90.4219 4.65624 91.2486 4.43181 92.2202 4.43181C93.1293 4.43181 93.9219 4.63068 94.5981 5.0284C95.2742 5.42613 95.7998 5.99431 96.1748 6.73295C96.5498 7.4659 96.7373 8.3409 96.7373 9.35795V17.6932H93.1066V10.0057C93.1123 9.20454 92.9077 8.57954 92.4929 8.13068C92.0782 7.67613 91.5071 7.44886 90.7799 7.44886C90.2912 7.44886 89.8594 7.55397 89.4844 7.7642C89.1151 7.97443 88.8253 8.28124 88.6151 8.68465C88.4106 9.08238 88.3054 9.56249 88.2998 10.125Z" fill="white"/>
</svg>
